<svg id="Layer_1" data-name="Layer 1" xmlns="http://www.w3.org/2000/svg" xmlns:xlink="http://www.w3.org/1999/xlink" viewBox="0 0 32 27.73"><defs><style>.cls-1{fill:#fff;}.cls-1,.cls-10,.cls-2,.cls-3,.cls-4,.cls-5,.cls-6,.cls-7,.cls-8,.cls-9{fill-rule:evenodd;}.cls-2{fill:#009cd8;}.cls-3{fill:#3a6cb4;}.cls-4{fill:url(#GradientFill_1);}.cls-5{fill:url(#GradientFill_1-2);}.cls-6{fill:#19215c;}.cls-7{fill:url(#GradientFill_2);}.cls-8{fill:url(#GradientFill_2-2);}.cls-9{fill:url(#GradientFill_1-3);}.cls-10{fill:#f4f7fc;}</style><linearGradient id="GradientFill_1" x1="12.79" y1="10.94" x2="26.31" y2="10.94" gradientUnits="userSpaceOnUse"><stop offset="0" stop-color="#009cd8"/><stop offset="1" stop-color="#006893"/></linearGradient><linearGradient id="GradientFill_1-2" x1="2.47" y1="20.38" x2="3.64" y2="20.38" xlink:href="#GradientFill_1"/><linearGradient id="GradientFill_2" x1="7.12" y1="17.99" x2="11.53" y2="15.55" gradientUnits="userSpaceOnUse"><stop offset="0" stop-color="#20286a"/><stop offset="0.33" stop-color="#1a2158"/><stop offset="0.99" stop-color="#091028"/><stop offset="1" stop-color="#091027"/></linearGradient><linearGradient id="GradientFill_2-2" x1="9.55" y1="27.81" x2="14.18" y2="23.06" xlink:href="#GradientFill_2"/><linearGradient id="GradientFill_1-3" x1="2.35" y1="12.6" x2="9.44" y2="12.6" xlink:href="#GradientFill_1"/></defs><path class="cls-1" d="M26.4,12.52c-.39-.74-.3-1.43.2-1.54s1.22.41,1.61,1.15.3,1.42-.2,1.53S26.79,13.26,26.4,12.52Z" transform="translate(0 -2.13)"/><path class="cls-1" d="M26.2,11.71h0a3.62,3.62,0,0,0,.21.92,3.33,3.33,0,0,0,.57.88c-.38.31-.79.55-1.19.82-1.47,1-3,1.88-4.47,2.75a28.21,28.21,0,0,1-2.87,1.41A40.93,40.93,0,0,1,14,20.2a29.14,29.14,0,0,1-3.79.94c-.25.06-.52.06-.77.14a4.21,4.21,0,0,0,.71,0,21.7,21.7,0,0,0,5.74-1.17c.79-.25,1.56-.58,2.33-.91a41,41,0,0,0,4.17-2.14c.64-.36,1.27-.74,1.9-1.14,1.07-.69,2.14-1.4,3.18-2.17,0-.09-.08-.13-.13-.19a2.59,2.59,0,0,1-.75-.93,7.24,7.24,0,0,0-.31-1.09C26.24,11.61,26.18,11.62,26.2,11.71Z" transform="translate(0 -2.13)"/><path class="cls-1" d="M2,8.28H2a9.43,9.43,0,0,0-.73,1.33,8.76,8.76,0,0,0-.81,2.94,7.16,7.16,0,0,0,.34,3,6.17,6.17,0,0,0,2.13,3.1,7.08,7.08,0,0,0,2.15,1.17,9.36,9.36,0,0,0,1.63.37.25.25,0,0,0-.15-.08,10.68,10.68,0,0,1-1.95-.77A8.83,8.83,0,0,1,3,18.27a6.52,6.52,0,0,1-1.31-1.49,5.48,5.48,0,0,1-.55-1.08,6.35,6.35,0,0,1-.31-4.23A11.89,11.89,0,0,1,1.27,10a14,14,0,0,1,.87-1.88l.15-.25A2.06,2.06,0,0,0,2,8.28Z" transform="translate(0 -2.13)"/><path class="cls-1" d="M2.27,7.9a3.34,3.34,0,0,1-.17.33c-3.4,6.54-.76,10.66,4.8,12.61a9.61,9.61,0,0,1-1.72-.37A7.23,7.23,0,0,1,.6,16.08,9.21,9.21,0,0,1,2.27,7.9Z" transform="translate(0 -2.13)"/><path class="cls-1" d="M27.63,12.9l.15-.14.07.12A.42.42,0,0,1,27.63,12.9Z" transform="translate(0 -2.13)"/><path class="cls-1" d="M29.1,9.86a.19.19,0,0,1,.07-.14l.49-.45.55-.49a.18.18,0,0,1,.21,0l0,0a.07.07,0,0,0-.06,0,.14.14,0,0,0,0,.09.12.12,0,0,0,0,.08.08.08,0,0,0,.08,0A.13.13,0,0,0,30.48,9l.05,0a.25.25,0,0,1-.08.22l-.38.34-.63.57-.06,0a.23.23,0,0,1-.14,0,.31.31,0,0,1-.11-.09A.27.27,0,0,1,29.1,9.86Z" transform="translate(0 -2.13)"/><path class="cls-1" d="M30.75,8.43a.12.12,0,0,1,.09-.08.1.1,0,0,1,.1,0,.16.16,0,0,1,0,.11.21.21,0,0,1,0,.11.12.12,0,0,1-.09.05.09.09,0,0,1-.07,0L30.42,9h0s0,0,0,0a0,0,0,0,1,0,0l.38-.34a.14.14,0,0,1,0-.11Zm.07,0h0a.06.06,0,0,0,0,.06,0,0,0,0,0,.07,0,.07.07,0,0,0,0-.09A0,0,0,0,0,30.82,8.46Z" transform="translate(0 -2.13)"/><path class="cls-1" d="M27,11.64l0,0,.63-.56,0,0a.17.17,0,0,1,.14,0,.15.15,0,0,1,.11.08h0a.56.56,0,0,1,0,.12.32.32,0,0,1-.07.2l-.06,0-.61.54a.18.18,0,0,1-.13,0A.16.16,0,0,1,27,12v0a.23.23,0,0,1,0-.2A.31.31,0,0,1,27,11.64Z" transform="translate(0 -2.13)"/><path class="cls-1" d="M27.64,11.08l0,0,.63-.57,0,0a.17.17,0,0,1,.14,0,.15.15,0,0,1,.11.08h0a.56.56,0,0,1,0,.12.29.29,0,0,1-.07.19l-.06.06-.61.54a.24.24,0,0,1-.13.05.19.19,0,0,1-.14-.09h0a.24.24,0,0,1,0-.2A.31.31,0,0,1,27.64,11.08Z" transform="translate(0 -2.13)"/><path class="cls-1" d="M28.31,10.49l0,0L29,9.89l0,0a.16.16,0,0,1,.15,0,.21.21,0,0,1,.11.08h0a.24.24,0,0,1,0,.12.26.26,0,0,1-.07.19l-.06,0-.61.55a.21.21,0,0,1-.13.05.22.22,0,0,1-.14-.09h0a.3.3,0,0,1,0-.21A.2.2,0,0,1,28.31,10.49Z" transform="translate(0 -2.13)"/><path class="cls-1" d="M28.94,9.93l0,0,.63-.56,0,0a.17.17,0,0,1,.15,0,.19.19,0,0,1,.11.09h0a.2.2,0,0,1,0,.11.24.24,0,0,1-.07.2l-.06.05-.61.55a.16.16,0,0,1-.13,0,.17.17,0,0,1-.14-.08h0a.3.3,0,0,1,0-.21A.16.16,0,0,1,28.94,9.93Z" transform="translate(0 -2.13)"/><path class="cls-1" d="M29.25,10.53a.22.22,0,0,1,.08-.14l.5-.43.56-.47a.17.17,0,0,1,.21,0l0,0a.1.1,0,0,0-.07,0,.13.13,0,0,0,0,.09.11.11,0,0,0,0,.08.1.1,0,0,0,.09,0,.07.07,0,0,0,.06-.05s0,0,.05,0a.24.24,0,0,1-.08.22l-.39.33-.64.55-.06,0a.16.16,0,0,1-.15,0,.28.28,0,0,1-.1-.09A.28.28,0,0,1,29.25,10.53Z" transform="translate(0 -2.13)"/><path class="cls-1" d="M30.93,9.15a.12.12,0,0,1,.1-.07.1.1,0,0,1,.1,0,.15.15,0,0,1,0,.11.2.2,0,0,1,0,.11.14.14,0,0,1-.1.05l-.07,0-.38.32h0a0,0,0,0,1,0,0,.08.08,0,0,1,0-.05l.38-.32a.25.25,0,0,1,0-.12Zm.08,0h0a.11.11,0,0,0,0,.05s.05,0,.07,0,0,0,0-.08A0,0,0,0,0,31,9.19Z" transform="translate(0 -2.13)"/><path class="cls-1" d="M27.12,12.24l0,0,.64-.54,0,0a.16.16,0,0,1,.15,0,.21.21,0,0,1,.11.08h0a.27.27,0,0,1,0,.12.24.24,0,0,1-.08.19l-.06.05-.62.53a.18.18,0,0,1-.27,0h0a.3.3,0,0,1,0-.21A.41.41,0,0,1,27.12,12.24Z" transform="translate(0 -2.13)"/><path class="cls-1" d="M27.77,11.7l0,0,.64-.54,0,0a.17.17,0,0,1,.14,0,.2.2,0,0,1,.11.09h0a.27.27,0,0,1,0,.12.22.22,0,0,1-.07.19l-.06,0-.62.53a.23.23,0,0,1-.14,0,.24.24,0,0,1-.14-.09h0a.22.22,0,0,1,0-.21A.16.16,0,0,1,27.77,11.7Z" transform="translate(0 -2.13)"/><path class="cls-1" d="M28.45,11.13l0,0,.65-.54,0,0a.16.16,0,0,1,.15,0,.21.21,0,0,1,.11.08h0a.27.27,0,0,1,0,.12.29.29,0,0,1-.07.19l-.06.05-.63.53a.16.16,0,0,1-.13,0,.18.18,0,0,1-.14-.09h0a.3.3,0,0,1,0-.21A.18.18,0,0,1,28.45,11.13Z" transform="translate(0 -2.13)"/><path class="cls-1" d="M29.09,10.59l0,0,.64-.54,0,0a.17.17,0,0,1,.14,0,.2.2,0,0,1,.11.09h0a.27.27,0,0,1,0,.12.22.22,0,0,1-.07.19l-.06.05-.62.53a.23.23,0,0,1-.14,0,.24.24,0,0,1-.14-.09h0a.26.26,0,0,1,0-.21A.26.26,0,0,1,29.09,10.59Z" transform="translate(0 -2.13)"/><path class="cls-1" d="M29.77,11a.24.24,0,0,1,.09-.15l.51-.4L31,10a.17.17,0,0,1,.21,0l-.05,0a.07.07,0,0,0-.06,0,.16.16,0,0,0,0,.09.11.11,0,0,0,0,.08.07.07,0,0,0,.08,0s.05,0,.07-.05l.05,0a.24.24,0,0,1-.09.21l-.4.31-.66.52-.06,0a.2.2,0,0,1-.15,0,.22.22,0,0,1-.12-.27Z" transform="translate(0 -2.13)"/><path class="cls-1" d="M31.5,9.65a.12.12,0,0,1,.1-.07.11.11,0,0,1,.1,0,.21.21,0,0,1,0,.11.22.22,0,0,1,0,.11.11.11,0,0,1-.09,0l-.07,0-.39.3h0s0,0,0-.05a.08.08,0,0,1,0,0l.4-.31a.14.14,0,0,1,0-.11Zm.07,0h0a.11.11,0,0,0,0,.05s.05.06.07,0a.07.07,0,0,0,0-.09A0,0,0,0,0,31.57,9.69Z" transform="translate(0 -2.13)"/><path class="cls-1" d="M27.59,12.55l0,0,.66-.51,0,0a.16.16,0,0,1,.15,0,.19.19,0,0,1,.11.09h0a.5.5,0,0,1,0,.12.27.27,0,0,1-.08.19l-.06,0-.64.49a.22.22,0,0,1-.13,0,.21.21,0,0,1-.14-.1h0a.3.3,0,0,1,0-.21A.15.15,0,0,1,27.59,12.55Z" transform="translate(0 -2.13)"/><path class="cls-1" d="M28.25,12l0,0L29,11.5l0,0a.14.14,0,0,1,.14,0,.14.14,0,0,1,.11.09h0a.27.27,0,0,1,0,.12.28.28,0,0,1-.09.19l-.06.05-.64.49a.22.22,0,0,1-.13,0,.21.21,0,0,1-.14-.1h0a.26.26,0,0,1,0-.21A.18.18,0,0,1,28.25,12Z" transform="translate(0 -2.13)"/><path class="cls-1" d="M28.94,11.5l0,0,.66-.51,0,0a.2.2,0,0,1,.15,0,.31.31,0,0,1,.11.09h0a.28.28,0,0,1,0,.13.23.23,0,0,1-.08.18l-.06.05-.64.49a.18.18,0,0,1-.14,0,.18.18,0,0,1-.13-.1h0a.3.3,0,0,1,0-.21A.41.41,0,0,1,28.94,11.5Z" transform="translate(0 -2.13)"/><path class="cls-1" d="M29.61,11l0,0,.67-.51s0,0,0,0a.2.2,0,0,1,.15,0,.24.24,0,0,1,.11.09v0a.37.37,0,0,1,0,.12.23.23,0,0,1-.08.18l-.06,0-.64.49a.17.17,0,0,1-.13,0,.18.18,0,0,1-.14-.1h0a.3.3,0,0,1,0-.21A.24.24,0,0,1,29.61,11Z" transform="translate(0 -2.13)"/><path class="cls-1" d="M30,11.57a.28.28,0,0,1,.09-.14l.53-.37.6-.42a.18.18,0,0,1,.21,0l-.06,0a.09.09,0,0,0-.06,0,.14.14,0,0,0,0,.09.11.11,0,0,0,0,.08.09.09,0,0,0,.08,0,.18.18,0,0,0,.07-.05l.05,0a.24.24,0,0,1-.09.2l-.42.3-.68.48-.06,0a.17.17,0,0,1-.14,0,.19.19,0,0,1-.1-.1A.28.28,0,0,1,30,11.57Z" transform="translate(0 -2.13)"/><path class="cls-1" d="M31.77,10.36a.14.14,0,0,1,.1-.07.16.16,0,0,1,.1.05.2.2,0,0,1,0,.11.16.16,0,0,1-.05.11.08.08,0,0,1-.09,0,.09.09,0,0,1-.07,0l-.4.28h0s0,0,0,0a.08.08,0,0,1,0,0l.41-.29a.15.15,0,0,1,0-.11Zm.07.05h0a0,0,0,0,0,0,.05s0,0,.07,0a.1.1,0,0,0,0-.09A0,0,0,0,0,31.84,10.41Z" transform="translate(0 -2.13)"/><path class="cls-1" d="M27.75,13.07l0,0,.68-.48,0,0a.16.16,0,0,1,.15,0,.18.18,0,0,1,.1.09v0a.16.16,0,0,1,0,.12.23.23,0,0,1-.08.18l-.07.05-.65.46a.22.22,0,0,1-.14,0,.2.2,0,0,1-.13-.11h0a.26.26,0,0,1,0-.21A.22.22,0,0,1,27.75,13.07Z" transform="translate(0 -2.13)"/><path class="cls-1" d="M28.43,12.59l0,0,.68-.48,0,0a.18.18,0,0,1,.25.09h0a.17.17,0,0,1,0,.12.23.23,0,0,1-.08.18l-.07,0-.65.46a.17.17,0,0,1-.14,0,.21.21,0,0,1-.13-.1v0a.23.23,0,0,1,0-.2A.19.19,0,0,1,28.43,12.59Z" transform="translate(0 -2.13)"/><path class="cls-1" d="M29.15,12.09l0,0,.68-.48,0,0a.17.17,0,0,1,.14,0,.21.21,0,0,1,.11.1h0a.24.24,0,0,1,0,.12.24.24,0,0,1-.09.18L30,12l-.66.46a.17.17,0,0,1-.14,0,.21.21,0,0,1-.13-.1v0a.23.23,0,0,1,0-.2A.15.15,0,0,1,29.15,12.09Z" transform="translate(0 -2.13)"/><path class="cls-1" d="M29.83,11.61l0,0,.68-.47,0,0a.14.14,0,0,1,.14,0,.21.21,0,0,1,.11.1h0a.27.27,0,0,1,0,.12.25.25,0,0,1-.09.19l-.06,0-.66.46a.17.17,0,0,1-.14,0,.21.21,0,0,1-.13-.1h0a.26.26,0,0,1,0-.21A.18.18,0,0,1,29.83,11.61Z" transform="translate(0 -2.13)"/><path class="cls-1" d="M28.7,9.37a.28.28,0,0,1,.08-.15l.47-.46.54-.52a.15.15,0,0,1,.2,0l0,0a.07.07,0,0,0-.06,0,.12.12,0,0,0,0,.1.13.13,0,0,0,0,.07.08.08,0,0,0,.08,0,.13.13,0,0,0,.07-.06l0-.05a.24.24,0,0,1-.06.22L29.66,9l-.61.59s0,0-.06,0a.17.17,0,0,1-.14,0,.16.16,0,0,1-.1-.08A.27.27,0,0,1,28.7,9.37Z" transform="translate(0 -2.13)"/><path class="cls-1" d="M30.31,7.86a.13.13,0,0,1,.08-.08.11.11,0,0,1,.11,0,.12.12,0,0,1,.05.1.24.24,0,0,1,0,.12.2.2,0,0,1-.09.05.13.13,0,0,1-.08,0L30,8.41h0a0,0,0,0,1,0,0,.08.08,0,0,1,0-.05L30.3,8a.17.17,0,0,1,0-.12Zm.07,0h0a.06.06,0,0,0,0,.06s.05,0,.07,0a.06.06,0,0,0,0-.08A0,0,0,0,0,30.38,7.89Z" transform="translate(0 -2.13)"/><path class="cls-1" d="M26.68,11.25l0,0,.61-.59,0,0a.2.2,0,0,1,.15,0,.15.15,0,0,1,.11.07h0a.56.56,0,0,1,0,.12.25.25,0,0,1-.07.2l-.05,0-.59.57a.19.19,0,0,1-.13.06.19.19,0,0,1-.15-.08h0a.3.3,0,0,1,0-.21A.26.26,0,0,1,26.68,11.25Z" transform="translate(0 -2.13)"/><path class="cls-1" d="M27.29,10.65l0,0,.61-.59,0,0a.21.21,0,0,1,.15,0,.21.21,0,0,1,.11.08h0a.28.28,0,0,1,0,.12.24.24,0,0,1-.06.19l-.06.06-.59.57a.19.19,0,0,1-.13.06.19.19,0,0,1-.15-.08h0a.31.31,0,0,1,0-.21Z" transform="translate(0 -2.13)"/><path class="cls-1" d="M27.93,10l0,0,.61-.59,0,0a.18.18,0,0,1,.14,0,.2.2,0,0,1,.12.08h0a.16.16,0,0,1,0,.12.22.22,0,0,1-.06.19l-.06.06-.59.57a.13.13,0,0,1-.13.05.17.17,0,0,1-.14-.08h0a.23.23,0,0,1,0-.2A.3.3,0,0,1,27.93,10Z" transform="translate(0 -2.13)"/><path class="cls-1" d="M28.55,9.44l0,0,.61-.59,0,0a.18.18,0,0,1,.14,0,.2.2,0,0,1,.12.08h0a.34.34,0,0,1,0,.12.26.26,0,0,1-.07.19l-.05.06-.6.57a.19.19,0,0,1-.13.05.17.17,0,0,1-.14-.08h0a.23.23,0,0,1,0-.2A.19.19,0,0,1,28.55,9.44Z" transform="translate(0 -2.13)"/><path class="cls-2" d="M26.4,12.52c-.39-.74-.3-1.43.2-1.54s1.22.41,1.61,1.15.3,1.42-.2,1.53S26.79,13.26,26.4,12.52Z" transform="translate(0 -2.13)"/><path class="cls-3" d="M26.2,11.71h0a3.62,3.62,0,0,0,.21.92,3.33,3.33,0,0,0,.57.88c-.38.31-.79.55-1.19.82-1.47,1-3,1.88-4.47,2.75a28.21,28.21,0,0,1-2.87,1.41A40.93,40.93,0,0,1,14,20.2a29.14,29.14,0,0,1-3.79.94c-.25.06-.52.06-.77.14a4.21,4.21,0,0,0,.71,0,21.7,21.7,0,0,0,5.74-1.17c.79-.25,1.56-.58,2.33-.91a41,41,0,0,0,4.17-2.14c.64-.36,1.27-.74,1.9-1.14,1.07-.69,2.14-1.4,3.18-2.17,0-.09-.08-.13-.13-.19a2.59,2.59,0,0,1-.75-.93,7.24,7.24,0,0,0-.31-1.09C26.24,11.61,26.18,11.62,26.2,11.71Z" transform="translate(0 -2.13)"/><path class="cls-3" d="M2,8.28H2a9.43,9.43,0,0,0-.73,1.33,8.76,8.76,0,0,0-.81,2.94,7.16,7.16,0,0,0,.34,3,6.17,6.17,0,0,0,2.13,3.1,7.08,7.08,0,0,0,2.15,1.17,9.36,9.36,0,0,0,1.63.37.25.25,0,0,0-.15-.08,10.68,10.68,0,0,1-1.95-.77A8.83,8.83,0,0,1,3,18.27a6.52,6.52,0,0,1-1.31-1.49,5.48,5.48,0,0,1-.55-1.08,6.35,6.35,0,0,1-.31-4.23A11.89,11.89,0,0,1,1.27,10a14,14,0,0,1,.87-1.88l.15-.25A2.06,2.06,0,0,0,2,8.28Z" transform="translate(0 -2.13)"/><path class="cls-4" d="M15.18,4.7A12.5,12.5,0,0,1,26.3,11.48v0l-.23.17-.47.36-.22.16-.33.26c-.13.09-.26.18-.38.28l-.7.51-.25.19h0l-.45.33c-.16.12-.33.25-.5.36l-.4.28c-.34.25-.73.52-1.08.75l-.41.27-.5.33c-.31.21-.63.4-.94.59l-.56.33-.41.25-.46.25L12.79,4.93A12.5,12.5,0,0,1,15.18,4.7Z" transform="translate(0 -2.13)"/><path class="cls-5" d="M3.06,21.57a12.55,12.55,0,0,1-.59-2.38,8.33,8.33,0,0,0,1.17,1h0Z" transform="translate(0 -2.13)"/><path class="cls-6" d="M22,27.63a12.51,12.51,0,0,0,4.89-13.49c-.09-.34-.2-.67-.31-1,0-.11-.08-.21-.13-.32L18.58,19Z" transform="translate(0 -2.13)"/><path class="cls-7" d="M13.3,19.35l-.69.22-.52.14-.49.12-.85.16a2,2,0,0,1-.24,0c-.18,0-.36.05-.54.06s-.36,0-.54,0-.37,0-.56,0l-.42,0H8.32c-.21,0-.43,0-.64-.07L7.21,20l-.17,0,3.36-8.51Z" transform="translate(0 -2.13)"/><path class="cls-8" d="M17.07,29.67a12.78,12.78,0,0,1-2.24.2A12.47,12.47,0,0,1,5,25.08l1.43-3.63.09,0a4.17,4.17,0,0,0,.5,0c2.43-.34,4.26,0,6.77-.65Z" transform="translate(0 -2.13)"/><path class="cls-9" d="M4.06,19.1c-.4-.29-1.68,0-1.71-2.48C2.31,11.94,5.43,8,9.44,6.09Z" transform="translate(0 -2.13)"/><path class="cls-3" d="M8.35,2.42c.16-.08.29-.12.44-.18a3,3,0,0,1,.4-.11c0,.05-2.17,1.36-2.35,1.5L6.39,4l-.2.16A2.11,2.11,0,0,1,6,4.31a5.2,5.2,0,0,0-.44.38c-.17.15-.35.3-.51.47l-.11.11-.3.3L4.16,6l-.22.26-.23.26c-.28.36-.56.72-.83,1.1a4.9,4.9,0,0,0-.31.48l-.09.15A9.1,9.1,0,0,0,1.73,9.7a8.8,8.8,0,0,0-.61,1.88l0,.2a5.58,5.58,0,0,0-.08.57c0,.24,0,.49,0,.74A6.62,6.62,0,0,0,1.26,15,6.05,6.05,0,0,0,1.68,16c.09.18.19.36.29.53l.33.5.12.14A8,8,0,0,0,5,19.27l.14.07.47.2c.2.08.41.15.61.21l.09,0,.53.14.48.08c.21,0,.42.06.63.06h.13l.43,0h.56c.18,0,.36,0,.54,0l.54-.06.24,0,.85-.17c.16,0,.32-.07.48-.12l.53-.14c.24-.08.49-.14.73-.23s.27-.11.41-.15l.14-.06c.25-.09.51-.18.75-.29s.33-.15.5-.22.34-.15.51-.23l.48-.23.51-.25c.33-.17.67-.35,1-.54l.46-.26.41-.25.56-.32c.31-.2.63-.39.94-.6a5.39,5.39,0,0,0,.5-.33,4.81,4.81,0,0,0,.41-.27l1.08-.74.41-.29c.17-.11.33-.23.5-.36l.44-.32,0,0,.25-.19.69-.51.38-.28.34-.26.22-.15a5.32,5.32,0,0,1,.47-.36l.39-.29c.12-.1.62-.42.72-.51A2.62,2.62,0,0,0,28,13.68s-.42.37-.47.41l-1,.69-.48.35-.47.31c-.32.23-.64.44-1,.64-.15.11-.3.2-.45.29s-.41.27-.61.39-.24.15-.35.21l-.44.28h0c-.17.09-.33.2-.49.28s-.36.21-.53.31l-.5.27c-.17.08-.33.18-.5.27-.34.17-.68.35-1,.51l-.35.17-.58.26a1.38,1.38,0,0,0-.27.14c-.25.09-.48.19-.72.29l-.5.21c-.24.09-.48.17-.72.28l-.29.11a5.16,5.16,0,0,1-.52.16c-.35.12-.7.2-1,.33l-.53.15-.94.24-.86.17-.27,0a4.5,4.5,0,0,1-.51.08l-.42.06-.68.07-.36,0-.45,0H9l-.62,0-.76-.05c-.32-.05-.65-.07-1-.13-.16,0-.31-.06-.47-.09a8.9,8.9,0,0,1-4.56-2.83c-.09-.12-.17-.26-.25-.39s-.28-.47-.41-.72a9.39,9.39,0,0,1,.88-9.71l.06-.09c.11-.16.22-.31.34-.46a12.57,12.57,0,0,1,1-1.09c.27-.27.54-.54.83-.79s.31-.27.46-.41l.36-.31.08,0c.17-.12.32-.26.49-.38l.47-.35c.29-.21.6-.39.9-.59Z" transform="translate(0 -2.13)"/><path class="cls-2" d="M2.27,7.9a3.34,3.34,0,0,1-.17.33c-3.4,6.54-.76,10.66,4.8,12.61a9.61,9.61,0,0,1-1.72-.37A7.23,7.23,0,0,1,.6,16.08,9.21,9.21,0,0,1,2.27,7.9Z" transform="translate(0 -2.13)"/><path class="cls-2" d="M26.23,11.51a3.36,3.36,0,0,0,1.19,2.27c-1,.77-2.11,1.48-3.18,2.17-.63.4-1.27.78-1.91,1.14a32.76,32.76,0,0,1-6.49,3.05,19.4,19.4,0,0,1-8.15,1,20.56,20.56,0,0,0,6.52-.83,34.33,34.33,0,0,0,4.06-1.62,33.48,33.48,0,0,0,3-1.62,44.89,44.89,0,0,0,5.67-3.57A2.33,2.33,0,0,1,26.23,11.51Z" transform="translate(0 -2.13)"/><path class="cls-10" d="M27.63,12.9l.15-.14.07.12A.42.42,0,0,1,27.63,12.9Z" transform="translate(0 -2.13)"/><path class="cls-6" d="M29.1,9.86a.19.19,0,0,1,.07-.14l.49-.45.55-.49a.18.18,0,0,1,.21,0l0,0a.07.07,0,0,0-.06,0,.14.14,0,0,0,0,.09.12.12,0,0,0,0,.08.08.08,0,0,0,.08,0A.13.13,0,0,0,30.48,9l.05,0a.25.25,0,0,1-.08.22l-.38.34-.63.57-.06,0a.23.23,0,0,1-.14,0,.31.31,0,0,1-.11-.09A.27.27,0,0,1,29.1,9.86Z" transform="translate(0 -2.13)"/><path class="cls-6" d="M30.75,8.43a.12.12,0,0,1,.09-.08.1.1,0,0,1,.1,0,.16.16,0,0,1,0,.11.21.21,0,0,1,0,.11.12.12,0,0,1-.09.05.09.09,0,0,1-.07,0L30.42,9h0s0,0,0,0a0,0,0,0,1,0,0l.38-.34a.14.14,0,0,1,0-.11Zm.07,0h0a.06.06,0,0,0,0,.06,0,0,0,0,0,.07,0,.07.07,0,0,0,0-.09A0,0,0,0,0,30.82,8.46Z" transform="translate(0 -2.13)"/><path class="cls-6" d="M27,11.64l0,0,.63-.56,0,0a.17.17,0,0,1,.14,0,.15.15,0,0,1,.11.08h0a.56.56,0,0,1,0,.12.32.32,0,0,1-.07.2l-.06,0-.61.54a.18.18,0,0,1-.13,0A.16.16,0,0,1,27,12v0a.23.23,0,0,1,0-.2A.31.31,0,0,1,27,11.64Z" transform="translate(0 -2.13)"/><path class="cls-6" d="M27.64,11.08l0,0,.63-.57,0,0a.17.17,0,0,1,.14,0,.15.15,0,0,1,.11.08h0a.56.56,0,0,1,0,.12.29.29,0,0,1-.07.19l-.06.06-.61.54a.24.24,0,0,1-.13.05.19.19,0,0,1-.14-.09h0a.24.24,0,0,1,0-.2A.31.31,0,0,1,27.64,11.08Z" transform="translate(0 -2.13)"/><path class="cls-6" d="M28.31,10.49l0,0L29,9.89l0,0a.16.16,0,0,1,.15,0,.21.21,0,0,1,.11.08h0a.24.24,0,0,1,0,.12.26.26,0,0,1-.07.19l-.06,0-.61.55a.21.21,0,0,1-.13.05.22.22,0,0,1-.14-.09h0a.3.3,0,0,1,0-.21A.2.2,0,0,1,28.31,10.49Z" transform="translate(0 -2.13)"/><path class="cls-6" d="M28.94,9.93l0,0,.63-.56,0,0a.17.17,0,0,1,.15,0,.19.19,0,0,1,.11.09h0a.2.2,0,0,1,0,.11.24.24,0,0,1-.07.2l-.06.05-.61.55a.16.16,0,0,1-.13,0,.17.17,0,0,1-.14-.08h0a.3.3,0,0,1,0-.21A.16.16,0,0,1,28.94,9.93Z" transform="translate(0 -2.13)"/><path class="cls-6" d="M29.25,10.53a.22.22,0,0,1,.08-.14l.5-.43.56-.47a.17.17,0,0,1,.21,0l0,0a.1.1,0,0,0-.07,0,.13.13,0,0,0,0,.09.11.11,0,0,0,0,.08.1.1,0,0,0,.09,0,.07.07,0,0,0,.06-.05s0,0,.05,0a.24.24,0,0,1-.08.22l-.39.33-.64.55-.06,0a.16.16,0,0,1-.15,0,.28.28,0,0,1-.1-.09A.28.28,0,0,1,29.25,10.53Z" transform="translate(0 -2.13)"/><path class="cls-6" d="M30.93,9.15a.12.12,0,0,1,.1-.07.1.1,0,0,1,.1,0,.15.15,0,0,1,0,.11.2.2,0,0,1,0,.11.14.14,0,0,1-.1.05l-.07,0-.38.32h0a0,0,0,0,1,0,0,.08.08,0,0,1,0-.05l.38-.32a.25.25,0,0,1,0-.12Zm.08,0h0a.11.11,0,0,0,0,.05s.05,0,.07,0,0,0,0-.08A0,0,0,0,0,31,9.19Z" transform="translate(0 -2.13)"/><path class="cls-6" d="M27.12,12.24l0,0,.64-.54,0,0a.16.16,0,0,1,.15,0,.21.21,0,0,1,.11.08h0a.27.27,0,0,1,0,.12.24.24,0,0,1-.08.19l-.06.05-.62.53a.18.18,0,0,1-.27,0h0a.3.3,0,0,1,0-.21A.41.41,0,0,1,27.12,12.24Z" transform="translate(0 -2.13)"/><path class="cls-6" d="M27.77,11.7l0,0,.64-.54,0,0a.17.17,0,0,1,.14,0,.2.2,0,0,1,.11.09h0a.27.27,0,0,1,0,.12.22.22,0,0,1-.07.19l-.06,0-.62.53a.23.23,0,0,1-.14,0,.24.24,0,0,1-.14-.09h0a.22.22,0,0,1,0-.21A.16.16,0,0,1,27.77,11.7Z" transform="translate(0 -2.13)"/><path class="cls-6" d="M28.45,11.13l0,0,.65-.54,0,0a.16.16,0,0,1,.15,0,.21.21,0,0,1,.11.08h0a.27.27,0,0,1,0,.12.29.29,0,0,1-.07.19l-.06.05-.63.53a.16.16,0,0,1-.13,0,.18.18,0,0,1-.14-.09h0a.3.3,0,0,1,0-.21A.18.18,0,0,1,28.45,11.13Z" transform="translate(0 -2.13)"/><path class="cls-6" d="M29.09,10.59l0,0,.64-.54,0,0a.17.17,0,0,1,.14,0,.2.2,0,0,1,.11.09h0a.27.27,0,0,1,0,.12.22.22,0,0,1-.07.19l-.06.05-.62.53a.23.23,0,0,1-.14,0,.24.24,0,0,1-.14-.09h0a.26.26,0,0,1,0-.21A.26.26,0,0,1,29.09,10.59Z" transform="translate(0 -2.13)"/><path class="cls-6" d="M29.77,11a.24.24,0,0,1,.09-.15l.51-.4L31,10a.17.17,0,0,1,.21,0l-.05,0a.07.07,0,0,0-.06,0,.16.16,0,0,0,0,.09.11.11,0,0,0,0,.08.07.07,0,0,0,.08,0s.05,0,.07-.05l.05,0a.24.24,0,0,1-.09.21l-.4.31-.66.52-.06,0a.2.2,0,0,1-.15,0,.22.22,0,0,1-.12-.27Z" transform="translate(0 -2.13)"/><path class="cls-6" d="M31.5,9.65a.12.12,0,0,1,.1-.07.11.11,0,0,1,.1,0,.21.21,0,0,1,0,.11.22.22,0,0,1,0,.11.11.11,0,0,1-.09,0l-.07,0-.39.3h0s0,0,0-.05a.08.08,0,0,1,0,0l.4-.31a.14.14,0,0,1,0-.11Zm.07,0h0a.11.11,0,0,0,0,.05s.05.06.07,0a.07.07,0,0,0,0-.09A0,0,0,0,0,31.57,9.69Z" transform="translate(0 -2.13)"/><path class="cls-6" d="M27.59,12.55l0,0,.66-.51,0,0a.16.16,0,0,1,.15,0,.19.19,0,0,1,.11.09h0a.5.5,0,0,1,0,.12.27.27,0,0,1-.08.19l-.06,0-.64.49a.22.22,0,0,1-.13,0,.21.21,0,0,1-.14-.1h0a.3.3,0,0,1,0-.21A.15.15,0,0,1,27.59,12.55Z" transform="translate(0 -2.13)"/><path class="cls-6" d="M28.25,12l0,0L29,11.5l0,0a.14.14,0,0,1,.14,0,.14.14,0,0,1,.11.09h0a.27.27,0,0,1,0,.12.28.28,0,0,1-.09.19l-.06.05-.64.49a.22.22,0,0,1-.13,0,.21.21,0,0,1-.14-.1h0a.26.26,0,0,1,0-.21A.18.18,0,0,1,28.25,12Z" transform="translate(0 -2.13)"/><path class="cls-6" d="M28.94,11.5l0,0,.66-.51,0,0a.2.2,0,0,1,.15,0,.31.31,0,0,1,.11.09h0a.28.28,0,0,1,0,.13.23.23,0,0,1-.08.18l-.06.05-.64.49a.18.18,0,0,1-.14,0,.18.18,0,0,1-.13-.1h0a.3.3,0,0,1,0-.21A.41.41,0,0,1,28.94,11.5Z" transform="translate(0 -2.13)"/><path class="cls-6" d="M29.61,11l0,0,.67-.51s0,0,0,0a.2.2,0,0,1,.15,0,.24.24,0,0,1,.11.09v0a.37.37,0,0,1,0,.12.23.23,0,0,1-.08.18l-.06,0-.64.49a.17.17,0,0,1-.13,0,.18.18,0,0,1-.14-.1h0a.3.3,0,0,1,0-.21A.24.24,0,0,1,29.61,11Z" transform="translate(0 -2.13)"/><path class="cls-6" d="M30,11.57a.28.28,0,0,1,.09-.14l.53-.37.6-.42a.18.18,0,0,1,.21,0l-.06,0a.09.09,0,0,0-.06,0,.14.14,0,0,0,0,.09.11.11,0,0,0,0,.08.09.09,0,0,0,.08,0,.18.18,0,0,0,.07-.05l.05,0a.24.24,0,0,1-.09.2l-.42.3-.68.48-.06,0a.17.17,0,0,1-.14,0,.19.19,0,0,1-.1-.1A.28.28,0,0,1,30,11.57Z" transform="translate(0 -2.13)"/><path class="cls-6" d="M31.77,10.36a.14.14,0,0,1,.1-.07.16.16,0,0,1,.1.05.2.2,0,0,1,0,.11.16.16,0,0,1-.05.11.08.08,0,0,1-.09,0,.09.09,0,0,1-.07,0l-.4.28h0s0,0,0,0a.08.08,0,0,1,0,0l.41-.29a.15.15,0,0,1,0-.11Zm.07.05h0a0,0,0,0,0,0,.05s0,0,.07,0a.1.1,0,0,0,0-.09A0,0,0,0,0,31.84,10.41Z" transform="translate(0 -2.13)"/><path class="cls-6" d="M27.75,13.07l0,0,.68-.48,0,0a.16.16,0,0,1,.15,0,.18.18,0,0,1,.1.09v0a.16.16,0,0,1,0,.12.23.23,0,0,1-.08.18l-.07.05-.65.46a.22.22,0,0,1-.14,0,.2.2,0,0,1-.13-.11h0a.26.26,0,0,1,0-.21A.22.22,0,0,1,27.75,13.07Z" transform="translate(0 -2.13)"/><path class="cls-6" d="M28.43,12.59l0,0,.68-.48,0,0a.18.18,0,0,1,.25.09h0a.17.17,0,0,1,0,.12.23.23,0,0,1-.08.18l-.07,0-.65.46a.17.17,0,0,1-.14,0,.21.21,0,0,1-.13-.1v0a.23.23,0,0,1,0-.2A.19.19,0,0,1,28.43,12.59Z" transform="translate(0 -2.13)"/><path class="cls-6" d="M29.15,12.09l0,0,.68-.48,0,0a.17.17,0,0,1,.14,0,.21.21,0,0,1,.11.1h0a.24.24,0,0,1,0,.12.24.24,0,0,1-.09.18L30,12l-.66.46a.17.17,0,0,1-.14,0,.21.21,0,0,1-.13-.1v0a.23.23,0,0,1,0-.2A.15.15,0,0,1,29.15,12.09Z" transform="translate(0 -2.13)"/><path class="cls-6" d="M29.83,11.61l0,0,.68-.47,0,0a.14.14,0,0,1,.14,0,.21.21,0,0,1,.11.1h0a.27.27,0,0,1,0,.12.25.25,0,0,1-.09.19l-.06,0-.66.46a.17.17,0,0,1-.14,0,.21.21,0,0,1-.13-.1h0a.26.26,0,0,1,0-.21A.18.18,0,0,1,29.83,11.61Z" transform="translate(0 -2.13)"/><path class="cls-6" d="M28.7,9.37a.28.28,0,0,1,.08-.15l.47-.46.54-.52a.15.15,0,0,1,.2,0l0,0a.07.07,0,0,0-.06,0,.12.12,0,0,0,0,.1.13.13,0,0,0,0,.07.08.08,0,0,0,.08,0,.13.13,0,0,0,.07-.06l0-.05a.24.24,0,0,1-.06.22L29.66,9l-.61.59s0,0-.06,0a.17.17,0,0,1-.14,0,.16.16,0,0,1-.1-.08A.27.27,0,0,1,28.7,9.37Z" transform="translate(0 -2.13)"/><path class="cls-6" d="M30.31,7.86a.13.13,0,0,1,.08-.08.11.11,0,0,1,.11,0,.12.12,0,0,1,.05.1.24.24,0,0,1,0,.12.2.2,0,0,1-.09.05.13.13,0,0,1-.08,0L30,8.41h0a0,0,0,0,1,0,0,.08.08,0,0,1,0-.05L30.3,8a.17.17,0,0,1,0-.12Zm.07,0h0a.06.06,0,0,0,0,.06s.05,0,.07,0a.06.06,0,0,0,0-.08A0,0,0,0,0,30.38,7.89Z" transform="translate(0 -2.13)"/><path class="cls-6" d="M26.68,11.25l0,0,.61-.59,0,0a.2.2,0,0,1,.15,0,.15.15,0,0,1,.11.07h0a.56.56,0,0,1,0,.12.25.25,0,0,1-.07.2l-.05,0-.59.57a.19.19,0,0,1-.13.06.19.19,0,0,1-.15-.08h0a.3.3,0,0,1,0-.21A.26.26,0,0,1,26.68,11.25Z" transform="translate(0 -2.13)"/><path class="cls-6" d="M27.29,10.65l0,0,.61-.59,0,0a.21.21,0,0,1,.15,0,.21.21,0,0,1,.11.08h0a.28.28,0,0,1,0,.12.24.24,0,0,1-.06.19l-.06.06-.59.57a.19.19,0,0,1-.13.06.19.19,0,0,1-.15-.08h0a.31.31,0,0,1,0-.21Z" transform="translate(0 -2.13)"/><path class="cls-6" d="M27.93,10l0,0,.61-.59,0,0a.18.18,0,0,1,.14,0,.2.2,0,0,1,.12.08h0a.16.16,0,0,1,0,.12.22.22,0,0,1-.06.19l-.06.06-.59.57a.13.13,0,0,1-.13.05.17.17,0,0,1-.14-.08h0a.23.23,0,0,1,0-.2A.3.3,0,0,1,27.93,10Z" transform="translate(0 -2.13)"/><path class="cls-6" d="M28.55,9.44l0,0,.61-.59,0,0a.18.18,0,0,1,.14,0,.2.2,0,0,1,.12.08h0a.34.34,0,0,1,0,.12.26.26,0,0,1-.07.19l-.05.06-.6.57a.19.19,0,0,1-.13.05.17.17,0,0,1-.14-.08h0a.23.23,0,0,1,0-.2A.19.19,0,0,1,28.55,9.44Z" transform="translate(0 -2.13)"/></svg>