<svg xmlns="http://www.w3.org/2000/svg" viewBox="0 0 200 181.84"><defs><style>.cls-1{fill:#72acdd;opacity:0.92;}.cls-2{fill:#8c776b;}.cls-3{fill:#f0cfc2;}.cls-4{fill:#9aaab5;}.cls-5{fill:#262626;}.cls-6{fill:#383838;}.cls-7{fill:#ebefeb;}.cls-8{fill:#91a1ab;}.cls-9{fill:#f7f7f7;}.cls-10{fill:#5e5e5e;}.cls-11{fill:#303030;}.cls-12{fill:#bfbfbf;}.cls-13{fill:#f0ddd1;}.cls-14{fill:#999;}.cls-15{fill:#afd9c4;}.cls-16{fill:#c4a451;}.cls-17{fill:#4d4d4d;}.cls-18{fill:#454545;}.cls-19{fill:#f2f2f2;}.cls-20{fill:#aa6a64;}.cls-21{fill:#0f0f0f;}.cls-22{opacity:0.81;}.cls-23{fill:#b3d6e3;}.cls-24{fill:#fcd79f;}</style></defs><g id="object"><path class="cls-1" d="M635.62,551.42c8.9-.16,18.5-.13,25.76,4.77,3.24,2.18,5.93,5.6,5.79,9.37-.37,10.67-20.56,13.37-19.93,24,.33,5.74,6.72,9,11.34,12.75a28.31,28.31,0,0,1,10.55,23.95c-.38,4.63-2.11,9.37-5.79,12.43-2.92,2.41-6.75,3.55-10.5,4.45-15.49,3.67-31.6,4.13-47.56,4.56l-59.78,1.63c-15.34.42-31.48.67-45.05-6.14s-23.07-23.28-16.24-36.33c1.94-3.71,5.13-7.66,3.55-11.52-.73-1.78-2.35-3.06-3.75-4.42-8.16-7.88-10.57-24.08-2.44-32.92s32.46-4.42,44.17-4.63Z" transform="translate(-471.05 -467.7)"/><path class="cls-2" d="M625,495.2a18.58,18.58,0,0,1,1.5,3.15,19.85,19.85,0,0,0,.78,2.66c.21.44.5.83.71,1.28a8.2,8.2,0,0,1,.46,1.4,20.45,20.45,0,0,1,.65,3.09,5.05,5.05,0,0,1-.32,2.65,4.73,4.73,0,0,1-2.54,2.12,5.22,5.22,0,0,1-3.32.48,5.86,5.86,0,0,1-2.2-1.34,55.83,55.83,0,0,1-4.24-4.19,32.81,32.81,0,0,1-2.72-3.16c-.86-1.19-1.57-2.5-2.37-3.73-1.17-1.79-2.6-3.54-2.88-5.74a8.49,8.49,0,0,1,2.54-6.62,7.21,7.21,0,0,1,3.73-2.29,7.4,7.4,0,0,1,2.61.07,15.41,15.41,0,0,1,3.48,1.08c1.3.57,1.29.83,1.63,2.3A28.47,28.47,0,0,0,625,495.2Z" transform="translate(-471.05 -467.7)"/><path class="cls-3" d="M618.82,489.59a4.86,4.86,0,0,0-9.68-.37,4,4,0,0,0,.13,1.2v.3a12.85,12.85,0,0,0,.09,2.7,6.19,6.19,0,0,0,2.76,4.41,3.27,3.27,0,0,0,4.25-.31c2.14-1.82,2.43-4.68,2.39-7.38A4.87,4.87,0,0,0,618.82,489.59Z" transform="translate(-471.05 -467.7)"/><path class="cls-2" d="M611,484.82a6.71,6.71,0,0,0-2.59,3.06c-.33,1.14-.06,2.43-.6,3.49s-1.64,1.58-2,2.64a2.51,2.51,0,0,0,1.27,2.71,2,2,0,0,1,.6.44,1.21,1.21,0,0,1,.2.64,4.27,4.27,0,0,1-.15,1.51.88.88,0,0,0-.06.42c0,.3.41.44.71.44a2.46,2.46,0,0,1,.9.06,1.83,1.83,0,0,1,.48.36c.54.5,1.42.87,2,.38a1.27,1.27,0,0,0,.28-1.27,4.88,4.88,0,0,0-.65-1.21,20,20,0,0,1-1.26-2.43,5.45,5.45,0,0,1-.63-4.23c.09-.6.19-1.19.28-1.78a4.25,4.25,0,0,1,.4-1.4,9.07,9.07,0,0,1,1.36-1.49,4,4,0,0,0,1-2.34C612.63,483.28,611.69,484.27,611,484.82Z" transform="translate(-471.05 -467.7)"/><path class="cls-2" d="M617.21,488.09a2.6,2.6,0,0,1,1.18,2.75c-.22.93-.95,1.71-1,2.67s.64,2,.55,3a4.45,4.45,0,0,1-1,2,6.1,6.1,0,0,1,1.22.21,1.48,1.48,0,0,1,.4-.35c.46-.27,1.06-.2,1.54-.44,1.43-.73.56-3.21,1.73-4.32.29-.28.7-.43,1-.73a2.23,2.23,0,0,0,.07-2.4,6.44,6.44,0,0,1-.88-2.37,9.51,9.51,0,0,0,0-1.19c-.13-1-1.11-1.57-2-2a13.17,13.17,0,0,0-4.87-1.76c-1.5-.12-4.27,1-3.41,3S615.67,487.17,617.21,488.09Z" transform="translate(-471.05 -467.7)"/><path class="cls-3" d="M607.92,510.73c-.71,1.62-1.46,3.4-3,4.23a5.82,5.82,0,0,1-2.94.55,36.13,36.13,0,0,1-5.28-.58,3.76,3.76,0,0,1-2-.71,1.45,1.45,0,0,1-.26-2l7.64,0a1.52,1.52,0,0,0,.7-.12,1.6,1.6,0,0,0,.56-.67,45.51,45.51,0,0,0,2.86-6.28,9.74,9.74,0,0,1,1.12-2.4,2.63,2.63,0,0,1,2.18-1.2C613.72,501.85,608.59,509.21,607.92,510.73Z" transform="translate(-471.05 -467.7)"/><path class="cls-3" d="M593.27,512.2a.42.42,0,0,0-.27,0,1.65,1.65,0,0,0-.25.15,1,1,0,0,1-.87-.09c-.28-.11-.65-.19-.85,0a.71.71,0,0,0-.16.34,1.6,1.6,0,0,0,0,1.18,1.15,1.15,0,0,0,.43.42c.86.52,2,.24,3,.27a1.24,1.24,0,0,0,.54-.06,1.17,1.17,0,0,0,.32-1.44C594.81,512.43,593.83,512.36,593.27,512.2Z" transform="translate(-471.05 -467.7)"/><path class="cls-4" d="M596.8,515a1.06,1.06,0,0,0,.16.44.89.89,0,0,0,.63.25c1.75.22,3.5.37,5.25.46a3.82,3.82,0,0,0,2.41-.43,4.25,4.25,0,0,0,1.08-1.36l1.6-2.7a27.16,27.16,0,0,0,2.26-4.43,9.21,9.21,0,0,0,.53-4.89,2,2,0,0,0-.63-1.22,1.87,1.87,0,0,0-2.16.34,4.46,4.46,0,0,0-.92.92,7.06,7.06,0,0,0-.71,1.33l-3.38,7.52a1,1,0,0,1-.43.56.93.93,0,0,1-.47.05c-1.61-.12-3.23-.26-4.84-.35-.87-.06-.81.27-.73,1.08S596.66,514.22,596.8,515Z" transform="translate(-471.05 -467.7)"/><path class="cls-5" d="M614,531.87a51.8,51.8,0,0,0-.27,5.57c0,1.91,0,3.83,0,5.74s0,4.09.05,6.14c.14,5.75.33,14.1.84,19.83a7.35,7.35,0,0,0,2.47.18c.57-7.21.73-17.15,2.24-24.22,1.22-5.7,3.38-11.2,3.36-17a7.6,7.6,0,0,0-1.47-5.07c-.88-1-2.66-2-3.92-1.08s-1.52,2.69-1.9,3.89A31.34,31.34,0,0,0,614,531.87Z" transform="translate(-471.05 -467.7)"/><path class="cls-5" d="M605.06,526.7c-.44,1.91-.87,7.29-1.14,9.24s-.54,4-.8,6-.55,4.3-.77,6.45c-.64,6.06-1.27,14.76-1.56,20.84a9.57,9.57,0,0,0,2.86.47c1.47-7.5,2.87-17.88,5.19-25.13,1.87-5.85,4.14-11.4,4.91-17.53a8.94,8.94,0,0,0-1.12-5.42c-.68-1.15-2.16-2.36-3.43-1.58-1.11.68-1.58-.77-2.09.44A37.85,37.85,0,0,0,605.06,526.7Z" transform="translate(-471.05 -467.7)"/><path class="cls-6" d="M603.79,568.25a.68.68,0,0,1,.25.09.61.61,0,0,1,.15.37,22.14,22.14,0,0,1-.48,6.06,21.2,21.2,0,0,1-.53,3c-.22.08-1,.18-1-.06a22.88,22.88,0,0,1,.06-2.87,1.55,1.55,0,0,0,0-.61.5.5,0,0,0-.45-.36c-.35,0-.49.44-.53.78l-.23,1.69c-.09.67-.22.58-.76,1a2.71,2.71,0,0,1-1.18.39,24.63,24.63,0,0,1-3.31.36,3,3,0,0,1-1.42-.25,2.63,2.63,0,0,1-1.08-1.42c-.32-.84-.41-1.06.22-1.71a2.45,2.45,0,0,1,1.81-.59,9,9,0,0,0,1.94-.07,4.77,4.77,0,0,0,1.34-.61,3.27,3.27,0,0,0,1.13-1,3.4,3.4,0,0,0,.36-1.48c.06-.72-.19-2.14.52-2.61S603.1,568.16,603.79,568.25Z" transform="translate(-471.05 -467.7)"/><path class="cls-6" d="M615.56,567.39a1.67,1.67,0,0,1,1.5.57,2,2,0,0,1,.31.71c.53,2.07-.07,4.32.64,6.33a7.55,7.55,0,0,1,.35,1c.12.53-.16.46-.08,1a1.53,1.53,0,0,1,.05.52c-.05.37-.39.61-.71.8a2.63,2.63,0,0,1-1.76.48,2.87,2.87,0,0,1-.92-.39,2,2,0,0,1-.45-.31,1.57,1.57,0,0,1-.32-.58c-.49-1.38-.15-2.26-.18-3.73s-.23-2.89-.22-4.33c0-.44-.08-1.13.23-1.49A2.58,2.58,0,0,1,615.56,567.39Z" transform="translate(-471.05 -467.7)"/><path class="cls-7" d="M599,535.65a3.89,3.89,0,0,0-1.25,2.67,2.24,2.24,0,0,0,2,2c.91.11,1.87-.1,2.7.43,1.05.69,1.55,2.37,2.46,3.37a2.53,2.53,0,0,0,3.09.69c1-.53,1.82-1.77,2.87-2.2,2-.83,4.58,1.59,6.25-.24.69-.76,1-2.11,1.86-2.53s2,.49,3,.33,1.72-1.4,1.94-2.72a13.52,13.52,0,0,0-.14-4l-.84-6.22c-.24-1.72-.64-3.73-1.85-4.31a2.76,2.76,0,0,0-2.29.27,37.38,37.38,0,0,1-6.64,2.49c-1.38.31-2-1.8-3.38-2.05-1.56-.28-2.36-1.53-3.36.4C603.65,527.39,601.22,533,599,535.65Z" transform="translate(-471.05 -467.7)"/><path class="cls-8" d="M608.09,503a41.68,41.68,0,0,0-1,5.33c-.61,4-1.49,8-2.38,12-.26,1.18-.52,2.36-.79,3.55a1.13,1.13,0,0,0,0,.45,1,1,0,0,0,.18.35,4,4,0,0,0,1.51,1.25,7.42,7.42,0,0,0,3.14.56A46.38,46.38,0,0,0,621.36,525a1.56,1.56,0,0,0,.67-.29,1.43,1.43,0,0,0,.39-1c.18-2.31-.83-4.52-1.17-6.8-.25-1.67-.15-3.38-.37-5-.19-1.43-.62-2.81-.8-4.24-.13-1-.15-2-.34-3s-.66-2.16-.77-3.28a10.71,10.71,0,0,0-.16-1.61,1.63,1.63,0,0,0-1-1.2,2.28,2.28,0,0,0-1.36.14,11.63,11.63,0,0,1-3.12.64c-1.11,0-2.53-.95-3.39-.13A9.31,9.31,0,0,0,608.09,503Z" transform="translate(-471.05 -467.7)"/><path class="cls-9" d="M584.29,480.62c0-3,.2-9.27-.49-11.53-.56-1.86-3.46-1.34-4.25-1.28-1.43.09-2.85,0-4.28.13-3.21.31-5.78-.54-9,0a3.06,3.06,0,0,0-1.75,1.19c-.68,1.3-.47,5.82-.47,8.33,0,18.9,0,34.4-.09,53.3-.05,7.74-.17,11.81.12,17.15a26.65,26.65,0,0,0,.71,5.6c.73,2.12,2.7,1.78,3.69,1.73,4.68-.26,9.2,1.09,13.86-.24a1.32,1.32,0,0,0,.95-.74c.71-1.36.92-7.44.91-10.07-.06-20.59.09-31.24.09-50.5C584.3,489.3,584.29,486.91,584.29,480.62Z" transform="translate(-471.05 -467.7)"/><path class="cls-10" d="M580.49,489.43c0-.3.09-.92-.22-1.15a6.39,6.39,0,0,0-1.93-.12h-1.93c-1.45,0-2.62-.05-4.07,0a3,3,0,0,0-.79.12c-.31.13-.21.58-.21.83,0,1.88,0,3.43,0,5.31a6.18,6.18,0,0,0,.05,1.71,1,1,0,0,0,.32.56,4.14,4.14,0,0,0,1.67.17c2.12,0,4.16.11,6.27,0a1.22,1.22,0,0,0,.43-.08c.32-.13.41-.74.41-1,0-2,0-3.11,0-5Z" transform="translate(-471.05 -467.7)"/><path class="cls-11" d="M580,489.49c0-.21.09-.64-.19-.8a7.37,7.37,0,0,0-1.72-.09h-1.72c-1.29,0-2.33,0-3.62,0a5.13,5.13,0,0,0-.71.08c-.27.1-.19.41-.19.58,0,1.32,0,2.39,0,3.71a3.44,3.44,0,0,0,.05,1.19.6.6,0,0,0,.29.39,2.78,2.78,0,0,0,1,.12c0,.2,0,.29,0,.58,0,.12,0,.13.06.19a.36.36,0,0,0,.19.07l.62,0c0,.18,0,.28,0,.56,0,.09,0,.13,0,.19a.24.24,0,0,0,.13.07c.14,0,.5,0,.69,0,.87,0,1.71,0,2.57,0h.18c.13,0,.17-.08.17-.11,0-.23,0-.35,0-.57v-.14h.59c.19,0,.25-.08.25-.11a5.33,5.33,0,0,1,0-.57v-.16l.57,0a1.27,1.27,0,0,0,.39-.05c.28-.09.37-.52.36-.7,0-1.43,0-2.17,0-3.51C580,490.1,580,489.93,580,489.49Z" transform="translate(-471.05 -467.7)"/><path class="cls-9" d="M572.93,489.84c0-.23,0-.41,0-.64v-.13s0,0,0,0h-.2s0,0-.06,0a.11.11,0,0,0,0,0v.27c0,.33,0,.65,0,1v.07s0,.07,0,.07h.24s0,0,0,0,0-.25,0-.31Z" transform="translate(-471.05 -467.7)"/><path class="cls-9" d="M573.56,489.84v-.77s0,0,0,0h-.2s-.05,0-.07,0l0,0a2.35,2.35,0,0,0,0,.27c0,.33,0,.65,0,1v.07s0,.07,0,.07h.23s0,0,0,0v-.61Z" transform="translate(-471.05 -467.7)"/><path class="cls-9" d="M574.17,489.84v-.77s0,0,0,0h-.2s-.05,0-.07,0l0,0v.27c0,.33,0,.65,0,1v.07s0,.07,0,.07h.23s0,0,0,0v-.61Z" transform="translate(-471.05 -467.7)"/><path class="cls-9" d="M574.8,489.84v-.64a.57.57,0,0,0,0-.13s0,0,0,0h-.2s0,0-.06,0a.06.06,0,0,0,0,0,2.35,2.35,0,0,0,0,.27v1s0,.05,0,.07,0,.07,0,.07h.24s0,0,0,0a3,3,0,0,0,0-.31Z" transform="translate(-471.05 -467.7)"/><path class="cls-9" d="M575.44,489.84v-.77s0,0,0,0h-.2s-.05,0-.07,0,0,0,0,0a2.35,2.35,0,0,0,0,.27c0,.33,0,.65,0,1v.07s0,.07,0,.07h.23s0,0,.05,0v-.61Z" transform="translate(-471.05 -467.7)"/><path class="cls-9" d="M576.07,489.84v-.64s0-.1,0-.13,0,0,0,0h-.2s0,0-.06,0a.06.06,0,0,0,0,0,2.35,2.35,0,0,0,0,.27v1.05s0,.07,0,.07H576s0,0,0,0a3,3,0,0,0,0-.31Z" transform="translate(-471.05 -467.7)"/><path class="cls-9" d="M576.68,489.84v-.64a.57.57,0,0,0,0-.13s0,0,0,0h-.2s0,0-.06,0a.06.06,0,0,0,0,0,2.35,2.35,0,0,0,0,.27v1a.15.15,0,0,0,0,.07s0,.07,0,.07h.24s0,0,0,0a3,3,0,0,0,0-.31Z" transform="translate(-471.05 -467.7)"/><path class="cls-9" d="M577.31,489.84c0-.23,0-.41,0-.64,0,0,0-.1,0-.13s0,0,0,0h-.2s0,0-.06,0a.06.06,0,0,0,0,0,2.35,2.35,0,0,0,0,.27v1.05s0,.07,0,.07h.24s0,0,0,0a3,3,0,0,0,0-.31Z" transform="translate(-471.05 -467.7)"/><path class="cls-9" d="M577.94,489.84c0-.23,0-.41,0-.64,0,0,0-.1,0-.12s0-.05,0-.05h-.2s0,0-.06,0,0,0,0,.05a2.09,2.09,0,0,0,0,.26v1.05s0,.07,0,.07h.24s0,0,0,0a2.91,2.91,0,0,0,0-.3Z" transform="translate(-471.05 -467.7)"/><path class="cls-9" d="M578.56,489.84v-.76c0-.05,0-.05,0-.05h-.2s-.05,0-.07,0l0,.05v.26c0,.33,0,.65,0,1v.06s0,.07,0,.07h.23s0,0,0,0v-.61Z" transform="translate(-471.05 -467.7)"/><path class="cls-9" d="M579.17,489.84c0-.23,0-.41,0-.64v-.12c0-.05,0-.05,0-.05h-.2s0,0-.06,0,0,0,0,.05a2.09,2.09,0,0,0,0,.26v1.05s0,.07,0,.07h.24s0,0,0,0a1.5,1.5,0,0,0,0-.3Z" transform="translate(-471.05 -467.7)"/><path class="cls-10" d="M580.49,477.92c0-.3.09-.93-.22-1.15a6.38,6.38,0,0,0-1.93-.13h-1.93c-1.45,0-2.62,0-4.07,0a4.07,4.07,0,0,0-.79.12c-.31.13-.21.58-.21.83,0,1.89,0,3.43,0,5.32a6.11,6.11,0,0,0,.05,1.7.94.94,0,0,0,.32.56,4.14,4.14,0,0,0,1.67.17c2.12,0,4.16.11,6.27,0a1.49,1.49,0,0,0,.43-.07c.32-.14.41-.74.41-1,0-2.05,0-3.11,0-5Z" transform="translate(-471.05 -467.7)"/><path class="cls-11" d="M580,478c0-.21.09-.65-.19-.8a6.86,6.86,0,0,0-1.72-.09h-1.72c-1.29,0-2.33,0-3.62,0a4,4,0,0,0-.71.08c-.27.09-.19.4-.19.58,0,1.31,0,2.39,0,3.7a3.44,3.44,0,0,0,.05,1.19.58.58,0,0,0,.29.39,3,3,0,0,0,1,.13c0,.2,0,.29,0,.58,0,.11,0,.13.06.19a.3.3,0,0,0,.19.06,5.27,5.27,0,0,0,.62,0c0,.19,0,.28,0,.56,0,.09,0,.14,0,.2a.19.19,0,0,0,.13.06c.14,0,.5,0,.69,0h2.75c.13,0,.17-.09.17-.11,0-.24,0-.36,0-.57V484h.59c.19,0,.25-.08.25-.11a5.15,5.15,0,0,1,0-.57v-.15h0l.57,0a2.44,2.44,0,0,0,.39,0c.28-.1.37-.52.36-.7,0-1.44,0-2.18,0-3.51C580,478.58,580,478.42,580,478Z" transform="translate(-471.05 -467.7)"/><path class="cls-9" d="M572.93,478.32c0-.22,0-.41,0-.64v-.12c0-.05,0-.05,0-.05h-.2s0,0-.06,0a.11.11,0,0,0,0,.05v.26c0,.33,0,.66,0,1v.06c0,.06,0,.07,0,.07h.24s0,0,0,0,0-.25,0-.3Z" transform="translate(-471.05 -467.7)"/><path class="cls-9" d="M573.56,478.32v-.76c0-.05,0-.05,0-.05h-.2s-.05,0-.07,0,0,0,0,.05a2.09,2.09,0,0,0,0,.26c0,.33,0,.66,0,1v.06c0,.06,0,.07,0,.07h.23s0,0,0,0v-.61Z" transform="translate(-471.05 -467.7)"/><path class="cls-9" d="M574.17,478.32v-.76c0-.05,0-.05,0-.05h-.2s-.05,0-.07,0,0,0,0,.05v.26c0,.33,0,.66,0,1v.06c0,.06,0,.07,0,.07h.23s0,0,0,0v-.61Z" transform="translate(-471.05 -467.7)"/><path class="cls-9" d="M574.8,478.32v-.64a.49.49,0,0,0,0-.12c0-.05,0-.05,0-.05h-.2s0,0-.06,0a.06.06,0,0,0,0,.05,2.09,2.09,0,0,0,0,.26v1s0,0,0,.06,0,.07,0,.07h.24s0,0,0,0a2.91,2.91,0,0,0,0-.3Z" transform="translate(-471.05 -467.7)"/><path class="cls-9" d="M575.44,478.32v-.76c0-.05,0-.05,0-.05h-.2s-.05,0-.07,0,0,0,0,.05a2.09,2.09,0,0,0,0,.26c0,.33,0,.66,0,1v.06c0,.06,0,.07,0,.07h.23s0,0,.05,0v-.61Z" transform="translate(-471.05 -467.7)"/><path class="cls-9" d="M576.07,478.32v-.64s0-.1,0-.12,0-.05,0-.05h-.2s0,0-.06,0a.06.06,0,0,0,0,.05,2.09,2.09,0,0,0,0,.26v1.05c0,.06,0,.07,0,.07H576s0,0,0,0a2.91,2.91,0,0,0,0-.3Z" transform="translate(-471.05 -467.7)"/><path class="cls-9" d="M576.68,478.32v-.64a.49.49,0,0,0,0-.12c0-.05,0-.05,0-.05h-.2s0,0-.06,0a.06.06,0,0,0,0,.05,2.09,2.09,0,0,0,0,.26v1a.13.13,0,0,0,0,.06c0,.06,0,.07,0,.07h.24s0,0,0,0a2.91,2.91,0,0,0,0-.3Z" transform="translate(-471.05 -467.7)"/><path class="cls-9" d="M577.31,478.32c0-.22,0-.41,0-.64,0,0,0-.1,0-.12s0-.05,0-.05h-.2s0,0-.06,0a.06.06,0,0,0,0,.05,2.09,2.09,0,0,0,0,.26v1.05c0,.06,0,.07,0,.07h.24s0,0,0,0a2.91,2.91,0,0,0,0-.3Z" transform="translate(-471.05 -467.7)"/><path class="cls-9" d="M577.94,478.33c0-.23,0-.41,0-.64,0,0,0-.1,0-.13s0,0,0,0h-.2s0,0-.06,0a.06.06,0,0,0,0,.05,2.09,2.09,0,0,0,0,.26v1.06c0,.05,0,.06,0,.06h.24s0,0,0,0a2.81,2.81,0,0,0,0-.3Z" transform="translate(-471.05 -467.7)"/><path class="cls-9" d="M578.56,478.33v-.77c0-.05,0,0,0,0h-.2s-.05,0-.07,0,0,0,0,.05v.26c0,.34,0,.66,0,1v.07c0,.05,0,.06,0,.06h.23s0,0,0,0v-.6Z" transform="translate(-471.05 -467.7)"/><path class="cls-9" d="M579.17,478.33c0-.23,0-.41,0-.64v-.13c0-.05,0,0,0,0h-.2s0,0-.06,0a.06.06,0,0,0,0,.05,2.09,2.09,0,0,0,0,.26v1.06c0,.05,0,.06,0,.06h.24s0,0,0,0a1.5,1.5,0,0,0,0-.3Z" transform="translate(-471.05 -467.7)"/><path class="cls-10" d="M580.49,501c0-.3.09-.92-.22-1.15a6.38,6.38,0,0,0-1.93-.13c-.64,0-1.29,0-1.93,0-1.45,0-2.62-.06-4.07,0a4.07,4.07,0,0,0-.79.12c-.31.13-.21.58-.21.83,0,1.89,0,3.43,0,5.32a6.2,6.2,0,0,0,.05,1.71.92.92,0,0,0,.32.55,4.14,4.14,0,0,0,1.67.18c2.12,0,4.16.1,6.27,0a1.49,1.49,0,0,0,.43-.07c.32-.14.41-.74.41-1,0-2.06,0-3.12,0-5Z" transform="translate(-471.05 -467.7)"/><path class="cls-11" d="M580,501c0-.21.09-.64-.19-.8a7.37,7.37,0,0,0-1.72-.09h-1.72c-1.29,0-2.33,0-3.62,0a4,4,0,0,0-.71.08c-.27.09-.19.4-.19.58,0,1.31,0,2.39,0,3.7a3.51,3.51,0,0,0,.05,1.2.58.58,0,0,0,.29.38,2.75,2.75,0,0,0,1,.13c0,.2,0,.29,0,.58,0,.11,0,.13.06.19a.3.3,0,0,0,.19.06,5.27,5.27,0,0,0,.62,0c0,.19,0,.29,0,.57,0,.08,0,.13,0,.19a.19.19,0,0,0,.13.06,5,5,0,0,0,.69,0h2.75c.13,0,.17-.08.17-.11,0-.23,0-.35,0-.57v-.15h.59c.19,0,.25-.08.25-.11a5.33,5.33,0,0,1,0-.57v-.15h0l.57,0a2.44,2.44,0,0,0,.39-.05c.28-.1.37-.52.36-.7,0-1.43,0-2.17,0-3.51C580,501.61,580,501.45,580,501Z" transform="translate(-471.05 -467.7)"/><path class="cls-9" d="M572.93,501.36c0-.23,0-.42,0-.64v-.13s0,0,0,0h-.2s0,0-.06,0a.11.11,0,0,0,0,.05v.26c0,.34,0,.66,0,1v.07c0,.05,0,.06,0,.06h.24s0,0,0,0a3,3,0,0,0,0-.3Z" transform="translate(-471.05 -467.7)"/><path class="cls-9" d="M573.56,501.36v-.77s0,0,0,0h-.2s-.05,0-.07,0l0,.05a2.09,2.09,0,0,0,0,.26c0,.34,0,.66,0,1v.07c0,.05,0,.06,0,.06h.23s0,0,0,0v-.6Z" transform="translate(-471.05 -467.7)"/><path class="cls-9" d="M574.17,501.36v-.77s0,0,0,0h-.2s-.05,0-.07,0l0,.05v.26c0,.34,0,.66,0,1v.07c0,.05,0,.06,0,.06h.23s0,0,0,0v-.6Z" transform="translate(-471.05 -467.7)"/><path class="cls-9" d="M574.8,501.36v-.64a.53.53,0,0,0,0-.13s0,0,0,0h-.2s0,0-.06,0a.06.06,0,0,0,0,.05,2.09,2.09,0,0,0,0,.26v1s0,.05,0,.07,0,.06,0,.06h.24s0,0,0,0a2.81,2.81,0,0,0,0-.3Z" transform="translate(-471.05 -467.7)"/><path class="cls-9" d="M575.44,501.36v-.77s0,0,0,0h-.2s-.05,0-.07,0,0,0,0,.05a2.09,2.09,0,0,0,0,.26c0,.34,0,.66,0,1v.07c0,.05,0,.06,0,.06h.23s0,0,.05,0v-.6Z" transform="translate(-471.05 -467.7)"/><path class="cls-9" d="M576.07,501.36v-.64s0-.11,0-.13,0,0,0,0h-.2s0,0-.06,0a.06.06,0,0,0,0,.05,2.09,2.09,0,0,0,0,.26v1.06c0,.05,0,.06,0,.06H576s0,0,0,0a2.81,2.81,0,0,0,0-.3Z" transform="translate(-471.05 -467.7)"/><path class="cls-9" d="M576.68,501.36v-.64a.53.53,0,0,0,0-.13s0,0,0,0h-.2s0,0-.06,0a.06.06,0,0,0,0,.05,2.09,2.09,0,0,0,0,.26v1a.17.17,0,0,0,0,.07c0,.05,0,.06,0,.06h.24s0,0,0,0a2.81,2.81,0,0,0,0-.3Z" transform="translate(-471.05 -467.7)"/><path class="cls-9" d="M577.31,501.36c0-.23,0-.42,0-.64,0,0,0-.11,0-.13s0,0,0,0h-.2s0,0-.06,0a.06.06,0,0,0,0,.05,2.09,2.09,0,0,0,0,.26v1.06c0,.05,0,.06,0,.06h.24s0,0,0,0a2.81,2.81,0,0,0,0-.3Z" transform="translate(-471.05 -467.7)"/><path class="cls-9" d="M577.94,501.36c0-.23,0-.41,0-.64,0,0,0-.1,0-.13s0,0,0,0h-.2s0,0-.06,0a.06.06,0,0,0,0,.05,2.35,2.35,0,0,0,0,.27v1.05c0,.05,0,.06,0,.06h.24s0,0,0,0a2.81,2.81,0,0,0,0-.3Z" transform="translate(-471.05 -467.7)"/><path class="cls-9" d="M578.56,501.36v-.77s0,0,0,0h-.2s-.05,0-.07,0l0,.05v.27c0,.33,0,.65,0,1v.07c0,.05,0,.06,0,.06h.23s0,0,0,0v-.6Z" transform="translate(-471.05 -467.7)"/><path class="cls-9" d="M579.17,501.36c0-.23,0-.41,0-.64v-.13s0,0,0,0h-.2s0,0-.06,0a.06.06,0,0,0,0,.05,2.35,2.35,0,0,0,0,.27v1.05c0,.05,0,.06,0,.06h.24s0,0,0,0a1.5,1.5,0,0,0,0-.3Z" transform="translate(-471.05 -467.7)"/><path class="cls-10" d="M580.49,512.43c0-.31.09-.93-.22-1.15a6.08,6.08,0,0,0-1.93-.13h-1.93c-1.45,0-2.62-.05-4.07,0a4.07,4.07,0,0,0-.79.12c-.31.13-.21.58-.21.83,0,1.88,0,3.43,0,5.31a6.16,6.16,0,0,0,.05,1.71.94.94,0,0,0,.32.56,4.14,4.14,0,0,0,1.67.17c2.12,0,4.16.11,6.27,0a1.49,1.49,0,0,0,.43-.07c.32-.14.41-.75.41-1,0-2,0-3.11,0-5Z" transform="translate(-471.05 -467.7)"/><path class="cls-11" d="M580,512.49c0-.21.09-.65-.19-.8a6.86,6.86,0,0,0-1.72-.09h-1.72c-1.29,0-2.33,0-3.62,0a3.22,3.22,0,0,0-.71.08c-.27.09-.19.4-.19.58,0,1.31,0,2.39,0,3.7a3.44,3.44,0,0,0,.05,1.19.58.58,0,0,0,.29.39,3,3,0,0,0,1,.13c0,.2,0,.29,0,.57,0,.12,0,.14.06.2a.3.3,0,0,0,.19.06l.62,0c0,.18,0,.28,0,.56,0,.09,0,.14,0,.2a.19.19,0,0,0,.13.06c.14,0,.5,0,.69,0h2.75c.13,0,.17-.09.17-.12,0-.23,0-.35,0-.56v-.15h.59c.19,0,.25-.09.25-.12a5.06,5.06,0,0,1,0-.56v-.15h0l.57,0a1.67,1.67,0,0,0,.39-.06c.28-.09.37-.51.36-.7,0-1.43,0-2.17,0-3.51C580,513.09,580,512.92,580,512.49Z" transform="translate(-471.05 -467.7)"/><path class="cls-9" d="M572.93,512.83c0-.23,0-.41,0-.64v-.12c0-.05,0-.05,0-.05h-.2s0,0-.06,0,0,0,0,.05v.26c0,.33,0,.65,0,1v.06c0,.05,0,.07,0,.07h.24s0,0,0,0,0-.25,0-.3Z" transform="translate(-471.05 -467.7)"/><path class="cls-9" d="M573.56,512.83v-.76c0-.05,0-.05,0-.05h-.2s-.05,0-.07,0l0,.05a2.09,2.09,0,0,0,0,.26c0,.33,0,.65,0,1v.06c0,.05,0,.07,0,.07h.23s0,0,0,0v-.61Z" transform="translate(-471.05 -467.7)"/><path class="cls-9" d="M574.17,512.83v-.76c0-.05,0-.05,0-.05h-.2s-.05,0-.07,0l0,.05v.26c0,.33,0,.65,0,1v.06c0,.05,0,.07,0,.07h.23s0,0,0,0v-.61Z" transform="translate(-471.05 -467.7)"/><path class="cls-9" d="M574.8,512.83v-.64a.49.49,0,0,0,0-.12c0-.05,0-.05,0-.05h-.2s0,0-.06,0,0,0,0,.05a2.09,2.09,0,0,0,0,.26v1s0,0,0,.06,0,.07,0,.07h.24s0,0,0,0a2.91,2.91,0,0,0,0-.3Z" transform="translate(-471.05 -467.7)"/><path class="cls-9" d="M575.44,512.83v-.76c0-.05,0-.05,0-.05h-.2s-.05,0-.07,0,0,0,0,.05a2.09,2.09,0,0,0,0,.26c0,.33,0,.65,0,1v.06c0,.05,0,.07,0,.07h.23s0,0,.05,0v-.61Z" transform="translate(-471.05 -467.7)"/><path class="cls-9" d="M576.07,512.83v-.64s0-.1,0-.12,0-.05,0-.05h-.2s0,0-.06,0,0,0,0,.05a2.09,2.09,0,0,0,0,.26v1c0,.05,0,.07,0,.07H576s0,0,0,0a2.91,2.91,0,0,0,0-.3Z" transform="translate(-471.05 -467.7)"/><path class="cls-9" d="M576.68,512.83v-.64a.49.49,0,0,0,0-.12c0-.05,0-.05,0-.05h-.2s0,0-.06,0,0,0,0,.05a2.09,2.09,0,0,0,0,.26v1a.13.13,0,0,0,0,.06c0,.05,0,.07,0,.07h.24s0,0,0,0a2.91,2.91,0,0,0,0-.3Z" transform="translate(-471.05 -467.7)"/><path class="cls-9" d="M577.31,512.83c0-.23,0-.41,0-.64,0,0,0-.1,0-.12s0-.05,0-.05h-.2s0,0-.06,0,0,0,0,.05a2.09,2.09,0,0,0,0,.26v1c0,.05,0,.07,0,.07h.24s0,0,0,0a2.91,2.91,0,0,0,0-.3Z" transform="translate(-471.05 -467.7)"/><path class="cls-9" d="M577.94,512.84c0-.23,0-.42,0-.64,0,0,0-.11,0-.13s0,0,0,0h-.2s0,0-.06,0a.06.06,0,0,0,0,.05,2.09,2.09,0,0,0,0,.26v1.06c0,.05,0,.06,0,.06h.24s0,0,0,0a2.81,2.81,0,0,0,0-.3Z" transform="translate(-471.05 -467.7)"/><path class="cls-9" d="M578.56,512.84v-.77c0-.05,0,0,0,0h-.2s-.05,0-.07,0l0,.05v.26c0,.34,0,.66,0,1v.07c0,.05,0,.06,0,.06h.23s0,0,0,0v-.6Z" transform="translate(-471.05 -467.7)"/><path class="cls-9" d="M579.17,512.84c0-.23,0-.42,0-.64v-.13c0-.05,0,0,0,0h-.2s0,0-.06,0a.06.06,0,0,0,0,.05,2.09,2.09,0,0,0,0,.26v1.06c0,.05,0,.06,0,.06h.24s0,0,0,0a1.5,1.5,0,0,0,0-.3Z" transform="translate(-471.05 -467.7)"/><path class="cls-10" d="M580.49,523.55c0-.31.09-.93-.22-1.15a6.08,6.08,0,0,0-1.93-.13h-1.93c-1.45,0-2.62,0-4.07,0a4.07,4.07,0,0,0-.79.12c-.31.13-.21.58-.21.83,0,1.88,0,3.43,0,5.31a6.16,6.16,0,0,0,.05,1.71.94.94,0,0,0,.32.56,4.14,4.14,0,0,0,1.67.17c2.12,0,4.16.11,6.27,0a1.49,1.49,0,0,0,.43-.07c.32-.14.41-.75.41-1,0-2,0-3.11,0-5Z" transform="translate(-471.05 -467.7)"/><path class="cls-11" d="M580,523.61c0-.21.09-.65-.19-.8a6.86,6.86,0,0,0-1.72-.09h-1.72c-1.29,0-2.33,0-3.62,0a3.93,3.93,0,0,0-.71.09c-.27.09-.19.4-.19.58,0,1.31,0,2.39,0,3.7a3.44,3.44,0,0,0,.05,1.19.58.58,0,0,0,.29.39,3,3,0,0,0,1,.13c0,.2,0,.29,0,.57,0,.12,0,.14.06.2a.3.3,0,0,0,.19.06l.62,0c0,.18,0,.28,0,.56,0,.09,0,.14,0,.2a.26.26,0,0,0,.13.06c.14,0,.5,0,.69,0h2.75c.13,0,.17-.09.17-.12,0-.23,0-.35,0-.56v-.15h.59c.19,0,.25-.09.25-.12a5.06,5.06,0,0,1,0-.56v-.15h0l.57,0a1.67,1.67,0,0,0,.39-.06c.28-.09.37-.51.36-.7,0-1.43,0-2.17,0-3.51C580,524.21,580,524,580,523.61Z" transform="translate(-471.05 -467.7)"/><path class="cls-9" d="M572.93,524c0-.23,0-.41,0-.64v-.12c0-.05,0-.05,0-.05h-.2s0,0-.06,0,0,0,0,.05v.26c0,.33,0,.65,0,1v.06c0,.05,0,.07,0,.07h.24s0,0,0,0,0-.25,0-.3Z" transform="translate(-471.05 -467.7)"/><path class="cls-9" d="M573.56,524v-.76c0-.05,0-.05,0-.05h-.2s-.05,0-.07,0l0,.05a2.09,2.09,0,0,0,0,.26c0,.33,0,.65,0,1v.06c0,.05,0,.07,0,.07h.23s0,0,0,0V524Z" transform="translate(-471.05 -467.7)"/><path class="cls-9" d="M574.17,524v-.76c0-.05,0-.05,0-.05h-.2s-.05,0-.07,0l0,.05v.26c0,.33,0,.65,0,1v.06c0,.05,0,.07,0,.07h.23s0,0,0,0V524Z" transform="translate(-471.05 -467.7)"/><path class="cls-9" d="M574.8,524v-.64a.49.49,0,0,0,0-.12c0-.05,0-.05,0-.05h-.2s0,0-.06,0,0,0,0,.05a2.09,2.09,0,0,0,0,.26v1s0,0,0,.06,0,.07,0,.07h.24s0,0,0,0a2.91,2.91,0,0,0,0-.3Z" transform="translate(-471.05 -467.7)"/><path class="cls-9" d="M575.44,524v-.76c0-.05,0-.05,0-.05h-.2s-.05,0-.07,0,0,0,0,.05a2.09,2.09,0,0,0,0,.26c0,.33,0,.65,0,1v.06c0,.05,0,.07,0,.07h.23s0,0,.05,0V524Z" transform="translate(-471.05 -467.7)"/><path class="cls-9" d="M576.07,524v-.64s0-.1,0-.12,0-.05,0-.05h-.2s0,0-.06,0,0,0,0,.05a2.09,2.09,0,0,0,0,.26v1c0,.05,0,.07,0,.07H576s0,0,0,0a2.91,2.91,0,0,0,0-.3Z" transform="translate(-471.05 -467.7)"/><path class="cls-9" d="M576.68,524v-.64a.49.49,0,0,0,0-.12c0-.05,0-.05,0-.05h-.2s0,0-.06,0,0,0,0,.05a2.09,2.09,0,0,0,0,.26v1a.13.13,0,0,0,0,.06c0,.05,0,.07,0,.07h.24s0,0,0,0a2.91,2.91,0,0,0,0-.3Z" transform="translate(-471.05 -467.7)"/><path class="cls-9" d="M577.31,524c0-.23,0-.41,0-.64,0,0,0-.1,0-.12s0-.05,0-.05h-.2s0,0-.06,0,0,0,0,.05a2.09,2.09,0,0,0,0,.26v1c0,.05,0,.07,0,.07h.24s0,0,0,0a2.91,2.91,0,0,0,0-.3Z" transform="translate(-471.05 -467.7)"/><path class="cls-9" d="M577.94,524c0-.23,0-.42,0-.64,0,0,0-.11,0-.13s0,0,0,0h-.2s0,0-.06,0a.06.06,0,0,0,0,.05,2.09,2.09,0,0,0,0,.26v1.06c0,.05,0,.06,0,.06h.24s0,0,0,0a2.81,2.81,0,0,0,0-.3Z" transform="translate(-471.05 -467.7)"/><path class="cls-9" d="M578.56,524v-.77c0-.05,0,0,0,0h-.2s-.05,0-.07,0l0,.05v.26c0,.34,0,.66,0,1v.07c0,.05,0,.06,0,.06h.23s0,0,0,0V524Z" transform="translate(-471.05 -467.7)"/><path class="cls-9" d="M579.17,524c0-.23,0-.42,0-.64v-.13c0-.05,0,0,0,0h-.2s0,0-.06,0a.06.06,0,0,0,0,.05,2.09,2.09,0,0,0,0,.26v1.06c0,.05,0,.06,0,.06h.24s0,0,0,0a1.5,1.5,0,0,0,0-.3Z" transform="translate(-471.05 -467.7)"/><path class="cls-10" d="M580.49,535c0-.3.09-.92-.22-1.15a6.39,6.39,0,0,0-1.93-.12h-1.93c-1.45,0-2.62-.05-4.07,0a3,3,0,0,0-.79.12c-.31.13-.21.58-.21.83,0,1.88,0,3.43,0,5.31a6.18,6.18,0,0,0,.05,1.71,1,1,0,0,0,.32.56,4.14,4.14,0,0,0,1.67.17c2.12,0,4.16.11,6.27,0a1.22,1.22,0,0,0,.43-.08c.32-.13.41-.74.41-1,0-2.05,0-3.11,0-5Z" transform="translate(-471.05 -467.7)"/><path class="cls-11" d="M580,535c0-.21.09-.64-.19-.8a7.37,7.37,0,0,0-1.72-.09h-1.72c-1.29,0-2.33,0-3.62,0a3.93,3.93,0,0,0-.71.09c-.27.09-.19.4-.19.57,0,1.32,0,2.39,0,3.71a3.44,3.44,0,0,0,.05,1.19.6.6,0,0,0,.29.39,2.78,2.78,0,0,0,1,.12c0,.2,0,.29,0,.58,0,.12,0,.13.06.19a.36.36,0,0,0,.19.07l.62,0c0,.18,0,.28,0,.56,0,.09,0,.13,0,.19a.24.24,0,0,0,.13.07c.14,0,.5,0,.69,0,.87,0,1.71,0,2.57,0h.18c.13,0,.17-.08.17-.11,0-.23,0-.35,0-.57v-.14h.59c.19,0,.25-.08.25-.11a5.33,5.33,0,0,1,0-.57v-.16l.57,0a1.27,1.27,0,0,0,.39-.05c.28-.09.37-.52.36-.7,0-1.43,0-2.17,0-3.51C580,535.65,580,535.48,580,535Z" transform="translate(-471.05 -467.7)"/><path class="cls-12" d="M583.92,558.35a28.3,28.3,0,0,0,3.52-.09c.57-.12.41-.71.39-.87s0-.58,0-.87c-.09-.65.17-1.17,0-1.82a.67.67,0,0,0-.37-.36,13.77,13.77,0,0,0-2.54-.1c-5.78,0-10.52,0-16.3,0-2.36,0-3.6,0-5.24,0a13.26,13.26,0,0,0-1.71.14c-.65.15-.54.55-.53.76.08,1-.33,1.86.08,2.81a.29.29,0,0,0,.22.19,18.22,18.22,0,0,0,3.08.19c6.29,0,9.55,0,15.44,0Z" transform="translate(-471.05 -467.7)"/><path class="cls-13" d="M535.36,540.15a1.24,1.24,0,0,0,.63-.79,1,1,0,0,0-.51-.93,2.3,2.3,0,0,0-1.1-.24,8.08,8.08,0,0,0-2.08.21c-1.24.28-2.47,1.63-.74,2.24A4.47,4.47,0,0,0,535.36,540.15Z" transform="translate(-471.05 -467.7)"/><path class="cls-14" d="M567.82,480.07a.66.66,0,0,0-.21.23.91.91,0,0,0,.06,1,.84.84,0,0,0,1,.23,1,1,0,0,0,.51-.87.71.71,0,0,0,0-.29A.92.92,0,0,0,567.82,480.07Z" transform="translate(-471.05 -467.7)"/><path class="cls-14" d="M567.82,491.87a.66.66,0,0,0-.21.23.91.91,0,0,0,.06,1,.84.84,0,0,0,1,.23,1,1,0,0,0,.51-.87.71.71,0,0,0,0-.29A.92.92,0,0,0,567.82,491.87Z" transform="translate(-471.05 -467.7)"/><path class="cls-14" d="M567.82,503.07a.66.66,0,0,0-.21.23.91.91,0,0,0,.06,1,.85.85,0,0,0,1,.23,1,1,0,0,0,.51-.88.69.69,0,0,0,0-.28A.91.91,0,0,0,567.82,503.07Z" transform="translate(-471.05 -467.7)"/><path class="cls-14" d="M567.82,514.54a.66.66,0,0,0-.21.23.91.91,0,0,0,.06,1,.82.82,0,0,0,1,.23,1,1,0,0,0,.51-.87.71.71,0,0,0,0-.29A.92.92,0,0,0,567.82,514.54Z" transform="translate(-471.05 -467.7)"/><path class="cls-14" d="M567.82,525.57a.66.66,0,0,0-.21.23.91.91,0,0,0,.06,1,.85.85,0,0,0,1,.23,1,1,0,0,0,.51-.88.69.69,0,0,0,0-.28A.92.92,0,0,0,567.82,525.57Z" transform="translate(-471.05 -467.7)"/><path class="cls-15" d="M567.82,537a.66.66,0,0,0-.21.23.91.91,0,0,0,.06,1,.84.84,0,0,0,1,.23,1,1,0,0,0,.51-.87.71.71,0,0,0,0-.29A.92.92,0,0,0,567.82,537Z" transform="translate(-471.05 -467.7)"/><path class="cls-16" d="M592.63,606.11c-2.94-6-9.68-9.66-15.67-11.94-6.39-2.43-13.18-3.55-19.81-5.11-5.67-1.33-13.83-2.93-15.65-9.45-2-7,6.82-8.89,11.78-9.72,7.09-1.18,14.37-1.8,20.15-6.53a14.54,14.54,0,0,0,5.05-7.81c.88-3.84.41-8.08,0-12-.2-2.07-.46-4.14-.76-6.2s-4.06-1.65-3.79.51c.48,3.91.81,7.86.93,11.8.11,3.24-.17,6.37-2.34,8.93-4.37,5.17-11.51,6.07-17.79,7s-14.26,2.1-16.91,8.67a10.82,10.82,0,0,0,1,9.31,16,16,0,0,0,7.52,6.32c6.18,2.76,13.11,3.65,19.67,5.15,6.34,1.45,12.7,3.29,18,7.12,2.38,1.7,4.73,4,5.66,6.84,1.05,3.19,0,6.65-1.4,9.58a20.28,20.28,0,0,1-5.82,7.68,28.48,28.48,0,0,1-8.84,4.35c-14.52,4.69-30.11,4.19-45.26,3.85-1.92,0-3.85-.46-5.77-.48-1.09,0-1,3.21,0,3.33,15.6,1.79,31.79,1.78,47.12-1.9,6.72-1.62,13.81-4,18.35-9.52C592.48,620.68,595.83,612.67,592.63,606.11Z" transform="translate(-471.05 -467.7)"/><path class="cls-17" d="M519.19,568.49c.7,1.77,1.45,3.52,2,5.35,1.67,5.4,1.65,11.24,1,16.89s-1.78,11.24-2.35,16.9a9.15,9.15,0,0,1-3.3,0q0-10.86-.16-21.73a6.67,6.67,0,0,0-.16-1.61,6.91,6.91,0,0,0-.74-1.58q-5.5-9.5-11-19a23.55,23.55,0,0,1-2.43-5.09,8.08,8.08,0,0,1,.2-5.59,6.39,6.39,0,0,1,7.13-3.32,7.45,7.45,0,0,1,5.76,6.27A64.39,64.39,0,0,0,519.19,568.49Z" transform="translate(-471.05 -467.7)"/><path class="cls-17" d="M492.24,601.26a6.3,6.3,0,0,1-3.69-1.5c2.7-3.85,3.86-8.11,6.56-12a25.45,25.45,0,0,0,2.33-3.78,24.48,24.48,0,0,0,1.53-5.16c1.48-6.8.62-15.05,2.09-21.85a4.34,4.34,0,0,1,.61-1.64c1-1.37,7.06.68,8.79,1a1.69,1.69,0,0,1,1,.46c.27.33.93-.47.89-.05-.34,3.43.25,1.94-.62,7.34-.31,1.91-3.35,14-4.1,15.76a30,30,0,0,1-5.41,9C498.57,592.83,496,596.52,492.24,601.26Z" transform="translate(-471.05 -467.7)"/><path class="cls-18" d="M493.49,601.05c.46.58-.31,1.54.14,2.11.72.91,2.33.53,3,1.46a2.14,2.14,0,0,1,.36,1.08,5.3,5.3,0,0,1-.17,2,.93.93,0,0,1-.16.35.84.84,0,0,1-.29.2,2.64,2.64,0,0,1-2,0,8,8,0,0,1-1.76-1.08l-5.71-4.27a.59.59,0,0,1-.23-.24.67.67,0,0,1,0-.37,8.9,8.9,0,0,1,1.11-2.38c.36-.62.73-1.24,1.12-1.83A12,12,0,0,1,493.49,601.05Z" transform="translate(-471.05 -467.7)"/><path class="cls-18" d="M521.16,607.52c.6.12.43,1.17.93,1.47a3,3,0,0,0,1.42.31l1.87.1a1.77,1.77,0,0,1,1.21.37,2,2,0,0,1,.42,1.41,2.47,2.47,0,0,1-.27,1.53,2.15,2.15,0,0,1-1.88.63c-2.41,0-6-.16-8.44-.36a.89.89,0,0,1-.76-.33,1.05,1.05,0,0,1-.08-.56l.23-4.43A19.66,19.66,0,0,1,521.16,607.52Z" transform="translate(-471.05 -467.7)"/><path class="cls-19" d="M512.52,530.17a9,9,0,0,1,4.05,2.55c1.14,1.14,2.13,2.43,3.31,3.53a3.7,3.7,0,0,0,1.74,1,4.23,4.23,0,0,0,1.62-.1l7.38-1.42a9.82,9.82,0,0,1,3.19-.25l.21,2.41a.42.42,0,0,1,0,.27.44.44,0,0,1-.25.14l-9.41,2.55A31.74,31.74,0,0,1,519,542a2.66,2.66,0,0,1-1.09-.07,2.79,2.79,0,0,1-.83-.53,64,64,0,0,1-7.42-7.75,3,3,0,0,1-.83-1.44C508.51,530.55,511.33,529.88,512.52,530.17Z" transform="translate(-471.05 -467.7)"/><path class="cls-5" d="M546.8,534.36a52.81,52.81,0,0,0,5.66-1.73.63.63,0,0,0,.33-.21.48.48,0,0,0,.07-.23,1.83,1.83,0,0,0-.09-.52c-.22-.82-.43-1.64-.72-2.43a1.13,1.13,0,0,0-.19-.36.74.74,0,0,0-.55-.2,2,2,0,0,0-.58.14l-3.86,1.28a15.63,15.63,0,0,0-1.87.71.38.38,0,0,0-.13.09.56.56,0,0,0,0,.12,2.28,2.28,0,0,0,0,.78c.09.54.2,1.07.32,1.61a2.81,2.81,0,0,0,.25.74c.1.18.33.51.57.5s.24-.12.34-.15A4,4,0,0,1,546.8,534.36Z" transform="translate(-471.05 -467.7)"/><path class="cls-9" d="M550.17,529.77l1.18-.4.23-.08c.09,0,.08,0,.08,0s0-.09-.07-.17,0,0,0-.05l-.1,0c-.1,0-.36.11-.49.15l-1.82.61-.12.05c-.09,0-.12.06-.11.07a.94.94,0,0,1,0,.16l0,0s0,0,.07,0l.56-.18Z" transform="translate(-471.05 -467.7)"/><path class="cls-9" d="M550.35,530.3l1.18-.4.23-.08c.09,0,.08,0,.08-.05s0-.09-.07-.17,0,0,0-.05l-.1,0a4.6,4.6,0,0,0-.49.16l-1.82.61-.12,0c-.1,0-.12.06-.11.07a.85.85,0,0,1,0,.17v0s0,0,.08,0l.56-.18Z" transform="translate(-471.05 -467.7)"/><path class="cls-9" d="M550.52,530.82l1.19-.4.23-.08c.08,0,.07,0,.07-.05a1,1,0,0,0-.07-.17s0,0,0,0l-.1,0c-.1,0-.36.11-.49.15l-1.82.61-.12,0c-.09,0-.11.06-.11.07a.94.94,0,0,1,0,.16l0,0s0,0,.07,0L550,531Z" transform="translate(-471.05 -467.7)"/><path class="cls-9" d="M550.7,531.35l1.18-.4.23-.08c.09,0,.08,0,.08,0s0-.09-.07-.17,0,0,0,0l-.1,0c-.1,0-.36.11-.49.15l-1.82.62-.12,0c-.09,0-.12.06-.11.07a.94.94,0,0,1,0,.16l0,.05s0,0,.07,0l.56-.18Z" transform="translate(-471.05 -467.7)"/><path class="cls-20" d="M511.59,528.66c1.05,0,2.31,0,2.85.94a2.88,2.88,0,0,1,.31,1.12c.24,1.66.47,3.31.56,5,.11,2.1,0,4.21.1,6.31.23,4.69,1.58,9.24,2.71,13.79a11,11,0,0,1,.47,4.24,1.47,1.47,0,0,1-.21.65,1.8,1.8,0,0,1-.65.51,28.67,28.67,0,0,1-17.37,3.33,4.1,4.1,0,0,1-2.05-.68,4.05,4.05,0,0,1-1.2-2.12,28.31,28.31,0,0,1-.4-12.82,84.66,84.66,0,0,1,3.53-12.44l2.43-7.14c.81-2.38,1.49-2.45,3.57-1.47A11.62,11.62,0,0,0,511.59,528.66Z" transform="translate(-471.05 -467.7)"/><path class="cls-13" d="M506.13,525.45a7.86,7.86,0,0,0,2.79,1.9,5.18,5.18,0,0,0,2.65.72c1.6-.16,2.63-1.73,3.42-3.13,1.19-2.11,2.4-4.33,2.43-6.75a7.22,7.22,0,0,0-8.94-7.1c-2.56.62-5.53,2.42-4.89,5.39.29,1.34.78,2.61,1,4C504.9,522.12,505,524.07,506.13,525.45Z" transform="translate(-471.05 -467.7)"/><path class="cls-16" d="M541.86,532.54a58.89,58.89,0,0,0-20.24,7.56A39.15,39.15,0,0,0,513.4,547c-2.58,2.88-3.67,5.76-5.61,9.07-3.9,6.66-7.27,12.82-13.5,18.48-6,5.48-13.91,8.92-21.82,10.51a1.68,1.68,0,1,0,.75,3.26c15.41-2.93,27.55-14.09,36-26.8,2.18-3.28,3.88-6.86,6.12-10.1a32.55,32.55,0,0,1,7.4-7.6,48.42,48.42,0,0,1,20-8.24C545.74,535,544.91,532,541.86,532.54Z" transform="translate(-471.05 -467.7)"/><path class="cls-5" d="M549,533.78a16.59,16.59,0,0,0-.95-2.57c-.19-.68-.23-1.53-.85-1.86a1.94,1.94,0,0,0-1.49.09c-.79.27-1.58.51-2.38.72-3.08.82-6.26,1.27-9.25,2.38l.23.66a19.9,19.9,0,0,0-2,.63l.1.29c-.26.09-.51.19-.76.3-.53.23-1.09.59-1.17,1.15a1.91,1.91,0,0,0,.2,1c.41,1,.65,2.91,2,2.32l1.16-.5.09.27a.29.29,0,0,0,.1.16.26.26,0,0,0,.21,0,13,13,0,0,0,1.83-.48l.09.26a.42.42,0,0,0,.13.21.36.36,0,0,0,.25,0,59.21,59.21,0,0,0,6.7-2.13,44.7,44.7,0,0,0,5-1.62,1.4,1.4,0,0,0,.54-.35A1.21,1.21,0,0,0,549,533.78Z" transform="translate(-471.05 -467.7)"/><path class="cls-21" d="M536.64,535.06a.8.8,0,0,0,.45-.45,1,1,0,0,0,0-.58,8.71,8.71,0,0,0-.8-2,.28.28,0,0,0-.1-.14.31.31,0,0,0-.19,0,1.5,1.5,0,0,0-.64.3c-.19.15-.15.25-.05.49.28.75.57,1.49.85,2.23a.59.59,0,0,0,.11.19C536.35,535.18,536.51,535.13,536.64,535.06Z" transform="translate(-471.05 -467.7)"/><path class="cls-21" d="M537.83,534.51a.23.23,0,0,0,0,.1.21.21,0,0,0,.19,0,1.26,1.26,0,0,0,.48-.17.59.59,0,0,0,.27-.44,1.08,1.08,0,0,0-.1-.43l-.77-1.94a.48.48,0,0,0-.17-.26c-.17-.1-.62.1-.76.24s0,.53.08.77C537.34,533.12,537.58,533.82,537.83,534.51Z" transform="translate(-471.05 -467.7)"/><path class="cls-21" d="M539.67,533.94a.23.23,0,0,0,.05.1.21.21,0,0,0,.19,0,1.24,1.24,0,0,0,.5-.13.59.59,0,0,0,.3-.42.9.9,0,0,0-.08-.42l-.7-1.92a.45.45,0,0,0-.17-.25c-.17-.11-.64.06-.79.19s0,.52,0,.75C539.23,532.57,539.45,533.26,539.67,533.94Z" transform="translate(-471.05 -467.7)"/><path class="cls-21" d="M541.34,533.36a.3.3,0,0,0,0,.1.2.2,0,0,0,.17,0,1,1,0,0,0,.46-.12.53.53,0,0,0,.27-.39.83.83,0,0,0-.07-.38l-.64-1.77a.43.43,0,0,0-.15-.24c-.16-.1-.59.06-.72.18s0,.48,0,.69C540.94,532.1,541.13,532.73,541.34,533.36Z" transform="translate(-471.05 -467.7)"/><path class="cls-21" d="M537.48,535.64a.52.52,0,0,0-.15-.27c-.18-.12-.65.07-.8.2s0,.56.05.81c.21.73.42,1.46.64,2.19a.37.37,0,0,0,0,.11.21.21,0,0,0,.19,0,1.2,1.2,0,0,0,.49-.14.6.6,0,0,0,.3-.45,1,1,0,0,0-.08-.44Z" transform="translate(-471.05 -467.7)"/><path class="cls-21" d="M539.2,535.15a.48.48,0,0,0-.17-.26c-.18-.12-.66.06-.81.19s0,.54,0,.78c.22.71.44,1.41.67,2.12a.16.16,0,0,0,0,.1.21.21,0,0,0,.19,0,1.17,1.17,0,0,0,.51-.13.61.61,0,0,0,.3-.44.94.94,0,0,0-.08-.43C539.67,536.47,539.43,535.81,539.2,535.15Z" transform="translate(-471.05 -467.7)"/><path class="cls-21" d="M541,534.51a.52.52,0,0,0-.17-.26c-.18-.11-.68.07-.83.2s0,.53,0,.77l.68,2.12a.53.53,0,0,0,.06.1.21.21,0,0,0,.19,0,1.34,1.34,0,0,0,.52-.14.6.6,0,0,0,.32-.43,1,1,0,0,0-.09-.42Z" transform="translate(-471.05 -467.7)"/><path class="cls-21" d="M543.53,535.85l-.76-1.86a.42.42,0,0,0-.18-.25c-.18-.11-.69.06-.85.18s0,.5.06.73c.24.67.47,1.34.71,2l0,.1c.05,0,.14,0,.21,0a1.59,1.59,0,0,0,.53-.13.56.56,0,0,0,.32-.41A.83.83,0,0,0,543.53,535.85Z" transform="translate(-471.05 -467.7)"/><g class="cls-22"><path class="cls-23" d="M556.53,531.72c-.47-1.59-1-3.67-1.67-5.2a13.45,13.45,0,0,0-2.87.54l-3.87,1c-1,.25-3.86.74-4.17,1.9-.16.61.49,1.88.67,2.48.28.95.57,1.9.85,2.85a1.15,1.15,0,0,0,.49.77,1,1,0,0,0,.75,0,86.32,86.32,0,0,0,9.21-2.76,1,1,0,0,0,.61-1.57Z" transform="translate(-471.05 -467.7)"/><path class="cls-23" d="M545.08,528.22a.73.73,0,0,1,.21-.22,21.5,21.5,0,0,1,4.49-3,.37.37,0,0,1,.18,0,.39.39,0,0,1,.11.06c.18.14.11.29.28.44s.12.12.09.18-.05.06-.08.08c-1.34.83-2.46,1.59-3.86,2.32a.25.25,0,0,0-.14.11.47.47,0,0,0,0,.17l.08.52a.22.22,0,0,1,0,.14.2.2,0,0,1-.13.06c-.22,0-.82.24-.95.07S545,528.38,545.08,528.22Z" transform="translate(-471.05 -467.7)"/></g><path class="cls-13" d="M514.36,555.31a2.38,2.38,0,0,0-1.23-1.69c.23-.07.52-.23.46-.46s-.2-.21-.34-.27a4.66,4.66,0,0,1-1.57-1l-.13-.12h0a69.59,69.59,0,0,1-6.89-9.62,14.33,14.33,0,0,0,1.94-3.18l2.4-4.83a2.9,2.9,0,0,0,.45-2c-.31-1.17-2-1.45-3-.78a5.72,5.72,0,0,0-1.93,3l-3.36,8.91a1.65,1.65,0,0,0-.15,1.06,1.71,1.71,0,0,0,.5.69c2.79,2.68,4.48,5,7.27,7.69.09-.35.44.75.44.74a6.91,6.91,0,0,0,3.88,3.1,3.51,3.51,0,0,0,1-.3C514.2,556.15,514.29,555.46,514.36,555.31Z" transform="translate(-471.05 -467.7)"/><path class="cls-19" d="M512,549.56c0-.69-1.22-1-1-1.68l-1.55,1-2.58-5.11a4.56,4.56,0,0,1-.48-1.29,4.11,4.11,0,0,1,.51-2.23,55.56,55.56,0,0,1,3.5-6.66c.42-.69,1.16-1.64.81-2.49a4.17,4.17,0,0,0-2-1.71,3,3,0,0,0-2.42,0,5.05,5.05,0,0,0-2,2.52c-1.25,2.56-2.5,5.12-3.6,7.75a14.89,14.89,0,0,0-1.28,4.46,3,3,0,0,0,.23,1.69,3.64,3.64,0,0,0,.81.94l5.47,5.09a.44.44,0,0,1,.17.28c0,.13-.14.22-.22.33a.69.69,0,0,0,.06.82,2.08,2.08,0,0,0,.72.52,36.26,36.26,0,0,1,4.28-3.32C511.62,550.2,512,549.93,512,549.56Z" transform="translate(-471.05 -467.7)"/><path class="cls-24" d="M516.69,514.88c-.62.08-3.11.25-3.73.22s-1.37,0-1.62.55a2.44,2.44,0,0,1-.14.34c-.24.37-.8.2-1.25.25a1.58,1.58,0,0,0-1.23,1.16,5.38,5.38,0,0,0-.12,1.79,3.62,3.62,0,0,1-.29,1.76,1,1,0,0,0-1.21-.25.76.76,0,0,0-.23,1.13c.14.14.33.21.48.34.43.37.33,1.05.28,1.62a5.36,5.36,0,0,0,.87,3.38c-.81,0-1.3-1.08-2.12-1.09a1.83,1.83,0,0,1-.66,0,.78.78,0,0,1-.31-.29,13.77,13.77,0,0,0-1.36-2.13c-.49-.46-1.18-.69-1.63-1.19-.62-.71-.64-1.77-1.12-2.58-.38-.62-1-1-1.37-1.68a3.42,3.42,0,0,1-.3-2.21,7,7,0,0,1,.73-2.28,13.94,13.94,0,0,1,2.26-2.88,10.37,10.37,0,0,1,1.84-1.67,5.69,5.69,0,0,1,2.94-.89,10.86,10.86,0,0,1,3.28.56c1.44.43,4.72.8,6.11,1.38a5.19,5.19,0,0,1,1.82,1.1C520.23,513,518.49,514.67,516.69,514.88Z" transform="translate(-471.05 -467.7)"/><path class="cls-16" d="M670.53,569.6c-4-.18-7.73-.32-9.41-4.16a19.61,19.61,0,0,1-.8-11.82c.92-4.4,2.21-8.86,1.65-13.4-.47-3.84-2.11-7.59-5.47-9.74-3.54-2.27-8.15-2.22-12.11-1.31a24.19,24.19,0,0,0-10.51,5.52,23.39,23.39,0,0,0-4,4.64,34,34,0,0,1-3.49,5.2,5.23,5.23,0,0,1-5.07,1.7,14.23,14.23,0,0,1-5.53-2.11c-4.18-3-1.42-9.32-1.85-13.5a11.13,11.13,0,0,0-2.8-6.4c-1.4-1.55-3.68-2.31-4.82-4.07s-4.11-.12-2.92,1.71,2.86,2.59,4.43,3.86a7.55,7.55,0,0,1,2.75,4.92c.58,4.6-1.71,9.34.86,13.66a9.67,9.67,0,0,0,4.58,3.79,18.28,18.28,0,0,0,6.31,1.67c4.89.22,7.6-4,9.81-7.64a21.08,21.08,0,0,1,8.63-8.19c3.43-1.74,7.75-2.73,11.54-1.78,3.95,1,6,4.42,6.54,8.28.61,4.56-.88,9.1-1.62,13.56s-.92,9.57,1.69,13.56,7,5.48,11.57,5C671.21,572.5,671.23,569.63,670.53,569.6Z" transform="translate(-471.05 -467.7)"/><path class="cls-5" d="M596.18,509.06a52.4,52.4,0,0,0-3.82-4.07.65.65,0,0,0-.32-.19.44.44,0,0,0-.22.05,1.57,1.57,0,0,0-.41.28c-.6.53-1.2,1.05-1.75,1.63a1,1,0,0,0-.23.31.69.69,0,0,0,.07.54,1.89,1.89,0,0,0,.35.44l2.69,2.73a14.15,14.15,0,0,0,1.39,1.29.29.29,0,0,0,.12.07.25.25,0,0,0,.12,0,2.08,2.08,0,0,0,.65-.36q.63-.45,1.23-.93a2.84,2.84,0,0,0,.52-.52c.11-.16.29-.5.19-.7s-.2-.15-.27-.22A3.39,3.39,0,0,1,596.18,509.06Z" transform="translate(-471.05 -467.7)"/><path class="cls-9" d="M590.89,508.12l-.83-.83s-.13-.13-.16-.16-.07-.05-.08,0l-.11.12s0,0,0,.05l.05.08.34.35,1.27,1.28.09.09c.07.06.11.07.11.06s.08-.06.12-.1l0,0s0,0,0-.07l-.39-.4Z" transform="translate(-471.05 -467.7)"/><path class="cls-9" d="M591.26,507.75l-.82-.83-.17-.16c-.06-.06-.07-.05-.07,0l-.12.12s0,0,0,.05a.15.15,0,0,0,.05.08l.34.35,1.27,1.28.09.09c.07.06.1.07.11.06a.58.58,0,0,1,.12-.1l0,0s0,0,0-.07l-.39-.4Z" transform="translate(-471.05 -467.7)"/><path class="cls-9" d="M591.63,507.39l-.83-.84-.16-.16c-.07-.06-.07,0-.08,0s-.06.06-.11.13,0,0,0,0l.06.08.33.34,1.28,1.29.09.09c.06.06.1.06.1.06s.08-.06.12-.11l0,0s0,0,0-.07-.31-.32-.39-.39Z" transform="translate(-471.05 -467.7)"/><path class="cls-9" d="M592,507l-.83-.84L591,506c-.06-.06-.07,0-.07,0s-.06.06-.11.13-.05,0,0,.05,0,0,.05.07.25.26.34.35l1.27,1.29.09.08c.07.07.1.07.11.07s.08-.06.12-.11l0,0s0,0,0-.07l-.39-.4Z" transform="translate(-471.05 -467.7)"/><path class="cls-5" d="M594.76,507.41c-.74.46-1.14,1.31-1.79,1.88-.49.44-1.2.83-1.22,1.49a1.86,1.86,0,0,0,.7,1.23c.56.55,1.09,1.12,1.61,1.71,2,2.26,3.68,4.77,5.86,6.84l.46-.46c.44.5.89,1,1.38,1.45l.21-.21a7,7,0,0,0,.57.52,1.64,1.64,0,0,0,1.46.51,1.73,1.73,0,0,0,.72-.57c.69-.76,2.2-1.76,1.13-2.69l-.91-.77.19-.19a.24.24,0,0,0,.09-.15.24.24,0,0,0-.07-.18,15.1,15.1,0,0,0-1.17-1.35l.18-.18a.41.41,0,0,0,.12-.2.33.33,0,0,0-.09-.22,56,56,0,0,0-4.6-4.78,41.3,41.3,0,0,0-3.45-3.55,1.35,1.35,0,0,0-.51-.31A1.13,1.13,0,0,0,594.76,507.41Z" transform="translate(-471.05 -467.7)"/><path class="cls-21" d="M601,517.38a.81.81,0,0,0-.58-.2,1,1,0,0,0-.47.27,8.51,8.51,0,0,0-1.37,1.51.37.37,0,0,0-.07.14.27.27,0,0,0,.06.17,1.53,1.53,0,0,0,.52.42c.21.1.27,0,.44-.16l1.53-1.65a.48.48,0,0,0,.12-.17C601.22,517.57,601.11,517.46,601,517.38Z" transform="translate(-471.05 -467.7)"/><path class="cls-21" d="M600,516.6a.28.28,0,0,0,.07-.09c0-.06,0-.12-.05-.17a1.1,1.1,0,0,0-.34-.34.56.56,0,0,0-.49,0,.9.9,0,0,0-.32.26l-1.32,1.46a.47.47,0,0,0-.15.25c0,.19.34.49.52.55s.45-.22.62-.39C599.07,517.59,599.56,517.1,600,516.6Z" transform="translate(-471.05 -467.7)"/><path class="cls-21" d="M598.8,515.28s.05,0,.06-.09a.21.21,0,0,0-.05-.18,1.1,1.1,0,0,0-.32-.36.54.54,0,0,0-.48-.08.82.82,0,0,0-.32.24l-1.33,1.4a.41.41,0,0,0-.15.24c0,.19.33.52.5.6s.45-.2.61-.36Z" transform="translate(-471.05 -467.7)"/><path class="cls-21" d="M597.61,514.11a.16.16,0,0,0,.06-.08.2.2,0,0,0,0-.16,1,1,0,0,0-.29-.33.47.47,0,0,0-.44-.07.81.81,0,0,0-.3.22L595.37,515a.4.4,0,0,0-.14.22c0,.18.3.47.45.54s.42-.18.57-.33Z" transform="translate(-471.05 -467.7)"/><path class="cls-21" d="M601.14,516.42a.45.45,0,0,0-.16.25c0,.19.33.51.5.58s.48-.2.67-.37l1.58-1.46s.06,0,.07-.08a.17.17,0,0,0,0-.18,1,1,0,0,0-.33-.36.58.58,0,0,0-.5-.07.94.94,0,0,0-.34.25Z" transform="translate(-471.05 -467.7)"/><path class="cls-21" d="M600,515.18a.45.45,0,0,0-.15.24c0,.2.33.53.5.61s.47-.2.64-.37l1.52-1.44.07-.09a.24.24,0,0,0-.05-.18,1.17,1.17,0,0,0-.33-.37.54.54,0,0,0-.49-.08.9.9,0,0,0-.33.25Z" transform="translate(-471.05 -467.7)"/><path class="cls-21" d="M598.73,513.92a.39.39,0,0,0-.15.25c0,.2.33.54.51.62s.46-.2.63-.37l1.51-1.46a.24.24,0,0,0,.06-.08.22.22,0,0,0,0-.19,1.33,1.33,0,0,0-.33-.38.54.54,0,0,0-.49-.09,1,1,0,0,0-.33.25Z" transform="translate(-471.05 -467.7)"/><path class="cls-21" d="M598.8,511.21l-1.26,1.42a.47.47,0,0,0-.13.25c0,.21.34.57.5.65s.44-.19.6-.35l1.4-1.43a.41.41,0,0,0,.05-.09.23.23,0,0,0-.05-.19,1.41,1.41,0,0,0-.33-.4.5.5,0,0,0-.47-.1A.81.81,0,0,0,598.8,511.21Z" transform="translate(-471.05 -467.7)"/><g class="cls-22"><path class="cls-23" d="M589.89,501.93c-1.15,1.06-2.67,2.41-3.7,3.58a13.1,13.1,0,0,0,1.65,2.21c.83.94,1.66,1.89,2.48,2.84.62.71,2.23,3,3.35,2.74.58-.11,1.38-1.2,1.81-1.6l2.06-1.9a1.06,1.06,0,0,0,.45-.75,1,1,0,0,0-.34-.61,80.94,80.94,0,0,0-6.17-6.65,1,1,0,0,0-1.59.14Z" transform="translate(-471.05 -467.7)"/><path class="cls-23" d="M591.7,513.08a.9.9,0,0,1-.28-.08,20.66,20.66,0,0,1-4.38-2.56.32.32,0,0,1-.12-.14.25.25,0,0,1,0-.12c0-.21.2-.21.25-.42s.05-.15.12-.15a.12.12,0,0,1,.1,0c1.26.79,2.37,1.42,3.57,2.31a.35.35,0,0,0,.15.07.34.34,0,0,0,.15-.07l.41-.28s.08-.05.12,0a.19.19,0,0,1,.11.09c.12.17.54.59.46.77S591.88,513.09,591.7,513.08Z" transform="translate(-471.05 -467.7)"/></g><path class="cls-3" d="M620.56,501.87a2.66,2.66,0,0,1,2,1.41,3.44,3.44,0,0,1,.09,1.66c-.42,3.83-.84,7.67-1.53,11.46a5.66,5.66,0,0,1-.62,1.94,5.8,5.8,0,0,1-1.69,1.58l-3.11,2.2a38.18,38.18,0,0,1-4,2.22l-.23.1a7.37,7.37,0,0,1-.87.63l-1,.76a2,2,0,0,1-.82.44,1.1,1.1,0,0,1-1.14-.65,1.32,1.32,0,0,1,.21-1.33c.14-.17.33-.35.3-.57a.86.86,0,0,1,0-.17c0-.13.13-.22.25-.29a9.07,9.07,0,0,1,1.86-.82l.09,0a3.43,3.43,0,0,1,.29-.2c1-.7,2.94-2.43,4-3.13a5.76,5.76,0,0,0,2.48-2.6,6,6,0,0,0,.14-2.31,69.52,69.52,0,0,1,0-8.54,7.22,7.22,0,0,1,.38-2.17,2.57,2.57,0,0,1,1.46-1.55A2.86,2.86,0,0,1,620.56,501.87Z" transform="translate(-471.05 -467.7)"/><path class="cls-4" d="M613.65,523.37a.31.31,0,0,0,.16.16.25.25,0,0,0,.2-.06l3.52-2.18c1.54-1,3.18-2,3.84-3.72a8.82,8.82,0,0,0,.44-2.61,72.65,72.65,0,0,1,.87-7.5,15.34,15.34,0,0,0,.34-2.7,12.11,12.11,0,0,0-.26-2.31,2,2,0,0,0-.23-.68,1.57,1.57,0,0,0-.75-.53,5.34,5.34,0,0,0-3.11-.28,2.61,2.61,0,0,0-1.14.5c-.83.71-.76,2-.71,3.09a18.59,18.59,0,0,1-.22,3.87,15.75,15.75,0,0,0-.33,2.64c0,.72.18,1.43.27,2.15a12.73,12.73,0,0,1,.08,2.76,2.27,2.27,0,0,1-.17.82,2.58,2.58,0,0,1-.75.83,28.64,28.64,0,0,0-3.17,2.62c-.53.59-.27.71.14,1.41Z" transform="translate(-471.05 -467.7)"/></g></svg>