<svg xmlns="http://www.w3.org/2000/svg" xmlns:xlink="http://www.w3.org/1999/xlink" viewBox="0 0 200 127.36"><defs><style>.cls-1{isolation:isolate;}.cls-10,.cls-100,.cls-101,.cls-105,.cls-11,.cls-12,.cls-126,.cls-127,.cls-128,.cls-129,.cls-130,.cls-131,.cls-132,.cls-133,.cls-134,.cls-135,.cls-136,.cls-137,.cls-139,.cls-141,.cls-142,.cls-143,.cls-144,.cls-145,.cls-146,.cls-147,.cls-148,.cls-149,.cls-15,.cls-150,.cls-152,.cls-155,.cls-157,.cls-159,.cls-16,.cls-161,.cls-163,.cls-164,.cls-17,.cls-18,.cls-19,.cls-2,.cls-20,.cls-21,.cls-22,.cls-23,.cls-24,.cls-3,.cls-4,.cls-45,.cls-49,.cls-5,.cls-50,.cls-51,.cls-52,.cls-53,.cls-55,.cls-56,.cls-57,.cls-60,.cls-61,.cls-64,.cls-65,.cls-66,.cls-67,.cls-68,.cls-69,.cls-72,.cls-73,.cls-74,.cls-75,.cls-76,.cls-77,.cls-78,.cls-79,.cls-80,.cls-81,.cls-87,.cls-88,.cls-89,.cls-9,.cls-91,.cls-92,.cls-93,.cls-94,.cls-95,.cls-96,.cls-97,.cls-98,.cls-99{fill-rule:evenodd;}.cls-2{fill:url(#Áåçûìÿííûé_ãðàäèåíò_75);}.cls-3{fill:url(#Áåçûìÿííûé_ãðàäèåíò_262);}.cls-4{fill:url(#Áåçûìÿííûé_ãðàäèåíò_20);}.cls-104,.cls-112,.cls-14,.cls-5,.cls-62{opacity:0.5;}.cls-5{fill:url(#Áåçûìÿííûé_ãðàäèåíò_20-2);}.cls-102,.cls-103,.cls-104,.cls-14,.cls-46,.cls-47,.cls-48,.cls-6,.cls-62,.cls-70,.cls-71,.cls-82,.cls-83,.cls-84,.cls-85,.cls-87{mix-blend-mode:soft-light;}.cls-7{fill:#edeef7;}.cls-105,.cls-126,.cls-140,.cls-22,.cls-59,.cls-63,.cls-8,.cls-86,.cls-90{mix-blend-mode:multiply;}.cls-8{fill:url(#Áåçûìÿííûé_ãðàäèåíò_52);}.cls-127,.cls-139,.cls-49,.cls-50,.cls-60,.cls-61,.cls-88,.cls-89,.cls-9{mix-blend-mode:screen;}.cls-9{fill:url(#Áåçûìÿííûé_ãðàäèåíò_22);}.cls-10{fill:url(#Áåçûìÿííûé_ãðàäèåíò_18);}.cls-11{fill:url(#Áåçûìÿííûé_ãðàäèåíò_262-2);}.cls-12{fill:url(#Áåçûìÿííûé_ãðàäèåíò_10);}.cls-13{fill:url(#Áåçûìÿííûé_ãðàäèåíò_11);}.cls-14{fill:url(#Áåçûìÿííûé_ãðàäèåíò_215);}.cls-15{fill:url(#Áåçûìÿííûé_ãðàäèåíò_350);}.cls-16{fill:url(#Áåçûìÿííûé_ãðàäèåíò_33);}.cls-17{fill:url(#Áåçûìÿííûé_ãðàäèåíò_273);}.cls-18{fill:url(#Áåçûìÿííûé_ãðàäèåíò_313);}.cls-19{fill:url(#Áåçûìÿííûé_ãðàäèåíò_262-3);}.cls-20{fill:url(#Áåçûìÿííûé_ãðàäèåíò_262-4);}.cls-21{fill:url(#Áåçûìÿííûé_ãðàäèåíò_264);}.cls-22{fill:url(#Áåçûìÿííûé_ãðàäèåíò_12);}.cls-23{fill:url(#Áåçûìÿííûé_ãðàäèåíò_262-5);}.cls-24{fill:url(#Áåçûìÿííûé_ãðàäèåíò_264-2);}.cls-25{fill:url(#Áåçûìÿííûé_ãðàäèåíò_347);}.cls-26{fill:url(#Áåçûìÿííûé_ãðàäèåíò_347-2);}.cls-27{fill:url(#Áåçûìÿííûé_ãðàäèåíò_347-3);}.cls-28{fill:url(#Áåçûìÿííûé_ãðàäèåíò_347-4);}.cls-29{fill:url(#Áåçûìÿííûé_ãðàäèåíò_347-5);}.cls-30{fill:url(#Áåçûìÿííûé_ãðàäèåíò_347-6);}.cls-31{fill:url(#Áåçûìÿííûé_ãðàäèåíò_347-7);}.cls-32{fill:url(#Áåçûìÿííûé_ãðàäèåíò_347-8);}.cls-33{fill:url(#Áåçûìÿííûé_ãðàäèåíò_347-9);}.cls-34{fill:url(#Áåçûìÿííûé_ãðàäèåíò_347-10);}.cls-35{fill:url(#Áåçûìÿííûé_ãðàäèåíò_347-11);}.cls-36{fill:url(#Áåçûìÿííûé_ãðàäèåíò_347-12);}.cls-37{fill:url(#Áåçûìÿííûé_ãðàäèåíò_347-13);}.cls-38{fill:url(#Áåçûìÿííûé_ãðàäèåíò_347-14);}.cls-39{fill:url(#Áåçûìÿííûé_ãðàäèåíò_347-15);}.cls-40{fill:url(#Áåçûìÿííûé_ãðàäèåíò_347-16);}.cls-41{fill:url(#Áåçûìÿííûé_ãðàäèåíò_347-17);}.cls-42{fill:url(#Áåçûìÿííûé_ãðàäèåíò_347-18);}.cls-43{fill:url(#Áåçûìÿííûé_ãðàäèåíò_347-19);}.cls-44{fill:#ffb893;}.cls-45{fill:url(#Áåçûìÿííûé_ãðàäèåíò_41);}.cls-46{fill:url(#Áåçûìÿííûé_ãðàäèåíò_215-2);}.cls-47{fill:url(#Áåçûìÿííûé_ãðàäèåíò_215-3);}.cls-48{fill:url(#Áåçûìÿííûé_ãðàäèåíò_215-4);}.cls-49{fill:url(#Áåçûìÿííûé_ãðàäèåíò_259);}.cls-50{fill:url(#Áåçûìÿííûé_ãðàäèåíò_31);}.cls-51{fill:url(#Áåçûìÿííûé_ãðàäèåíò_54);}.cls-52{fill:url(#Áåçûìÿííûé_ãðàäèåíò_262-6);}.cls-53{fill:url(#Áåçûìÿííûé_ãðàäèåíò_10-2);}.cls-54{fill:url(#Áåçûìÿííûé_ãðàäèåíò_10-3);}.cls-55{fill:url(#Áåçûìÿííûé_ãðàäèåíò_56);}.cls-56{fill:url(#Áåçûìÿííûé_ãðàäèåíò_262-7);}.cls-57{fill:url(#Áåçûìÿííûé_ãðàäèåíò_10-4);}.cls-58{fill:url(#Áåçûìÿííûé_ãðàäèåíò_11-2);}.cls-59{fill:url(#Áåçûìÿííûé_ãðàäèåíò_52-2);}.cls-60{fill:url(#Áåçûìÿííûé_ãðàäèåíò_259-2);}.cls-61{fill:url(#Áåçûìÿííûé_ãðàäèåíò_259-3);}.cls-62{fill:url(#Áåçûìÿííûé_ãðàäèåíò_215-5);}.cls-63{fill:#7cc4fb;}.cls-64{fill:url(#Áåçûìÿííûé_ãðàäèåíò_185);}.cls-65{fill:url(#Áåçûìÿííûé_ãðàäèåíò_97);}.cls-66{fill:url(#Áåçûìÿííûé_ãðàäèåíò_207);}.cls-67{fill:url(#Áåçûìÿííûé_ãðàäèåíò_187);}.cls-68{fill:url(#Áåçûìÿííûé_ãðàäèåíò_97-2);}.cls-69{fill:url(#Áåçûìÿííûé_ãðàäèåíò_97-3);}.cls-70,.cls-71{opacity:0.8;}.cls-70{fill:url(#Áåçûìÿííûé_ãðàäèåíò_189);}.cls-71{fill:url(#Áåçûìÿííûé_ãðàäèåíò_107);}.cls-72{fill:url(#Áåçûìÿííûé_ãðàäèåíò_33-2);}.cls-73{fill:url(#Áåçûìÿííûé_ãðàäèåíò_350-2);}.cls-74{fill:url(#Áåçûìÿííûé_ãðàäèåíò_33-3);}.cls-75{fill:url(#Áåçûìÿííûé_ãðàäèåíò_262-8);}.cls-76{fill:url(#Áåçûìÿííûé_ãðàäèåíò_54-2);}.cls-77{fill:url(#Áåçûìÿííûé_ãðàäèåíò_350-3);}.cls-78{fill:url(#Áåçûìÿííûé_ãðàäèåíò_33-4);}.cls-79{fill:url(#Áåçûìÿííûé_ãðàäèåíò_155);}.cls-80{fill:url(#Áåçûìÿííûé_ãðàäèåíò_155-2);}.cls-81{fill:url(#Áåçûìÿííûé_ãðàäèåíò_155-3);}.cls-82{fill:url(#Áåçûìÿííûé_ãðàäèåíò_215-6);}.cls-83{fill:url(#Áåçûìÿííûé_ãðàäèåíò_215-7);}.cls-84{fill:url(#Áåçûìÿííûé_ãðàäèåíò_215-8);}.cls-85{fill:url(#Áåçûìÿííûé_ãðàäèåíò_215-9);}.cls-86{fill:url(#Áåçûìÿííûé_ãðàäèåíò_52-3);}.cls-87{fill:#f1b0b4;}.cls-88{fill:url(#Áåçûìÿííûé_ãðàäèåíò_259-4);}.cls-89{fill:url(#Áåçûìÿííûé_ãðàäèåíò_359);}.cls-90{fill:#84709f;}.cls-91{fill:url(#Áåçûìÿííûé_ãðàäèåíò_350-4);}.cls-92{fill:url(#Áåçûìÿííûé_ãðàäèåíò_33-5);}.cls-93{fill:url(#Áåçûìÿííûé_ãðàäèåíò_350-5);}.cls-94{fill:url(#Áåçûìÿííûé_ãðàäèåíò_33-6);}.cls-95{fill:url(#Áåçûìÿííûé_ãðàäèåíò_54-3);}.cls-96{fill:url(#Áåçûìÿííûé_ãðàäèåíò_13);}.cls-97{fill:url(#Áåçûìÿííûé_ãðàäèåíò_350-6);}.cls-98{fill:url(#Áåçûìÿííûé_ãðàäèåíò_33-7);}.cls-99{fill:url(#Áåçûìÿííûé_ãðàäèåíò_262-9);}.cls-100{fill:url(#Áåçûìÿííûé_ãðàäèåíò_350-7);}.cls-101{fill:url(#Áåçûìÿííûé_ãðàäèåíò_33-8);}.cls-102{fill:url(#Áåçûìÿííûé_ãðàäèåíò_215-10);}.cls-103{fill:url(#Áåçûìÿííûé_ãðàäèåíò_215-11);}.cls-104{fill:url(#Áåçûìÿííûé_ãðàäèåíò_215-12);}.cls-105{fill:#896165;opacity:0.2;}.cls-106{fill:url(#Áåçûìÿííûé_ãðàäèåíò_33-9);}.cls-107{fill:url(#Áåçûìÿííûé_ãðàäèåíò_33-10);}.cls-108{fill:url(#Áåçûìÿííûé_ãðàäèåíò_33-11);}.cls-109{fill:url(#Áåçûìÿííûé_ãðàäèåíò_33-12);}.cls-110{fill:url(#Áåçûìÿííûé_ãðàäèåíò_33-13);}.cls-111{fill:url(#Áåçûìÿííûé_ãðàäèåíò_33-14);}.cls-113{fill:url(#Áåçûìÿííûé_ãðàäèåíò_33-15);}.cls-114{fill:url(#Áåçûìÿííûé_ãðàäèåíò_33-16);}.cls-115{fill:url(#Áåçûìÿííûé_ãðàäèåíò_33-17);}.cls-116{fill:url(#Áåçûìÿííûé_ãðàäèåíò_33-18);}.cls-117{fill:url(#Áåçûìÿííûé_ãðàäèåíò_33-19);}.cls-118{fill:url(#Áåçûìÿííûé_ãðàäèåíò_33-20);}.cls-119{fill:url(#Áåçûìÿííûé_ãðàäèåíò_33-21);}.cls-120{fill:url(#Áåçûìÿííûé_ãðàäèåíò_33-22);}.cls-121{fill:url(#Áåçûìÿííûé_ãðàäèåíò_33-23);}.cls-122{fill:url(#Áåçûìÿííûé_ãðàäèåíò_33-24);}.cls-123{fill:url(#Áåçûìÿííûé_ãðàäèåíò_33-25);}.cls-124{fill:url(#Áåçûìÿííûé_ãðàäèåíò_33-26);}.cls-125{fill:url(#Áåçûìÿííûé_ãðàäèåíò_33-27);}.cls-126{fill:#efacd2;}.cls-127{fill:url(#Áåçûìÿííûé_ãðàäèåíò_259-5);}.cls-128{fill:url(#Áåçûìÿííûé_ãðàäèåíò_75-2);}.cls-129{fill:url(#Áåçûìÿííûé_ãðàäèåíò_20-3);}.cls-130{fill:url(#Áåçûìÿííûé_ãðàäèåíò_264-3);}.cls-131{fill:url(#Áåçûìÿííûé_ãðàäèåíò_262-10);}.cls-132{fill:url(#Áåçûìÿííûé_ãðàäèåíò_75-3);}.cls-133{fill:url(#Áåçûìÿííûé_ãðàäèåíò_20-4);}.cls-134{fill:url(#Áåçûìÿííûé_ãðàäèåíò_15);}.cls-135{fill:url(#Áåçûìÿííûé_ãðàäèåíò_14);}.cls-136{fill:url(#Áåçûìÿííûé_ãðàäèåíò_75-4);}.cls-137{fill:url(#Áåçûìÿííûé_ãðàäèåíò_20-5);}.cls-138{fill:#60599c;}.cls-139{fill:url(#Áåçûìÿííûé_ãðàäèåíò_16);}.cls-140{fill:url(#Áåçûìÿííûé_ãðàäèåíò_52-4);}.cls-141{fill:url(#Áåçûìÿííûé_ãðàäèåíò_75-5);}.cls-142{fill:url(#Áåçûìÿííûé_ãðàäèåíò_20-6);}.cls-143{fill:url(#Áåçûìÿííûé_ãðàäèåíò_25);}.cls-144{fill:url(#Áåçûìÿííûé_ãðàäèåíò_25-2);}.cls-145{fill:url(#Áåçûìÿííûé_ãðàäèåíò_25-3);}.cls-146{fill:url(#Áåçûìÿííûé_ãðàäèåíò_25-4);}.cls-147{fill:url(#Áåçûìÿííûé_ãðàäèåíò_25-5);}.cls-148{fill:url(#Áåçûìÿííûé_ãðàäèåíò_262-11);}.cls-149{fill:url(#Áåçûìÿííûé_ãðàäèåíò_262-12);}.cls-150{fill:url(#Áåçûìÿííûé_ãðàäèåíò_262-13);}.cls-151{fill:#6a40a9;}.cls-152{fill:url(#Áåçûìÿííûé_ãðàäèåíò_43);}.cls-153,.cls-163{fill:#fff;}.cls-154{fill:url(#Áåçûìÿííûé_ãðàäèåíò_42);}.cls-155{fill:url(#Áåçûìÿííûé_ãðàäèåíò_43-2);}.cls-156{fill:url(#Áåçûìÿííûé_ãðàäèåíò_42-2);}.cls-157{fill:url(#Áåçûìÿííûé_ãðàäèåíò_43-3);}.cls-158{fill:url(#Áåçûìÿííûé_ãðàäèåíò_42-3);}.cls-159{fill:url(#Áåçûìÿííûé_ãðàäèåíò_43-4);}.cls-160{fill:url(#Áåçûìÿííûé_ãðàäèåíò_42-4);}.cls-161{fill:url(#Áåçûìÿííûé_ãðàäèåíò_43-5);}.cls-162{fill:url(#Áåçûìÿííûé_ãðàäèåíò_42-5);}.cls-164{fill:url(#Áåçûìÿííûé_ãðàäèåíò_43-6);}.cls-165{fill:url(#Áåçûìÿííûé_ãðàäèåíò_42-6);}</style><linearGradient id="Áåçûìÿííûé_ãðàäèåíò_75" x1="156.8" y1="126.78" x2="156.8" y2="17.49" gradientUnits="userSpaceOnUse"><stop offset="0" stop-color="#dbe5e7"/><stop offset="1" stop-color="#eef2f8"/></linearGradient><radialGradient id="Áåçûìÿííûé_ãðàäèåíò_262" cx="155.92" cy="72.52" r="37.08" gradientUnits="userSpaceOnUse"><stop offset="0" stop-color="#33b6a6"/><stop offset="1" stop-color="#00638b"/></radialGradient><linearGradient id="Áåçûìÿííûé_ãðàäèåíò_20" x1="162.56" y1="126.62" x2="160.61" y2="17.65" gradientUnits="userSpaceOnUse"><stop offset="0" stop-color="#8e98d0"/><stop offset="1" stop-color="#acb9d4"/></linearGradient><linearGradient id="Áåçûìÿííûé_ãðàäèåíò_20-2" x1="147.66" y1="126.61" x2="147.66" y2="33.46" xlink:href="#Áåçûìÿííûé_ãðàäèåíò_20"/><linearGradient id="Áåçûìÿííûé_ãðàäèåíò_52" x1="155.51" y1="73.27" x2="170.11" y2="73.27" gradientUnits="userSpaceOnUse"><stop offset="0" stop-color="#dee1f1"/><stop offset="1" stop-color="#7286e2"/></linearGradient><linearGradient id="Áåçûìÿííûé_ãðàäèåíò_22" x1="157.28" y1="126.61" x2="157.28" y2="39.59" gradientUnits="userSpaceOnUse"><stop offset="0" stop-color="#7e0298"/><stop offset="0.19" stop-color="#7b0295"/><stop offset="0.35" stop-color="#73028a"/><stop offset="0.5" stop-color="#640279"/><stop offset="0.65" stop-color="#500160"/><stop offset="0.79" stop-color="#350140"/><stop offset="0.92" stop-color="#15001a"/><stop offset="1"/></linearGradient><radialGradient id="Áåçûìÿííûé_ãðàäèåíò_18" cx="477.73" cy="231.65" r="26.9" gradientTransform="translate(-291.19 -224.48) scale(1 1.23)" gradientUnits="userSpaceOnUse"><stop offset="0" stop-color="#e5feae"/><stop offset="0.21" stop-color="#bbe6ad"/><stop offset="1" stop-color="#1888a9"/></radialGradient><radialGradient id="Áåçûìÿííûé_ãðàäèåíò_262-2" cx="473.13" cy="261.38" r="19.25" gradientTransform="translate(-291.19 -224.48) scale(1 1.23)" xlink:href="#Áåçûìÿííûé_ãðàäèåíò_262"/><linearGradient id="Áåçûìÿííûé_ãðàäèåíò_10" x1="174.78" y1="89.23" x2="199.86" y2="89.23" gradientUnits="userSpaceOnUse"><stop offset="0" stop-color="#c1e5ae"/><stop offset="1" stop-color="#1888a9"/></linearGradient><linearGradient id="Áåçûìÿííûé_ãðàäèåíò_11" x1="179.89" y1="89.22" x2="200" y2="89.22" gradientUnits="userSpaceOnUse"><stop offset="0" stop-color="#1888a9"/><stop offset="1" stop-color="#c1e5ae"/></linearGradient><linearGradient id="Áåçûìÿííûé_ãðàäèåíò_215" x1="180.23" y1="81.96" x2="196.08" y2="81.96" gradientUnits="userSpaceOnUse"><stop offset="0" stop-color="#ffc"/><stop offset="1" stop-color="#aed4b3"/></linearGradient><linearGradient id="Áåçûìÿííûé_ãðàäèåíò_350" x1="320.5" y1="257.44" x2="320.5" y2="165.01" gradientTransform="matrix(1, 0.05, -0.05, 1, -282.99, -148.85)" gradientUnits="userSpaceOnUse"><stop offset="0.03" stop-color="#ff9f72"/><stop offset="1" stop-color="#ffd895"/></linearGradient><linearGradient id="Áåçûìÿííûé_ãðàäèåíò_33" x1="330.72" y1="257.44" x2="330.72" y2="165.01" gradientTransform="matrix(1, 0.05, -0.05, 1, -282.99, -148.85)" gradientUnits="userSpaceOnUse"><stop offset="0" stop-color="#d83d39"/><stop offset="1" stop-color="#f97c36"/></linearGradient><linearGradient id="Áåçûìÿííûé_ãðàäèåíò_273" x1="333.32" y1="212.39" x2="340.57" y2="212.39" gradientTransform="matrix(1, 0.05, -0.05, 1, -282.99, -148.85)" gradientUnits="userSpaceOnUse"><stop offset="0.03" stop-color="#ff9f72"/><stop offset="1" stop-color="#ffb0ac"/></linearGradient><linearGradient id="Áåçûìÿííûé_ãðàäèåíò_313" x1="339.67" y1="257.39" x2="339.67" y2="167.34" gradientTransform="matrix(1, 0.05, -0.05, 1, -282.99, -148.85)" gradientUnits="userSpaceOnUse"><stop offset="0" stop-color="#d8489c"/><stop offset="1" stop-color="#f97c36"/></linearGradient><radialGradient id="Áåçûìÿííûé_ãðàäèåíò_262-3" cx="325.06" cy="214.16" r="29.77" gradientTransform="matrix(1, 0.05, -0.05, 1, -282.99, -148.85)" xlink:href="#Áåçûìÿííûé_ãðàäèåíò_262"/><radialGradient id="Áåçûìÿííûé_ãðàäèåíò_262-4" cx="319.69" cy="187.13" r="38.98" gradientTransform="matrix(1, 0.05, -0.05, 1, -282.99, -148.85)" xlink:href="#Áåçûìÿííûé_ãðàäèåíò_262"/><linearGradient id="Áåçûìÿííûé_ãðàäèåíò_264" x1="31.03" y1="124.6" x2="31.03" y2="39.3" gradientUnits="userSpaceOnUse"><stop offset="0" stop-color="#1888a9"/><stop offset="1" stop-color="#e5feae"/></linearGradient><radialGradient id="Áåçûìÿííûé_ãðàäèåíò_12" cx="334.08" cy="214.82" r="30.36" gradientTransform="matrix(1, 0.05, -0.05, 1, -282.99, -148.85)" gradientUnits="userSpaceOnUse"><stop offset="0" stop-color="#ffeae7"/><stop offset="1" stop-color="#84a4cc"/></radialGradient><radialGradient id="Áåçûìÿííûé_ãðàäèåíò_262-5" cx="327.05" cy="170.74" r="6.03" gradientTransform="matrix(1, 0.05, -0.05, 1, -282.99, -148.85)" xlink:href="#Áåçûìÿííûé_ãðàäèåíò_262"/><linearGradient id="Áåçûìÿííûé_ãðàäèåíò_264-2" x1="327.37" y1="171.84" x2="327.37" y2="167.94" gradientTransform="matrix(1, 0.05, -0.05, 1, -282.99, -148.85)" xlink:href="#Áåçûìÿííûé_ãðàäèåíò_264"/><linearGradient id="Áåçûìÿííûé_ãðàäèåíò_347" x1="63.23" y1="49.9" x2="41.53" y2="45.04" gradientUnits="userSpaceOnUse"><stop offset="0" stop-color="#ff709a"/><stop offset="0.62" stop-color="#7c57c1"/><stop offset="1" stop-color="#eaffe8"/></linearGradient><linearGradient id="Áåçûìÿííûé_ãðàäèåíò_347-2" x1="62.17" y1="53.5" x2="40.55" y2="48.65" xlink:href="#Áåçûìÿííûé_ãðàäèåíò_347"/><linearGradient id="Áåçûìÿííûé_ãðàäèåíò_347-3" x1="61.19" y1="56.87" x2="39.64" y2="52.04" xlink:href="#Áåçûìÿííûé_ãðàäèåíò_347"/><linearGradient id="Áåçûìÿííûé_ãðàäèåíò_347-4" x1="60.23" y1="60.12" x2="38.76" y2="55.31" xlink:href="#Áåçûìÿííûé_ãðàäèåíò_347"/><linearGradient id="Áåçûìÿííûé_ãðàäèåíò_347-5" x1="59.24" y1="63.62" x2="37.83" y2="58.82" xlink:href="#Áåçûìÿííûé_ãðàäèåíò_347"/><linearGradient id="Áåçûìÿííûé_ãðàäèåíò_347-6" x1="58.29" y1="66.87" x2="36.96" y2="62.09" xlink:href="#Áåçûìÿííûé_ãðàäèåíò_347"/><linearGradient id="Áåçûìÿííûé_ãðàäèåíò_347-7" x1="57.25" y1="70.43" x2="36.02" y2="65.67" xlink:href="#Áåçûìÿííûé_ãðàäèåíò_347"/><linearGradient id="Áåçûìÿííûé_ãðàäèåíò_347-8" x1="56.21" y1="74.05" x2="35.07" y2="69.31" xlink:href="#Áåçûìÿííûé_ãðàäèåíò_347"/><linearGradient id="Áåçûìÿííûé_ãðàäèåíò_347-9" x1="55.13" y1="77.93" x2="34.06" y2="73.21" xlink:href="#Áåçûìÿííûé_ãðàäèåíò_347"/><linearGradient id="Áåçûìÿííûé_ãðàäèåíò_347-10" x1="54.12" y1="81.48" x2="33.14" y2="76.78" xlink:href="#Áåçûìÿííûé_ãðàäèåíò_347"/><linearGradient id="Áåçûìÿííûé_ãðàäèåíò_347-11" x1="53.11" y1="85.03" x2="32.23" y2="80.35" xlink:href="#Áåçûìÿííûé_ãðàäèåíò_347"/><linearGradient id="Áåçûìÿííûé_ãðàäèåíò_347-12" x1="51.94" y1="89.24" x2="31.16" y2="84.58" xlink:href="#Áåçûìÿííûé_ãðàäèåíò_347"/><linearGradient id="Áåçûìÿííûé_ãðàäèåíò_347-13" x1="373.91" y1="225.52" x2="333.34" y2="216.43" gradientTransform="matrix(1, 0.05, -0.05, 1, -282.99, -148.85)" xlink:href="#Áåçûìÿííûé_ãðàäèåíò_347"/><linearGradient id="Áåçûìÿííûé_ãðàäèåíò_347-14" x1="371.34" y1="224.19" x2="330.73" y2="215.09" gradientTransform="matrix(1, 0.05, -0.05, 1, -282.99, -148.85)" xlink:href="#Áåçûìÿííûé_ãðàäèåíò_347"/><linearGradient id="Áåçûìÿííûé_ãðàäèåíò_347-15" x1="370.28" y1="223.83" x2="329.56" y2="214.71" gradientTransform="matrix(1, 0.05, -0.05, 1, -282.99, -148.85)" xlink:href="#Áåçûìÿííûé_ãðàäèåíò_347"/><linearGradient id="Áåçûìÿííûé_ãðàäèåíò_347-16" x1="369.05" y1="223.21" x2="328.33" y2="214.08" gradientTransform="matrix(1, 0.05, -0.05, 1, -282.99, -148.85)" xlink:href="#Áåçûìÿííûé_ãðàäèåíò_347"/><linearGradient id="Áåçûìÿííûé_ãðàäèåíò_347-17" x1="367.93" y1="223.05" x2="326.87" y2="213.84" gradientTransform="matrix(1, 0.05, -0.05, 1, -282.99, -148.85)" xlink:href="#Áåçûìÿííûé_ãðàäèåíò_347"/><linearGradient id="Áåçûìÿííûé_ãðàäèåíò_347-18" x1="366.69" y1="222.48" x2="325.57" y2="213.27" gradientTransform="matrix(1, 0.05, -0.05, 1, -282.99, -148.85)" xlink:href="#Áåçûìÿííûé_ãðàäèåíò_347"/><linearGradient id="Áåçûìÿííûé_ãðàäèåíò_347-19" x1="367.25" y1="222.33" x2="324.05" y2="212.65" gradientTransform="matrix(1, 0.05, -0.05, 1, -282.99, -148.85)" xlink:href="#Áåçûìÿííûé_ãðàäèåíò_347"/><linearGradient id="Áåçûìÿííûé_ãðàäèåíò_41" x1="330.28" y1="174.48" x2="330.28" y2="171.82" gradientTransform="matrix(1, 0.05, -0.05, 1, -282.99, -148.85)" gradientUnits="userSpaceOnUse"><stop offset="0.03" stop-color="#ff9f72"/><stop offset="1" stop-color="#ffc995"/></linearGradient><linearGradient id="Áåçûìÿííûé_ãðàäèåíò_215-2" x1="323.7" y1="188.95" x2="325.69" y2="188.95" gradientTransform="matrix(1, 0.05, -0.05, 1, -282.99, -148.85)" xlink:href="#Áåçûìÿííûé_ãðàäèåíò_215"/><linearGradient id="Áåçûìÿííûé_ãðàäèåíò_215-3" x1="325.52" y1="194.67" x2="328.88" y2="194.67" gradientTransform="matrix(1, 0.05, -0.05, 1, -282.99, -148.85)" xlink:href="#Áåçûìÿííûé_ãðàäèåíò_215"/><linearGradient id="Áåçûìÿííûé_ãðàäèåíò_215-4" x1="325.52" y1="181.85" x2="328.88" y2="181.85" gradientTransform="matrix(1, 0.05, -0.05, 1, -282.99, -148.85)" xlink:href="#Áåçûìÿííûé_ãðàäèåíò_215"/><linearGradient id="Áåçûìÿííûé_ãðàäèåíò_259" x1="321.86" y1="257.44" x2="321.86" y2="198.08" gradientTransform="matrix(1, 0.05, -0.05, 1, -282.99, -148.85)" gradientUnits="userSpaceOnUse"><stop offset="0" stop-color="#7e0298"/><stop offset="1"/></linearGradient><linearGradient id="Áåçûìÿííûé_ãðàäèåíò_31" x1="32.69" y1="125.31" x2="32.69" y2="37.66" gradientUnits="userSpaceOnUse"><stop offset="0" stop-color="#5998ff"/><stop offset="0.15" stop-color="#5896fc"/><stop offset="0.28" stop-color="#5490f1"/><stop offset="0.4" stop-color="#4e85e0"/><stop offset="0.52" stop-color="#4577c7"/><stop offset="0.63" stop-color="#3a64a7"/><stop offset="0.74" stop-color="#2d4c80"/><stop offset="0.85" stop-color="#1c3152"/><stop offset="0.95" stop-color="#0a111d"/><stop offset="1"/></linearGradient><radialGradient id="Áåçûìÿííûé_ãðàäèåíò_54" cx="80.78" cy="70.19" r="36.57" gradientUnits="userSpaceOnUse"><stop offset="0" stop-color="#e5feae"/><stop offset="1" stop-color="#1888a9"/></radialGradient><radialGradient id="Áåçûìÿííûé_ãðàäèåíò_262-6" cx="93.93" cy="83.99" r="28.7" xlink:href="#Áåçûìÿííûé_ãðàäèåíò_262"/><linearGradient id="Áåçûìÿííûé_ãðàäèåíò_10-2" x1="77.53" y1="39.82" x2="101.21" y2="39.82" xlink:href="#Áåçûìÿííûé_ãðàäèåíò_10"/><linearGradient id="Áåçûìÿííûé_ãðàäèåíò_10-3" x1="92.63" y1="84.4" x2="101.32" y2="84.4" xlink:href="#Áåçûìÿííûé_ãðàäèåíò_10"/><radialGradient id="Áåçûìÿííûé_ãðàäèåíò_56" cx="99.58" cy="95.99" r="25.53" xlink:href="#Áåçûìÿííûé_ãðàäèåíò_54"/><radialGradient id="Áåçûìÿííûé_ãðàäèåíò_262-7" cx="109.2" cy="100.82" r="17.21" xlink:href="#Áåçûìÿííûé_ãðàäèåíò_262"/><linearGradient id="Áåçûìÿííûé_ãðàäèåíò_10-4" x1="95.64" y1="79.13" x2="112.17" y2="79.13" xlink:href="#Áåçûìÿííûé_ãðàäèåíò_10"/><linearGradient id="Áåçûìÿííûé_ãðàäèåíò_11-2" x1="95.65" y1="98.71" x2="109.67" y2="98.71" xlink:href="#Áåçûìÿííûé_ãðàäèåíò_11"/><linearGradient id="Áåçûìÿííûé_ãðàäèåíò_52-2" x1="92.26" y1="126.61" x2="92.26" y2="43.39" xlink:href="#Áåçûìÿííûé_ãðàäèåíò_52"/><linearGradient id="Áåçûìÿííûé_ãðàäèåíò_259-2" x1="102.83" y1="126.61" x2="102.83" y2="101.25" gradientTransform="matrix(1, 0, 0, 1, 0, 0)" xlink:href="#Áåçûìÿííûé_ãðàäèåíò_259"/><linearGradient id="Áåçûìÿííûé_ãðàäèåíò_259-3" x1="84.25" y1="126.61" x2="84.25" y2="107.02" gradientTransform="matrix(1, 0, 0, 1, 0, 0)" xlink:href="#Áåçûìÿííûé_ãðàäèåíò_259"/><linearGradient id="Áåçûìÿííûé_ãðàäèåíò_215-5" x1="89.76" y1="71.06" x2="101.51" y2="71.06" xlink:href="#Áåçûìÿííûé_ãðàäèåíò_215"/><linearGradient id="Áåçûìÿííûé_ãðàäèåíò_185" x1="33.36" y1="63.2" x2="87.93" y2="97.29" gradientUnits="userSpaceOnUse"><stop offset="0" stop-color="#c0b8ff"/><stop offset="0.12" stop-color="#a49ae2"/><stop offset="0.3" stop-color="#7e72bd"/><stop offset="0.4" stop-color="#7063ae"/><stop offset="0.41" stop-color="#7064af"/><stop offset="0.67" stop-color="#6c8dd6"/><stop offset="0.87" stop-color="#69a6ed"/><stop offset="1" stop-color="#68aff6"/></linearGradient><linearGradient id="Áåçûìÿííûé_ãðàäèåíò_97" x1="71.62" y1="126.43" x2="71.62" y2="30.21" gradientUnits="userSpaceOnUse"><stop offset="0.03" stop-color="#276e95"/><stop offset="0.31" stop-color="#306b91"/><stop offset="0.78" stop-color="#496187"/><stop offset="1" stop-color="#575c81"/></linearGradient><linearGradient id="Áåçûìÿííûé_ãðàäèåíò_207" x1="48" y1="72.95" x2="84.54" y2="95.78" gradientUnits="userSpaceOnUse"><stop offset="0" stop-color="#575c81"/><stop offset="0.22" stop-color="#496187"/><stop offset="0.69" stop-color="#306b91"/><stop offset="0.97" stop-color="#276e95"/></linearGradient><linearGradient id="Áåçûìÿííûé_ãðàäèåíò_187" x1="32.27" y1="70.74" x2="80.54" y2="100.9" gradientUnits="userSpaceOnUse"><stop offset="0" stop-color="#dbb5ff"/><stop offset="0.19" stop-color="#9d8fdc"/><stop offset="0.33" stop-color="#7576c6"/><stop offset="0.4" stop-color="#666dbd"/><stop offset="0.5" stop-color="#6f82c8"/><stop offset="0.72" stop-color="#7fabdb"/><stop offset="0.89" stop-color="#89c4e7"/><stop offset="1" stop-color="#8dcdec"/></linearGradient><linearGradient id="Áåçûìÿííûé_ãðàäèåíò_97-2" x1="55.13" y1="71.29" x2="55.13" y2="63.95" xlink:href="#Áåçûìÿííûé_ãðàäèåíò_97"/><linearGradient id="Áåçûìÿííûé_ãðàäèåíò_97-3" x1="53.75" y1="99.89" x2="53.75" y2="96.94" xlink:href="#Áåçûìÿííûé_ãðàäèåíò_97"/><linearGradient id="Áåçûìÿííûé_ãðàäèåíò_189" x1="54.67" y1="99.78" x2="54.67" y2="42.08" gradientUnits="userSpaceOnUse"><stop offset="0" stop-color="#ae97b3"/><stop offset="1" stop-color="#9dffe5"/></linearGradient><linearGradient id="Áåçûìÿííûé_ãðàäèåíò_107" x1="57.25" y1="108.78" x2="61.99" y2="108.78" gradientUnits="userSpaceOnUse"><stop offset="0" stop-color="#ffffe5"/><stop offset="1" stop-color="#aed4b3"/></linearGradient><linearGradient id="Áåçûìÿííûé_ãðàäèåíò_33-2" x1="635.65" y1="267.34" x2="635.65" y2="183.72" gradientTransform="matrix(-1, 0, 0, 1, 776.92, -140.73)" xlink:href="#Áåçûìÿííûé_ãðàäèåíò_33"/><linearGradient id="Áåçûìÿííûé_ãðàäèåíò_350-2" x1="651.38" y1="267.34" x2="651.38" y2="183.72" gradientTransform="matrix(-1, 0, 0, 1, 776.92, -140.73)" xlink:href="#Áåçûìÿííûé_ãðàäèåíò_350"/><linearGradient id="Áåçûìÿííûé_ãðàäèåíò_33-3" x1="651.52" y1="267.34" x2="651.52" y2="185.26" gradientTransform="matrix(-1, 0, 0, 1, 776.92, -140.73)" xlink:href="#Áåçûìÿííûé_ãðàäèåíò_33"/><radialGradient id="Áåçûìÿííûé_ãðàäèåíò_262-8" cx="663.88" cy="225.17" r="27.6" gradientTransform="matrix(-0.82, 0, 0, 1, 675.44, -140.73)" xlink:href="#Áåçûìÿííûé_ãðàäèåíò_262"/><radialGradient id="Áåçûìÿííûé_ãðàäèåíò_54-2" cx="670.27" cy="206.26" r="29.3" gradientTransform="matrix(-0.82, 0, 0, 1, 675.44, -140.73)" xlink:href="#Áåçûìÿííûé_ãðàäèåíò_54"/><linearGradient id="Áåçûìÿííûé_ãðàäèåíò_350-3" x1="130.69" y1="84.74" x2="156.23" y2="100.7" gradientTransform="matrix(1, 0, 0, 1, 0, 0)" xlink:href="#Áåçûìÿííûé_ãðàäèåíò_350"/><linearGradient id="Áåçûìÿííûé_ãðàäèåíò_33-4" x1="144.45" y1="126.61" x2="144.45" y2="58.58" gradientTransform="matrix(1, 0, 0, 1, 0, 0)" xlink:href="#Áåçûìÿííûé_ãðàäèåíò_33"/><linearGradient id="Áåçûìÿííûé_ãðàäèåíò_155" x1="118.05" y1="66.61" x2="131.64" y2="66.61" gradientUnits="userSpaceOnUse"><stop offset="0" stop-color="#ffffbd"/><stop offset="0.18" stop-color="#c7efd0"/><stop offset="0.32" stop-color="#9fe4dd"/><stop offset="0.4" stop-color="#90e0e2"/><stop offset="0.53" stop-color="#9de5da"/><stop offset="0.82" stop-color="#b6eeca"/><stop offset="1" stop-color="#bff2c4"/></linearGradient><linearGradient id="Áåçûìÿííûé_ãðàäèåíò_155-2" x1="118.18" y1="81.27" x2="131.8" y2="81.27" xlink:href="#Áåçûìÿííûé_ãðàäèåíò_155"/><linearGradient id="Áåçûìÿííûé_ãðàäèåíò_155-3" x1="118.26" y1="97.39" x2="131.99" y2="97.39" xlink:href="#Áåçûìÿííûé_ãðàäèåíò_155"/><linearGradient id="Áåçûìÿííûé_ãðàäèåíò_215-6" x1="118.44" y1="65.58" x2="128.74" y2="65.58" xlink:href="#Áåçûìÿííûé_ãðàäèåíò_215"/><linearGradient id="Áåçûìÿííûé_ãðàäèåíò_215-7" x1="121.79" y1="79.98" x2="131.8" y2="79.98" xlink:href="#Áåçûìÿííûé_ãðàäèåíò_215"/><linearGradient id="Áåçûìÿííûé_ãðàäèåíò_215-8" x1="118.6" y1="90.04" x2="130.55" y2="90.04" xlink:href="#Áåçûìÿííûé_ãðàäèåíò_215"/><linearGradient id="Áåçûìÿííûé_ãðàäèåíò_215-9" x1="118.74" y1="112.01" x2="132.15" y2="112.01" xlink:href="#Áåçûìÿííûé_ãðàäèåíò_215"/><linearGradient id="Áåçûìÿííûé_ãðàäèåíò_52-3" x1="118.76" y1="113.18" x2="132.34" y2="113.18" xlink:href="#Áåçûìÿííûé_ãðàäèåíò_52"/><linearGradient id="Áåçûìÿííûé_ãðàäèåíò_259-4" x1="142.56" y1="126.61" x2="142.56" y2="90.04" gradientTransform="matrix(1, 0, 0, 1, 0, 0)" xlink:href="#Áåçûìÿííûé_ãðàäèåíò_259"/><linearGradient id="Áåçûìÿííûé_ãðàäèåíò_359" x1="125.2" y1="77.57" x2="125.2" y2="42.98" gradientUnits="userSpaceOnUse"><stop offset="0"/><stop offset="0.99" stop-color="#1002ff"/></linearGradient><linearGradient id="Áåçûìÿííûé_ãðàäèåíò_350-4" x1="4.16" y1="126.62" x2="4.16" y2="73.35" gradientTransform="matrix(1, 0, 0, 1, 0, 0)" xlink:href="#Áåçûìÿííûé_ãðàäèåíò_350"/><linearGradient id="Áåçûìÿííûé_ãðàäèåíò_33-5" x1="9.67" y1="126.62" x2="9.67" y2="73.35" gradientTransform="matrix(1, 0, 0, 1, 0, 0)" xlink:href="#Áåçûìÿííûé_ãðàäèåíò_33"/><linearGradient id="Áåçûìÿííûé_ãðàäèåíò_350-5" x1="13.61" y1="126.62" x2="13.61" y2="71.29" gradientTransform="matrix(1, 0, 0, 1, 0, 0)" xlink:href="#Áåçûìÿííûé_ãðàäèåíò_350"/><linearGradient id="Áåçûìÿííûé_ãðàäèåíò_33-6" x1="22.52" y1="126.62" x2="22.52" y2="71.29" gradientTransform="matrix(1, 0, 0, 1, 0, 0)" xlink:href="#Áåçûìÿííûé_ãðàäèåíò_33"/><radialGradient id="Áåçûìÿííûé_ãðàäèåíò_54-3" cx="7.53" cy="96.83" r="18.03" xlink:href="#Áåçûìÿííûé_ãðàäèåíò_54"/><linearGradient id="Áåçûìÿííûé_ãðàäèåíò_13" x1="28.41" y1="126.62" x2="28.41" y2="101.87" gradientUnits="userSpaceOnUse"><stop offset="0.03" stop-color="#ff9259"/><stop offset="1" stop-color="#ffb184"/></linearGradient><linearGradient id="Áåçûìÿííûé_ãðàäèåíò_350-6" x1="37.52" y1="126.64" x2="37.52" y2="95.34" gradientTransform="matrix(1, 0, 0, 1, 0, 0)" xlink:href="#Áåçûìÿííûé_ãðàäèåíò_350"/><linearGradient id="Áåçûìÿííûé_ãðàäèåíò_33-7" x1="42.91" y1="126.64" x2="42.91" y2="95.34" gradientTransform="matrix(1, 0, 0, 1, 0, 0)" xlink:href="#Áåçûìÿííûé_ãðàäèåíò_33"/><radialGradient id="Áåçûìÿííûé_ãðàäèåíò_262-9" cx="42.55" cy="109.04" r="10.79" xlink:href="#Áåçûìÿííûé_ãðàäèåíò_262"/><linearGradient id="Áåçûìÿííûé_ãðàäèåíò_350-7" x1="49.7" y1="126.72" x2="49.7" y2="93.45" gradientTransform="matrix(1, 0, 0, 1, 0, 0)" xlink:href="#Áåçûìÿííûé_ãðàäèåíò_350"/><linearGradient id="Áåçûìÿííûé_ãðàäèåíò_33-8" x1="56.71" y1="126.72" x2="56.71" y2="93.45" gradientTransform="matrix(1, 0, 0, 1, 0, 0)" xlink:href="#Áåçûìÿííûé_ãðàäèåíò_33"/><linearGradient id="Áåçûìÿííûé_ãðàäèåíò_215-10" x1="7.21" y1="103.66" x2="11.33" y2="103.66" xlink:href="#Áåçûìÿííûé_ãðàäèåíò_215"/><linearGradient id="Áåçûìÿííûé_ãðàäèåíò_215-11" x1="42.5" y1="106.88" x2="46.03" y2="106.88" xlink:href="#Áåçûìÿííûé_ãðàäèåíò_215"/><linearGradient id="Áåçûìÿííûé_ãðàäèåíò_215-12" x1="42.12" y1="116.05" x2="45.77" y2="116.05" xlink:href="#Áåçûìÿííûé_ãðàäèåíò_215"/><linearGradient id="Áåçûìÿííûé_ãðàäèåíò_33-9" x1="303.67" y1="267.17" x2="303.67" y2="213.23" gradientTransform="translate(524.51 -77.83) rotate(86.43)" xlink:href="#Áåçûìÿííûé_ãðàäèåíò_33"/><linearGradient id="Áåçûìÿííûé_ãðàäèåíò_33-10" x1="13.99" y1="126.63" x2="13.99" y2="72.1" gradientTransform="matrix(1, 0, 0, 1, 0, 0)" xlink:href="#Áåçûìÿííûé_ãðàäèåíò_33"/><linearGradient id="Áåçûìÿííûé_ãðàäèåíò_33-11" x1="15.37" y1="126.61" x2="15.37" y2="71.75" gradientTransform="matrix(1, 0, 0, 1, 0, 0)" xlink:href="#Áåçûìÿííûé_ãðàäèåíò_33"/><linearGradient id="Áåçûìÿííûé_ãðàäèåíò_33-12" x1="2.62" y1="126.53" x2="2.62" y2="74.52" gradientTransform="matrix(1, 0, 0, 1, 0, 0)" xlink:href="#Áåçûìÿííûé_ãðàäèåíò_33"/><linearGradient id="Áåçûìÿííûé_ãðàäèåíò_33-13" x1="295.19" y1="267.26" x2="295.19" y2="215.02" gradientTransform="translate(520.22 -66.51) rotate(86.94)" xlink:href="#Áåçûìÿííûé_ãðàäèåíò_33"/><linearGradient id="Áåçûìÿííûé_ãðàäèåíò_33-14" x1="296.52" y1="267.46" x2="296.52" y2="214.66" gradientTransform="translate(524.2 -65.85) rotate(87.46)" xlink:href="#Áåçûìÿííûé_ãðàäèåíò_33"/><linearGradient id="Áåçûìÿííûé_ãðàäèåíò_33-15" x1="21.45" y1="126.61" x2="21.45" y2="103.5" gradientTransform="matrix(1, 0, 0, 1, 0, 0)" xlink:href="#Áåçûìÿííûé_ãðàäèåíò_33"/><linearGradient id="Áåçûìÿííûé_ãðàäèåíò_33-16" x1="23.21" y1="126.61" x2="23.21" y2="103.25" gradientTransform="matrix(1, 0, 0, 1, 0, 0)" xlink:href="#Áåçûìÿííûé_ãðàäèåíò_33"/><linearGradient id="Áåçûìÿííûé_ãðàäèåíò_33-17" x1="24.99" y1="126.61" x2="24.99" y2="103.12" gradientTransform="matrix(1, 0, 0, 1, 0, 0)" xlink:href="#Áåçûìÿííûé_ãðàäèåíò_33"/><linearGradient id="Áåçûìÿííûé_ãðàäèåíò_33-18" x1="26.84" y1="126.61" x2="26.84" y2="102.89" gradientTransform="matrix(1, 0, 0, 1, 0, 0)" xlink:href="#Áåçûìÿííûé_ãðàäèåíò_33"/><linearGradient id="Áåçûìÿííûé_ãðàäèåíò_33-19" x1="319.94" y1="267.38" x2="319.94" y2="243.45" gradientTransform="translate(557.98 -77.66) rotate(86.95)" xlink:href="#Áåçûìÿííûé_ãðàäèåíò_33"/><linearGradient id="Áåçûìÿííûé_ãðàäèåíò_33-20" x1="30.78" y1="126.65" x2="30.78" y2="102.56" gradientTransform="matrix(1, 0, 0, 1, 0, 0)" xlink:href="#Áåçûìÿííûé_ãðàäèåíò_33"/><linearGradient id="Áåçûìÿííûé_ãðàäèåíò_33-21" x1="32.93" y1="126.65" x2="32.93" y2="102.27" gradientTransform="matrix(1, 0, 0, 1, 0, 0)" xlink:href="#Áåçûìÿííûé_ãðàäèåíò_33"/><linearGradient id="Áåçûìÿííûé_ãðàäèåíò_33-22" x1="35.7" y1="126.59" x2="35.7" y2="96.4" gradientTransform="matrix(1, 0, 0, 1, 0, 0)" xlink:href="#Áåçûìÿííûé_ãðàäèåíò_33"/><linearGradient id="Áåçûìÿííûé_ãðàäèåíò_33-23" x1="328.52" y1="267.35" x2="328.52" y2="236.82" gradientTransform="translate(562.78 -89.38) rotate(86.95)" xlink:href="#Áåçûìÿííûé_ãðàäèåíò_33"/><linearGradient id="Áåçûìÿííûé_ãðàäèåíò_33-24" x1="39.08" y1="126.56" x2="39.08" y2="95.71" gradientTransform="matrix(1, 0, 0, 1, 0, 0)" xlink:href="#Áåçûìÿííûé_ãðàäèåíò_33"/><linearGradient id="Áåçûìÿííûé_ãðàäèåíò_33-25" x1="339.08" y1="267.46" x2="339.08" y2="235.08" gradientTransform="translate(575.07 -98.61) rotate(87.46)" xlink:href="#Áåçûìÿííûé_ãðàäèåíò_33"/><linearGradient id="Áåçûìÿííûé_ãðàäèåíò_33-26" x1="341.03" y1="267.52" x2="341.03" y2="234.74" gradientTransform="translate(575.2 -101.76) rotate(87.2)" xlink:href="#Áåçûìÿííûé_ãðàäèåíò_33"/><linearGradient id="Áåçûìÿííûé_ãðàäèåíò_33-27" x1="51.7" y1="126.75" x2="51.7" y2="93.72" gradientTransform="matrix(1, 0, 0, 1, 0, 0)" xlink:href="#Áåçûìÿííûé_ãðàäèåíò_33"/><linearGradient id="Áåçûìÿííûé_ãðàäèåíò_259-5" x1="30.3" y1="126.72" x2="30.3" y2="112.06" gradientTransform="matrix(1, 0, 0, 1, 0, 0)" xlink:href="#Áåçûìÿííûé_ãðàäèåíò_259"/><linearGradient id="Áåçûìÿííûé_ãðàäèåíò_75-2" x1="164" y1="126.62" x2="164" y2="86.06" xlink:href="#Áåçûìÿííûé_ãðàäèåíò_75"/><linearGradient id="Áåçûìÿííûé_ãðàäèåíò_20-3" x1="176.52" y1="126.58" x2="175.8" y2="85.96" xlink:href="#Áåçûìÿííûé_ãðàäèåíò_20"/><linearGradient id="Áåçûìÿííûé_ãðàäèåíò_264-3" x1="157.95" y1="126.62" x2="157.95" y2="89.04" xlink:href="#Áåçûìÿííûé_ãðàäèåíò_264"/><radialGradient id="Áåçûìÿííûé_ãðàäèåíò_262-10" cx="171.46" cy="107.57" r="14.36" xlink:href="#Áåçûìÿííûé_ãðàäèåíò_262"/><linearGradient id="Áåçûìÿííûé_ãðàäèåíò_75-3" x1="163.47" y1="119.23" x2="163.47" y2="115.85" xlink:href="#Áåçûìÿííûé_ãðàäèåíò_75"/><linearGradient id="Áåçûìÿííûé_ãðàäèåíò_20-4" x1="170.62" y1="117.39" x2="182.57" y2="117.39" xlink:href="#Áåçûìÿííûé_ãðàäèåíò_20"/><linearGradient id="Áåçûìÿííûé_ãðàäèåíò_15" x1="144.62" y1="119.09" x2="182.57" y2="119.09" gradientUnits="userSpaceOnUse"><stop offset="0" stop-color="#acb9d4"/><stop offset="1" stop-color="#8e98d0"/></linearGradient><linearGradient id="Áåçûìÿííûé_ãðàäèåíò_14" x1="145.4" y1="104.12" x2="182.33" y2="104.12" xlink:href="#Áåçûìÿííûé_ãðàäèåíò_15"/><linearGradient id="Áåçûìÿííûé_ãðàäèåíò_75-4" x1="163.64" y1="104.47" x2="163.64" y2="100.55" xlink:href="#Áåçûìÿííûé_ãðàäèåíò_75"/><linearGradient id="Áåçûìÿííûé_ãðàäèåíò_20-5" x1="170.48" y1="102.18" x2="182.33" y2="102.18" xlink:href="#Áåçûìÿííûé_ãðàäèåíò_20"/><linearGradient id="Áåçûìÿííûé_ãðàäèåíò_16" x1="164" y1="126.62" x2="164" y2="108.76" gradientUnits="userSpaceOnUse"><stop offset="0.01" stop-color="#1002ff"/><stop offset="1"/></linearGradient><linearGradient id="Áåçûìÿííûé_ãðàäèåíò_52-4" x1="96.87" y1="125.96" x2="109.47" y2="104.14" xlink:href="#Áåçûìÿííûé_ãðàäèåíò_52"/><linearGradient id="Áåçûìÿííûé_ãðàäèåíò_75-5" x1="86.61" y1="126.64" x2="86.61" y2="97.02" xlink:href="#Áåçûìÿííûé_ãðàäèåíò_75"/><linearGradient id="Áåçûìÿííûé_ãðàäèåíò_20-6" x1="96.74" y1="126.67" x2="96.21" y2="96.97" xlink:href="#Áåçûìÿííûé_ãðàäèåíò_20"/><linearGradient id="Áåçûìÿííûé_ãðàäèåíò_25" x1="81.1" y1="101.65" x2="99.96" y2="101.65" xlink:href="#Áåçûìÿííûé_ãðàäèåíò_54"/><linearGradient id="Áåçûìÿííûé_ãðàäèåíò_25-2" x1="80.87" y1="107.21" x2="100.04" y2="107.21" xlink:href="#Áåçûìÿííûé_ãðàäèåíò_54"/><linearGradient id="Áåçûìÿííûé_ãðàäèåíò_25-3" x1="80.7" y1="112.1" x2="100.04" y2="112.1" xlink:href="#Áåçûìÿííûé_ãðàäèåíò_54"/><linearGradient id="Áåçûìÿííûé_ãðàäèåíò_25-4" x1="80.49" y1="117.36" x2="100.17" y2="117.36" xlink:href="#Áåçûìÿííûé_ãðàäèåíò_54"/><linearGradient id="Áåçûìÿííûé_ãðàäèåíò_25-5" x1="80.25" y1="122.84" x2="100.25" y2="122.84" xlink:href="#Áåçûìÿííûé_ãðàäèåíò_54"/><radialGradient id="Áåçûìÿííûé_ãðàäèåíò_262-11" cx="98.51" cy="114.12" r="10.79" xlink:href="#Áåçûìÿííûé_ãðàäèåíò_262"/><radialGradient id="Áåçûìÿííûé_ãðàäèåíò_262-12" cx="98.51" cy="114.94" r="10.79" xlink:href="#Áåçûìÿííûé_ãðàäèåíò_262"/><radialGradient id="Áåçûìÿííûé_ãðàäèåíò_262-13" cx="98.51" cy="114.94" r="10.79" xlink:href="#Áåçûìÿííûé_ãðàäèåíò_262"/><linearGradient id="Áåçûìÿííûé_ãðàäèåíò_43" x1="350.81" y1="175.35" x2="350.81" y2="163.22" gradientUnits="userSpaceOnUse"><stop offset="0" stop-color="#5998ff"/><stop offset="0.12" stop-color="#5d90ff"/><stop offset="0.32" stop-color="#6779ff"/><stop offset="0.56" stop-color="#7953ff"/><stop offset="0.85" stop-color="#9020ff"/><stop offset="1" stop-color="#9f00ff"/></linearGradient><linearGradient id="Áåçûìÿííûé_ãðàäèåíò_42" x1="350.81" y1="164.9" x2="350.81" y2="152.17" gradientTransform="translate(450.77 -213.23) rotate(80.73)" gradientUnits="userSpaceOnUse"><stop offset="0" stop-color="#9f00ff"/><stop offset="0.15" stop-color="#9020ff"/><stop offset="0.44" stop-color="#7953ff"/><stop offset="0.68" stop-color="#6779ff"/><stop offset="0.88" stop-color="#5d90ff"/><stop offset="1" stop-color="#5998ff"/></linearGradient><linearGradient id="Áåçûìÿííûé_ãðàäèåíò_43-2" x1="478.95" y1="183.12" x2="478.95" y2="171" xlink:href="#Áåçûìÿííûé_ãðàäèåíò_43"/><linearGradient id="Áåçûìÿííûé_ãðàäèåíò_42-2" x1="187.76" y1="31.94" x2="187.76" y2="19.21" gradientTransform="matrix(1, 0, 0, 1, 0, 0)" xlink:href="#Áåçûìÿííûé_ãðàäèåíò_42"/><linearGradient id="Áåçûìÿííûé_ãðàäèåíò_43-3" x1="465.06" y1="225.59" x2="465.06" y2="213.46" xlink:href="#Áåçûìÿííûé_ãðàäèåíò_43"/><linearGradient id="Áåçûìÿííûé_ãðàäèåíò_42-3" x1="173.87" y1="74.41" x2="173.87" y2="61.68" gradientTransform="matrix(1, 0, 0, 1, 0, 0)" xlink:href="#Áåçûìÿííûé_ãðàäèåíò_42"/><linearGradient id="Áåçûìÿííûé_ãðàäèåíò_43-4" x1="379.06" y1="236.13" x2="379.06" y2="224.01" xlink:href="#Áåçûìÿííûé_ãðàäèåíò_43"/><linearGradient id="Áåçûìÿííûé_ãðàäèåíò_42-4" x1="87.87" y1="84.95" x2="87.87" y2="72.22" gradientTransform="matrix(1, 0, 0, 1, 0, 0)" xlink:href="#Áåçûìÿííûé_ãðàäèåíò_42"/><linearGradient id="Áåçûìÿííûé_ãðàäèåíò_43-5" x1="301.99" y1="207.9" x2="301.99" y2="174.92" xlink:href="#Áåçûìÿííûé_ãðàäèåíò_43"/><linearGradient id="Áåçûìÿííûé_ãðàäèåíò_42-5" x1="301.99" y1="176.6" x2="301.99" y2="163.87" gradientTransform="translate(89.38 -103.59) rotate(22.76)" xlink:href="#Áåçûìÿííûé_ãðàäèåíò_42"/><linearGradient id="Áåçûìÿííûé_ãðàäèåíò_43-6" x1="399.17" y1="204.52" x2="399.17" y2="171.53" xlink:href="#Áåçûìÿííûé_ãðàäèåíò_43"/><linearGradient id="Áåçûìÿííûé_ãðàäèåíò_42-6" x1="107.97" y1="32.48" x2="107.97" y2="19.75" gradientTransform="matrix(1, 0, 0, 1, 0, 0)" xlink:href="#Áåçûìÿííûé_ãðàäèåíò_42"/></defs><g class="cls-1"><g id="city"><polygon class="cls-2" points="141.26 126.61 145.38 35.86 161.61 20.23 170.03 17.49 172.34 126.78 141.26 126.61"/><polygon class="cls-3" points="170.07 19.69 155.82 33.46 154.05 126.47 173.3 126.52 170.07 19.69"/><polygon class="cls-4" points="170.03 17.49 154.05 33.46 153.14 126.66 155.51 126.74 155.82 33.46 170.07 19.69 170.03 17.49"/><polygon class="cls-5" points="145.38 35.86 154.05 33.46 152.28 126.61 141.26 126.61 145.38 35.86"/><g class="cls-6"><rect class="cls-7" x="157.88" y="31.4" width="0.14" height="95.45"/><rect class="cls-7" x="160.34" y="29.15" width="0.14" height="95.04"/><rect class="cls-7" x="162.41" y="27.03" width="0.14" height="95.36"/><rect class="cls-7" x="164.35" y="25.37" width="0.14" height="95.04"/><rect class="cls-7" x="458.13" y="163.86" width="0.14" height="95.44" transform="translate(-293.38 -135.92) rotate(-0.6)"/><rect class="cls-7" x="460.45" y="162.24" width="0.14" height="94.35" transform="translate(-295.51 -130.96) rotate(-1.21)"/><polygon class="cls-7" points="170.44 32.85 161.18 28.32 161.24 28.2 170.5 32.73 170.44 32.85"/><rect class="cls-7" x="458.84" y="163.72" width="0.14" height="5.91" transform="translate(-214.52 329.7) rotate(-58.43)"/><polygon class="cls-7" points="170.47 39.65 155.8 33.52 155.85 33.39 170.52 39.53 170.47 39.65"/><polygon class="cls-7" points="170.87 46.94 155.8 40.64 155.85 40.51 170.92 46.81 170.87 46.94"/><polygon class="cls-7" points="170.87 54.23 155.8 47.92 155.85 47.8 170.92 54.1 170.87 54.23"/><polygon class="cls-7" points="171.28 60.7 155.8 55.21 155.85 55.08 171.33 60.57 171.28 60.7"/><polygon class="cls-7" points="171.52 67.83 155.8 62.5 155.85 62.37 171.57 67.7 171.52 67.83"/><polygon class="cls-7" points="171.7 74.41 155.81 69.79 155.84 69.65 171.74 74.28 171.7 74.41"/><polygon class="cls-7" points="171.93 80.75 155.81 77.07 155.84 76.94 171.96 80.61 171.93 80.75"/></g><polygon class="cls-8" points="170.11 21.52 157.75 34.26 157.95 126.85 155.51 126.74 155.82 33.46 170.07 19.69 170.11 21.52"/><polygon class="cls-9" points="173.3 126.52 170.49 39.59 145.22 43.16 141.26 126.61 173.3 126.52"/><polygon class="cls-10" points="179 126.85 174.78 103.69 185.97 51.62 191.92 39.59 199.86 69.8 199.1 126.81 179 126.85"/><polygon class="cls-11" points="180.01 126.85 199.86 69.8 199.1 126.81 180.01 126.85"/><polygon class="cls-12" points="185.97 51.62 199.86 69.8 180.01 126.85 179 126.85 174.78 103.69 185.97 51.62"/><polygon class="cls-13" points="180.13 126.89 179.89 126.81 199.72 69.83 185.87 51.7 186.07 51.55 200 69.78 180.13 126.89"/><g class="cls-6"><rect class="cls-7" x="489.68" y="215.86" width="0.13" height="51.69" transform="translate(-296.22 -130.27) rotate(-1.22)"/><polygon class="cls-7" points="198.49 126.82 195.99 80.75 184.02 60.47 184.13 60.41 196.12 80.72 196.12 80.73 198.62 126.81 198.49 126.82"/><polygon class="cls-7" points="197.94 126.82 193.18 88.85 182.88 65.78 182.99 65.73 193.3 88.82 198.07 126.81 197.94 126.82"/><polygon class="cls-7" points="196.99 126.83 190.42 96.78 181.64 71.97 181.76 71.92 190.54 96.74 197.11 126.8 196.99 126.83"/><polygon class="cls-7" points="196.47 126.83 188 103.74 180.17 78.36 180.29 78.33 188.12 103.7 196.59 126.79 196.47 126.83"/><polygon class="cls-7" points="196.2 126.88 185.87 109.89 178.36 87.46 178.48 87.42 185.98 109.84 196.31 126.81 196.2 126.88"/><polygon class="cls-7" points="195.58 126.86 183.65 116.26 183.64 116.25 176.74 94.31 176.86 94.28 183.76 116.19 195.66 126.77 195.58 126.86"/><polygon class="cls-7" points="194.86 126.87 181.65 122.67 181.64 122.64 175.72 99.04 175.84 99.01 181.75 122.57 194.9 126.75 194.86 126.87"/><polygon class="cls-7" points="198.13 74.65 185.36 54.24 185.47 54.18 198.24 74.58 198.13 74.65"/><polygon class="cls-7" points="175.31 106.28 175.19 106.25 187.26 53.37 191.73 39.84 191.85 39.88 187.38 53.41 175.31 106.28"/><polygon class="cls-7" points="176.07 110.46 175.95 110.43 189.31 56.39 192.05 40.32 192.18 40.34 189.44 56.42 176.07 110.46"/><polygon class="cls-7" points="176.84 114.69 176.72 114.65 192.05 59.66 192.23 41 192.35 41 192.18 59.68 176.84 114.69"/><polygon class="cls-7" points="177.34 118.59 177.22 118.55 194.29 62.59 192.7 42.8 192.83 42.79 194.42 62.6 194.41 62.62 177.34 118.59"/><polygon class="cls-7" points="178.15 121.91 178.03 121.87 197.36 66.61 193.23 44.81 193.35 44.79 197.49 66.62 197.49 66.64 178.15 121.91"/></g><polygon class="cls-14" points="180.23 78.35 187.9 104.18 196.08 80.07 184.23 59.74 180.23 78.35"/><polygon class="cls-15" points="20.77 124.11 24.97 35.86 30.99 32.08 27.9 124.47 20.77 124.11"/><polygon class="cls-16" points="30.99 32.08 43.27 35.41 42.5 125.15 27.9 124.47 30.99 32.08"/><polygon class="cls-17" points="41.53 34.94 38.52 125 44.27 125.24 45.71 35.15 41.53 34.94"/><polygon class="cls-18" points="45.71 35.15 47.74 36.53 45.54 125.31 43.48 125.2 45.71 35.15"/><polygon class="cls-19" points="31.51 39.3 28.55 124.5 42.97 125.18 44.9 41.79 36.87 39.2 33.55 39.03 31.51 39.3"/><polygon class="cls-20" points="25.42 41.77 30 39.23 26.55 124.4 21.51 124.15 25.42 41.77"/><polygon class="cls-21" points="33.5 39.4 33.38 43.12 33.38 43.12 33.37 43.3 33.24 47.02 33.23 47.2 33.11 50.67 33.11 50.85 32.99 54.1 32.98 54.29 32.85 58.05 32.85 58.24 32.73 61.49 32.73 61.67 32.6 65.25 32.6 65.43 32.47 69.08 32.46 69.26 32.32 73.38 32.31 73.57 32.19 77.12 32.18 77.31 32.06 80.86 32.05 81.05 31.91 85.3 31.9 85.48 30.54 124.6 30.45 124.6 28.55 124.5 29.91 85.39 29.92 85.2 30.07 80.96 30.07 80.77 30.2 77.21 30.2 77.03 30.32 73.47 30.33 73.28 30.48 69.13 30.48 68.95 30.61 65.31 30.61 65.12 30.74 61.55 30.75 61.37 30.86 58.12 30.87 57.94 31 54.17 31 53.99 31.12 50.74 31.12 50.56 31.24 47.11 31.25 46.92 31.38 43.31 31.38 43.13 31.51 39.3 33.41 39.4 33.5 39.4"/><polygon class="cls-22" points="36.87 39.57 33.88 124.77 42.97 125.18 44.87 42.26 36.87 39.57"/><polygon class="cls-23" points="34.1 39.07 34.29 35.41 37.06 35.32 43.91 37.61 43.72 41.32 36.87 39.2 34.1 39.07"/><polygon class="cls-24" points="37.06 35.32 36.68 39.16 33.87 39.07 34.29 35.41 37.06 35.32"/><g class="cls-6"><polygon class="cls-25" points="44.73 45.53 44.68 45.71 44.43 45.64 44.24 45.59 42.84 45.22 42.65 45.17 41.28 44.81 41.1 44.76 39.74 44.4 39.55 44.35 38.18 43.99 38 43.94 36.82 43.63 36.63 43.58 36.63 43.58 33.46 43.31 33.37 43.3 33.3 43.3 33.28 43.3 31.38 43.31 31.38 43.13 33.28 43.11 33.31 43.11 33.38 43.12 33.38 43.12 33.47 43.13 36.64 43.4 36.66 43.4 36.83 43.44 38.01 43.75 38.19 43.8 39.56 44.16 39.75 44.21 41.11 44.57 41.29 44.62 42.66 44.98 42.84 45.03 44.25 45.4 44.43 45.45 44.73 45.53"/><polygon class="cls-26" points="44.55 49.16 44.5 49.34 44.34 49.3 44.16 49.26 42.71 48.9 42.52 48.86 41.15 48.52 40.97 48.48 39.61 48.14 39.43 48.1 38.05 47.76 37.87 47.72 36.69 47.43 36.5 47.38 36.44 47.37 33.32 47.21 33.23 47.2 33.14 47.2 33.11 47.2 31.24 47.11 31.25 46.92 33.12 47.01 33.15 47.01 33.24 47.02 33.33 47.02 36.47 47.19 36.51 47.2 36.69 47.24 37.88 47.53 38.06 47.58 39.43 47.91 39.62 47.95 40.98 48.29 41.16 48.34 42.53 48.67 42.72 48.71 44.16 49.07 44.35 49.11 44.55 49.16"/><polygon class="cls-27" points="44.37 52.49 44.34 52.67 44.27 52.66 44.08 52.63 42.59 52.36 42.41 52.33 41.03 52.08 40.85 52.05 39.48 51.81 39.3 51.78 37.92 51.53 37.74 51.5 36.55 51.29 36.37 51.26 36.25 51.24 33.2 50.86 33.11 50.85 33.01 50.84 32.92 50.83 31.12 50.74 31.12 50.56 32.94 50.65 33.02 50.66 33.11 50.67 33.2 50.68 36.28 51.05 36.37 51.07 36.56 51.1 37.74 51.31 37.93 51.35 39.3 51.59 39.49 51.62 40.86 51.86 41.04 51.9 42.41 52.14 42.6 52.17 44.09 52.44 44.27 52.47 44.37 52.49"/><polygon class="cls-28" points="44.2 55.92 44.19 55.99 44.17 56.1 44 56.07 42.47 55.8 42.29 55.77 40.91 55.52 40.73 55.49 39.36 55.24 39.18 55.21 37.8 54.97 37.62 54.94 36.43 54.73 36.24 54.69 36.08 54.66 33.08 54.3 32.98 54.29 32.89 54.28 32.75 54.26 31 54.17 31 53.99 32.77 54.07 32.9 54.09 32.99 54.1 33.08 54.11 36.11 54.48 36.25 54.51 36.44 54.54 37.63 54.75 37.81 54.78 39.19 55.03 39.37 55.06 40.74 55.3 40.92 55.34 42.3 55.58 42.48 55.61 44.01 55.88 44.19 55.91 44.2 55.92"/><polygon class="cls-29" points="44.02 59.34 44 59.53 43.92 59.52 42.35 59.34 42.16 59.32 40.78 59.16 40.6 59.14 39.23 58.99 39.05 58.97 37.67 58.81 37.49 58.79 36.29 58.65 36.11 58.63 35.89 58.61 32.94 58.25 32.85 58.24 32.76 58.23 32.55 58.2 30.86 58.12 30.87 57.94 32.57 58.02 32.76 58.04 32.85 58.05 32.95 58.06 35.91 58.42 36.11 58.45 36.3 58.47 37.49 58.6 37.68 58.63 39.06 58.78 39.24 58.8 40.61 58.96 40.79 58.98 42.17 59.14 42.35 59.15 43.93 59.34 44.02 59.34"/><polygon class="cls-30" points="43.85 62.78 43.85 62.81 43.83 62.96 42.23 62.78 42.05 62.76 40.67 62.6 40.48 62.58 39.11 62.42 38.93 62.4 37.55 62.25 37.37 62.23 36.17 62.09 35.99 62.07 35.71 62.04 32.82 61.68 32.73 61.67 32.64 61.66 32.38 61.63 30.74 61.55 30.75 61.37 32.4 61.45 32.64 61.48 32.73 61.49 32.83 61.5 35.74 61.85 35.99 61.88 36.18 61.9 37.37 62.04 37.56 62.06 38.94 62.22 39.12 62.24 40.49 62.39 40.67 62.41 42.05 62.57 42.23 62.59 43.85 62.78 43.85 62.78"/><polygon class="cls-31" points="43.66 66.53 43.64 66.71 42.1 66.54 41.92 66.52 40.54 66.36 40.35 66.34 38.98 66.19 38.8 66.16 37.42 66.01 37.24 65.99 36.04 65.85 35.86 65.83 35.53 65.79 32.69 65.44 32.51 65.42 32.2 65.38 30.61 65.31 30.61 65.12 32.21 65.2 32.51 65.23 32.6 65.25 32.7 65.26 35.55 65.61 35.86 65.64 36.05 65.66 37.24 65.8 37.43 65.82 38.8 65.98 38.99 66 40.36 66.15 40.54 66.17 41.92 66.33 42.11 66.35 43.66 66.53"/><polygon class="cls-32" points="43.47 70.35 43.45 70.53 41.97 70.36 41.78 70.34 40.41 70.19 40.22 70.17 38.85 70.01 38.67 69.99 37.29 69.83 37.1 69.81 35.91 69.68 35.72 69.65 35.34 69.61 32.56 69.27 32.46 69.26 32.37 69.25 32 69.2 30.48 69.13 30.48 68.95 32.02 69.02 32.38 69.06 32.47 69.08 32.56 69.09 35.36 69.43 35.73 69.47 35.91 69.49 37.11 69.63 37.29 69.65 38.67 69.8 38.86 69.83 40.23 69.98 40.41 70 41.79 70.16 41.97 70.18 43.47 70.35"/><polygon class="cls-33" points="43.28 74.17 43.26 74.35 41.83 74.24 41.65 74.23 40.27 74.12 40.09 74.1 38.71 73.99 38.53 73.97 37.15 73.86 36.97 73.85 35.76 73.75 35.58 73.74 35.13 73.7 32.41 73.57 32.31 73.57 32.22 73.56 30.32 73.47 30.33 73.28 31.8 73.35 32.23 73.38 32.32 73.38 32.41 73.39 35.15 73.52 35.59 73.56 35.77 73.57 36.97 73.67 37.15 73.68 38.53 73.79 38.72 73.8 40.09 73.91 40.27 73.93 41.66 74.04 41.84 74.06 43.28 74.17"/><polygon class="cls-34" points="43.09 77.91 43.07 78.09 41.7 77.98 41.52 77.97 40.14 77.86 39.96 77.84 38.58 77.73 38.4 77.72 37.02 77.61 36.83 77.59 35.63 77.5 35.45 77.48 34.95 77.44 32.28 77.31 32.09 77.31 30.2 77.21 30.2 77.03 31.61 77.09 32.1 77.12 32.19 77.12 32.28 77.13 34.96 77.26 35.45 77.3 35.64 77.31 36.84 77.41 37.02 77.42 38.4 77.54 38.59 77.55 39.96 77.66 40.15 77.67 41.53 77.78 41.71 77.8 43.09 77.91"/><polygon class="cls-35" points="42.9 81.65 42.89 81.83 41.58 81.72 41.39 81.71 40.01 81.6 39.83 81.59 38.45 81.48 38.27 81.46 36.89 81.35 36.7 81.34 35.5 81.24 35.32 81.23 34.76 81.18 32.15 81.06 32.05 81.05 31.96 81.05 30.07 80.96 30.07 80.77 31.43 80.83 31.97 80.86 32.06 80.86 32.15 80.87 34.77 81 35.32 81.04 35.51 81.06 36.71 81.15 36.89 81.17 38.28 81.28 38.46 81.29 39.83 81.4 40.02 81.42 41.4 81.53 41.58 81.54 42.9 81.65"/><polygon class="cls-36" points="42.68 86.08 42.67 86.26 41.42 86.17 41.23 86.15 39.86 86.04 39.67 86.03 38.3 85.92 38.11 85.9 36.73 85.79 36.55 85.78 35.34 85.68 35.16 85.67 34.54 85.62 31.99 85.49 31.9 85.48 31.81 85.48 29.91 85.39 29.92 85.2 31.21 85.26 31.82 85.29 32 85.3 34.55 85.43 35.17 85.48 35.35 85.5 36.56 85.59 36.74 85.61 38.12 85.72 38.3 85.73 39.68 85.84 39.86 85.86 41.24 85.97 41.43 85.98 42.68 86.08"/><polygon class="cls-37" points="30.63 124.61 30.45 124.6 33.41 39.4 33.59 39.41 30.63 124.61"/><polygon class="cls-38" points="33.98 124.78 33.79 124.76 36.78 39.57 36.96 39.58 33.98 124.78"/><polygon class="cls-39" points="35.38 124.84 35.19 124.84 38.14 40.02 38.32 40.03 35.38 124.84"/><polygon class="cls-40" points="36.95 124.92 36.76 124.91 39.7 40.1 39.89 40.11 36.95 124.92"/><polygon class="cls-41" points="38.51 125 38.33 124.99 41.23 41.06 41.41 41.07 38.51 125"/><polygon class="cls-42" points="40.08 125.08 39.89 125.07 42.79 41.27 42.97 41.28 40.08 125.08"/><polygon class="cls-43" points="42.59 125.16 42.41 125.15 44.33 41.77 44.52 41.78 42.59 125.16"/></g><rect class="cls-44" x="316.62" y="211.55" width="0.19" height="4.87" transform="matrix(0.05, -1, 1, 0.05, -204.05, 378.86)"/><rect class="cls-44" x="316.38" y="215.24" width="0.19" height="4.96" transform="translate(-208 382.17) rotate(-87.13)"/><rect class="cls-44" x="316.13" y="218.83" width="0.19" height="4.97" transform="translate(-203.77 391.42) rotate(-88.63)"/><rect class="cls-44" x="315.8" y="223.37" width="0.19" height="5.07" transform="translate(-219.2 387.38) rotate(-86.66)"/><polygon class="cls-45" points="31.49 39.68 33.5 39.4 36.87 39.57 44.87 42.26 44.9 41.79 36.87 39.2 33.55 39.03 31.51 39.3 31.49 39.68"/><polygon class="cls-46" points="31.3 50.73 30.57 61.54 32.57 61.45 33.11 50.65 31.3 50.73"/><polygon class="cls-47" points="32.75 54.26 32.21 65.2 32.02 69.02 35.34 69.61 35.91 58.42 36.11 54.48 32.75 54.26"/><polygon class="cls-48" points="32.94 50.65 36.28 51.05 36.44 47.37 33.11 47.2 32.94 50.65"/><polygon class="cls-49" points="20.77 124.11 23.59 64.82 32.18 67.73 30.54 124.6 20.77 124.11"/><polygon class="cls-50" points="44.83 125.31 45.33 37.66 24.87 40.24 20.05 124.19 44.83 125.31"/><polygon class="cls-51" points="75.01 126.61 77.53 27.49 101.2 42.29 104.53 126.61 75.01 126.61"/><polygon class="cls-52" points="93.37 126.61 92.79 52.16 101.2 42.29 104.53 126.61 93.37 126.61"/><polygon class="cls-53" points="77.53 27.49 92.79 52.16 101.2 42.29 77.53 27.49"/><polygon class="cls-54" points="93.22 126.61 92.63 52.1 101.09 42.19 101.32 42.39 92.95 52.22 93.53 126.61 93.22 126.61"/><rect class="cls-7" x="376.19" y="166.05" width="0.31" height="29.01" transform="translate(-329.89 84.28) rotate(-31.74)"/><g class="cls-6"><rect class="cls-7" x="327.59" y="221.61" width="91.32" height="0.16" transform="translate(-144.6 451.2) rotate(-89.23)"/><rect class="cls-7" x="334.94" y="225" width="84.53" height="0.16" transform="translate(-144.09 458.51) rotate(-89.23)"/><polygon class="cls-7" points="95.57 126.61 94.19 50.47 90.31 47.8 89.31 126.61 89.15 126.61 90.16 47.5 94.35 50.38 94.35 50.42 95.72 126.61 95.57 126.61"/><rect class="cls-7" x="388.43" y="188.38" width="0.16" height="78.97" transform="translate(-295.02 -134.07) rotate(-0.98)"/><rect class="cls-7" x="389.79" y="186.72" width="0.16" height="80.63" transform="translate(-295.01 -134.05) rotate(-0.98)"/><polygon class="cls-7" points="103.27 126.61 100.44 43.2 79.41 30.54 78.18 126.61 78.02 126.61 79.25 30.27 100.59 43.11 100.59 43.15 103.42 126.61 103.27 126.61"/><polygon class="cls-7" points="100.68 126.61 99.28 44.62 82.06 34.91 77.33 36.47 77.28 36.33 82.07 34.74 82.1 34.76 99.44 44.52 99.44 44.57 100.84 126.61 100.68 126.61"/><rect class="cls-7" x="368.13" y="189.31" width="13.37" height="0.16" transform="matrix(0.99, -0.15, 0.15, 0.99, -315.45, -82.09)"/><rect class="cls-7" x="367.95" y="193.59" width="16.1" height="0.16" transform="translate(-310.68 -96.97) rotate(-6.49)"/><polygon class="cls-7" points="101.38 47.72 97.95 46.06 84.35 38.62 77.32 40.33 77.28 40.18 84.37 38.45 84.4 38.47 98.02 45.92 101.45 47.58 101.38 47.72"/><polygon class="cls-7" points="101.5 50.61 96.24 48.36 86.54 42.17 77.03 44.2 77 44.05 86.57 42 86.6 42.02 96.31 48.22 101.56 50.47 101.5 50.61"/><rect class="cls-7" x="388.37" y="189.7" width="0.16" height="9.42" transform="translate(-211.82 358.89) rotate(-71.23)"/><rect class="cls-7" x="388.47" y="195.06" width="0.16" height="9.5" transform="translate(-202.46 376.89) rotate(-73.88)"/><rect class="cls-7" x="388.56" y="199.76" width="0.16" height="9.61" transform="translate(-197.56 389.19) rotate(-75.56)"/><rect class="cls-7" x="388.68" y="204.93" width="0.16" height="9.68" transform="matrix(0.21, -0.98, 0.98, 0.21, -189.43, 404.85)"/><rect class="cls-7" x="385.39" y="213.07" width="0.16" height="2.94" transform="translate(-196.7 405.4) rotate(-77.83)"/><rect class="cls-7" x="385.44" y="218.21" width="0.16" height="2.99" transform="translate(-164.17 439.64) rotate(-84.05)"/><rect class="cls-7" x="385.44" y="222.89" width="0.16" height="2.99" transform="translate(-168.78 443.87) rotate(-84.06)"/><rect class="cls-7" x="385.67" y="231.37" width="0.16" height="2.99" transform="translate(-177 451.7) rotate(-84.06)"/><rect class="cls-7" x="385.53" y="227.07" width="0.16" height="3.19" transform="translate(-183.38 439.8) rotate(-82.38)"/><rect class="cls-7" x="385.75" y="235.54" width="0.16" height="2.99" transform="translate(-181.08 455.52) rotate(-84.06)"/><rect class="cls-7" x="385.82" y="239.67" width="0.16" height="2.99" transform="translate(-185.16 459.25) rotate(-84.05)"/><rect class="cls-7" x="385.85" y="243.83" width="0.16" height="3.2" transform="translate(-189.38 463.11) rotate(-84.05)"/><rect class="cls-7" x="386.04" y="248.27" width="0.16" height="3.15" transform="translate(-193.58 467.26) rotate(-84.05)"/><rect class="cls-7" x="386.02" y="252.06" width="0.16" height="3.19" transform="translate(-177.22 486.22) rotate(-87.21)"/><rect class="cls-7" x="386.12" y="256.38" width="0.16" height="3.28" transform="translate(-181 490.84) rotate(-87.29)"/><rect class="cls-7" x="386.1" y="260.87" width="0.16" height="3.37" transform="translate(-186.46 494.46) rotate(-87.15)"/><rect class="cls-7" x="367.87" y="199.24" width="16.2" height="0.16" transform="translate(-309.58 -101.31) rotate(-5.86)"/><rect class="cls-7" x="367.89" y="204.03" width="16.12" height="0.16" transform="translate(-304.74 -113.5) rotate(-4.07)"/><rect class="cls-7" x="367.89" y="209.25" width="16.12" height="0.16" transform="translate(-305.11 -113.5) rotate(-4.07)"/><rect class="cls-7" x="367.5" y="214.59" width="16.5" height="0.16" transform="translate(-305.49 -113.5) rotate(-4.07)"/><rect class="cls-7" x="367.51" y="219.96" width="16.48" height="0.16" transform="translate(-301.96 -121.22) rotate(-2.93)"/><rect class="cls-7" x="367.26" y="224.58" width="16.73" height="0.16" transform="translate(-302.19 -121.23) rotate(-2.93)"/><rect class="cls-7" x="367.16" y="228.8" width="16.84" height="0.16" transform="translate(-302.36 -121.31) rotate(-2.92)"/><rect class="cls-7" x="367.05" y="233.02" width="16.95" height="0.16" transform="translate(-302.62 -121.23) rotate(-2.93)"/><rect class="cls-7" x="366.94" y="237.24" width="17.05" height="0.16" transform="translate(-302.83 -121.23) rotate(-2.93)"/><rect class="cls-7" x="366.83" y="241.46" width="17.16" height="0.16" transform="translate(-303 -121.31) rotate(-2.92)"/><rect class="cls-7" x="366.73" y="245.68" width="17.59" height="0.16" transform="translate(-303.27 -121.21) rotate(-2.93)"/><polygon class="cls-7" points="75.44 109.77 75.44 109.62 93.23 108.88 93.24 109.04 75.44 109.77"/><rect class="cls-7" x="366.51" y="254.11" width="17.96" height="0.16" transform="translate(-303.65 -121.29) rotate(-2.92)"/><rect class="cls-7" x="366.4" y="258.33" width="18.1" height="0.16" transform="translate(-303.92 -121.19) rotate(-2.93)"/><rect class="cls-7" x="366.31" y="262.79" width="18.23" height="0.16" transform="translate(-297.54 -131.43) rotate(-1.41)"/><rect class="cls-7" x="75.01" y="126.53" width="18.36" height="0.16"/></g><polygon class="cls-55" points="95.64 70.73 96.77 126.61 114.54 126.61 112.17 75.59 95.64 70.73"/><polygon class="cls-56" points="112.17 75.59 108.62 87.54 109.52 126.61 114.54 126.61 112.17 75.59"/><polygon class="cls-57" points="95.64 70.73 108.62 87.54 112.17 75.59 95.64 70.73"/><polygon class="cls-58" points="109.36 126.61 108.47 87.59 95.65 70.99 95.89 70.8 108.78 87.48 108.78 87.53 109.67 126.61 109.36 126.61"/><rect class="cls-7" x="395.36" y="222.14" width="12.46" height="0.31" transform="translate(-216.83 403.45) rotate(-73.49)"/><g class="cls-6"><rect class="cls-7" x="389.17" y="213.61" width="0.16" height="53.73" transform="translate(-296.58 -131.78) rotate(-1.31)"/><polygon class="cls-7" points="101.85 126.61 100.88 77.61 101.04 77.61 102.01 126.61 101.85 126.61"/><rect class="cls-7" x="395.15" y="221.68" width="0.16" height="45.67" transform="matrix(1, -0.02, 0.02, 1, -296.41, -132.08)"/><rect class="cls-7" x="397.9" y="225.18" width="0.16" height="42.17" transform="translate(-297.42 -130.38) rotate(-1.48)"/><polygon class="cls-7" points="112.33 126.61 110.63 80.72 110.79 80.71 112.49 126.61 112.33 126.61"/><rect class="cls-7" x="403.61" y="218.31" width="0.16" height="49.06" transform="translate(-302.74 -120.41) rotate(-2.84)"/><polygon class="cls-7" points="110.8 126.61 109.44 84.4 104.81 82.7 96.21 83.89 96.19 83.73 104.83 82.54 104.85 82.55 109.59 84.29 109.59 84.34 110.95 126.61 110.8 126.61"/><polygon class="cls-7" points="96 88.22 95.99 88.06 108.62 87.46 108.63 87.61 96 88.22"/><rect class="cls-7" x="393.5" y="226.72" width="0.16" height="12.69" transform="translate(-133.2 484.4) rotate(-89.63)"/><polygon class="cls-7" points="108.83 96.67 96.12 96.54 96.13 96.39 108.83 96.51 108.83 96.67"/><polygon class="cls-7" points="109.03 100.79 96.33 100.66 96.33 100.51 109.03 100.63 109.03 100.79"/><polygon class="cls-7" points="109.03 105 96.33 104.88 96.33 104.72 109.03 104.85 109.03 105"/><polygon class="cls-7" points="109.03 109.47 96.33 109.34 96.33 109.19 109.03 109.31 109.03 109.47"/><polygon class="cls-7" points="109.2 113.14 96.49 113.01 96.5 112.86 109.2 112.98 109.2 113.14"/><polygon class="cls-7" points="109.34 117.5 96.64 117.38 96.64 117.22 109.34 117.35 109.34 117.5"/><polygon class="cls-7" points="109.34 121.97 96.64 121.84 96.64 121.68 109.34 121.81 109.34 121.97"/><polygon class="cls-7" points="110.69 80.79 100.96 77.69 95.83 79.21 95.79 79.06 100.96 77.53 110.73 80.64 110.69 80.79"/><rect class="cls-7" x="395.48" y="208.68" width="0.16" height="14.62" transform="translate(-227.85 379.8) rotate(-71.15)"/></g><polygon class="cls-59" points="77.02 44.13 80.44 43.39 81.48 117.99 85.48 117.61 85.7 109.26 89.45 109.33 89.45 100.54 93.22 100.28 95.17 100.43 96.05 97.6 96.66 121.17 101.68 121.74 101.93 124.69 109.47 124.69 109.52 126.61 75.01 126.61 77.02 44.13"/><polygon class="cls-60" points="96.77 126.61 96.2 101.25 108.83 101.89 109.45 126.45 96.77 126.61"/><polygon class="cls-61" points="75.12 126.46 75.55 107.8 93.22 107.03 93.37 126.61 75.12 126.46"/><polygon class="cls-62" points="89.76 68.26 93.13 68.08 101.42 69.87 101.51 72.49 95.64 70.73 95.71 74.04 92.63 73.33 89.9 73.5 89.76 68.26"/><polygon class="cls-63" points="96.77 126.61 95.64 70.73 102.31 72.73 96.13 71.06 100.76 126.61 96.77 126.61"/><polygon class="cls-64" points="42.23 126.43 47.53 40.53 71.92 30.21 73.52 30.6 69.72 126.43 42.23 126.43"/><polygon class="cls-65" points="69.72 126.43 71.92 126.43 73.52 30.6 71.92 30.21 69.72 126.43"/><g class="cls-6"><rect class="cls-7" x="301.04" y="218.59" width="76.77" height="0.16" transform="translate(-185.34 407.29) rotate(-87.45)"/><rect class="cls-7" x="303.32" y="218.06" width="77.84" height="0.16" transform="translate(-182.11 409.59) rotate(-87.45)"/><rect class="cls-7" x="305.42" y="217.33" width="79.3" height="0.16" transform="translate(-178.69 411.71) rotate(-87.45)"/><rect class="cls-7" x="307.63" y="216.73" width="80.5" height="0.16" transform="translate(-175.4 413.95) rotate(-87.45)"/><rect class="cls-7" x="309.85" y="216.13" width="81.71" height="0.16" transform="translate(-172.1 416.19) rotate(-87.45)"/><rect class="cls-7" x="312.07" y="215.52" width="82.91" height="0.16" transform="translate(-168.81 418.43) rotate(-87.45)"/><rect class="cls-7" x="315.05" y="214.7" width="84.57" height="0.16" transform="translate(-165.76 420.51) rotate(-87.21)"/></g><polygon class="cls-66" points="64.47 126.61 67.29 42.08 67.99 42.08 65.27 126.61 64.47 126.61"/><polygon class="cls-67" points="67.29 42.08 44.89 50.54 40.52 126.43 64.47 126.61 67.29 42.08"/><g class="cls-6"><rect class="cls-7" x="297.57" y="228.92" width="76.77" height="0.16" transform="translate(-198.91 413.73) rotate(-87.46)"/><rect class="cls-7" x="299.84" y="228.38" width="77.84" height="0.16" transform="translate(-195.68 416.03) rotate(-87.46)"/><rect class="cls-7" x="302.12" y="227.85" width="78.92" height="0.16" transform="translate(-192.46 418.33) rotate(-87.46)"/><rect class="cls-7" x="304.4" y="227.31" width="79.99" height="0.16" transform="translate(-189.23 420.64) rotate(-87.46)"/><rect class="cls-7" x="306.68" y="226.78" width="81.06" height="0.16" transform="translate(-186 422.94) rotate(-87.46)"/><rect class="cls-7" x="308.96" y="226.24" width="82.14" height="0.16" transform="translate(-182.78 425.24) rotate(-87.46)"/><rect class="cls-7" x="311.98" y="225.5" width="83.61" height="0.16" transform="translate(-178.46 428.28) rotate(-87.46)"/></g><polygon class="cls-68" points="43.7 71.13 66.56 63.95 66.56 64.31 43.69 71.29 43.7 71.13"/><polygon class="cls-69" points="42.05 99.78 65.46 96.94 65.45 97.31 42.05 99.89 42.05 99.78"/><polygon class="cls-70" points="42.05 99.78 52.66 98.5 53.75 73.81 66.36 70.06 67.29 42.08 44.89 50.54 42.05 99.78"/><polygon class="cls-71" points="57.25 119.87 58.26 98.1 61.99 97.69 60.97 119.87 57.25 119.87"/><polygon class="cls-72" points="147.41 126.61 146.42 47.65 135.21 42.98 135.12 126.61 147.41 126.61"/><polygon class="cls-73" points="115.22 126.61 136.26 126.61 135.21 42.98 132.5 43.64 132.49 44.53 120.37 47.86 117.13 47.46 114.81 48.02 115.22 126.61"/><polygon class="cls-74" points="117.96 126.61 133.67 126.61 132.49 44.53 120.37 47.86 117.13 47.46 117.96 126.61"/><polygon class="cls-75" points="131.38 43.72 130.16 43.19 130.89 126.61 132.34 126.61 131.38 43.72"/><polygon class="cls-76" points="130.16 43.19 118.32 46.94 118.83 126.61 130.89 126.61 130.16 43.19"/><polygon class="cls-77" points="138.44 126.61 146.72 59.07 148.08 58.58 140.04 126.61 138.44 126.61"/><polygon class="cls-78" points="148.08 58.58 148.87 126.61 140.04 126.61 148.08 58.58"/><g class="cls-6"><rect class="cls-7" x="411.11" y="187.25" width="0.16" height="80.09" transform="translate(-293.14 -137.16) rotate(-0.5)"/><rect class="cls-7" x="413" y="186.72" width="0.16" height="80.62" transform="translate(-294.39 -134.81) rotate(-0.82)"/><rect class="cls-7" x="415.46" y="185.92" width="0.16" height="81.42" transform="translate(-293.9 -135.69) rotate(-0.69)"/><rect class="cls-7" x="417.68" y="185.26" width="0.16" height="82.09" transform="translate(-294.59 -134.34) rotate(-0.87)"/><rect class="cls-7" x="128.66" y="43.64" width="0.16" height="82.79"/></g><polygon class="cls-79" points="118.05 67.65 118.05 68.02 130.16 65.69 131.64 65.82 131.63 65.48 130.16 65.21 118.05 67.65"/><polygon class="cls-80" points="118.18 82 118.18 82.38 130.16 80.64 131.81 80.78 131.81 80.46 130.16 80.16 118.18 82"/><polygon class="cls-81" points="118.26 97.86 118.26 98.23 130.51 97.02 131.99 97.15 131.99 96.81 130.51 96.54 118.26 97.86"/><polygon class="cls-82" points="118.44 65.79 128.74 63.59 128.74 65.49 118.45 67.56 118.44 65.79"/><polygon class="cls-83" points="131.81 78.98 130.47 78.51 121.79 79.94 121.79 81.45 130.48 80.22 131.81 80.46 131.81 78.98"/><polygon class="cls-84" points="118.6 89.84 130.55 88.15 130.55 90.37 118.61 91.94 118.6 89.84"/><polygon class="cls-85" points="130.89 110.57 118.74 111.28 118.75 113.46 130.77 112.84 132.15 112.94 132.15 110.57 130.89 110.57"/><polygon class="cls-86" points="118.76 115.14 124.6 114.61 124.57 100.59 130.65 99.75 131.99 99.75 132.34 126.61 118.83 126.61 118.76 115.14"/><polygon class="cls-87" points="144.45 126.61 144.45 104.8 145.51 104.7 145.75 101.1 147.08 100.28 147.08 85.9 148.39 85.04 148.87 126.61 144.45 126.61"/><polygon class="cls-88" points="148.87 126.61 148.48 92.8 136.26 90.04 136.26 126.61 148.87 126.61"/><polygon class="cls-89" points="114.81 48.02 115.03 77.57 135.59 73.34 135.21 42.98 132.5 43.64 132.49 44.53 131.39 44.85 131.38 43.72 130.16 43.19 118.32 46.94 118.32 47.61 117.13 47.46 114.81 48.02"/><polygon class="cls-90" points="59.51 98.67 68.15 97.69 68.15 126.43 59.51 126.43 59.51 98.67"/><polygon class="cls-91" points="0 126.5 3.24 74.98 8.31 73.35 5.3 126.62 0 126.5"/><polygon class="cls-92" points="8.31 73.35 14.48 74.98 12.45 126.62 4.85 126.62 8.31 73.35"/><polygon class="cls-93" points="8.89 126.62 12.5 72.98 18.34 71.29 14.88 126.62 8.89 126.62"/><polygon class="cls-94" points="18.34 71.29 30.17 73.38 28.54 126.62 14.88 126.62 18.34 71.29"/><polygon class="cls-95" points="6.34 126.62 9.82 75.17 12.41 74.29 9.45 126.62 6.34 126.62"/><polygon class="cls-96" points="19.48 126.62 20.68 103.65 37.35 101.87 36.03 126.62 19.48 126.62"/><polygon class="cls-97" points="33.54 126.62 35.14 96.72 41.49 95.33 40.05 126.64 33.54 126.62"/><polygon class="cls-98" points="41.49 95.33 45.76 95.95 44.69 126.57 40.05 126.64 41.49 95.33"/><polygon class="cls-99" points="41.57 126.57 43.33 96.55 46.59 95.71 45.91 126.65 41.57 126.57"/><polygon class="cls-100" points="45.37 126.72 46.36 94.72 54.02 93.45 52.48 126.72 45.37 126.72"/><polygon class="cls-101" points="54.02 93.45 60.93 94.72 60.22 126.72 52.48 126.72 54.02 93.45"/><polygon class="cls-102" points="8.46 95.33 11.33 93.45 10.3 111.55 7.21 113.86 8.46 95.33"/><polygon class="cls-103" points="42.98 102.69 46.03 101.13 45.76 110.99 42.5 112.63 42.98 102.69"/><polygon class="cls-104" points="42.19 115.86 45.77 114.02 45.69 116.34 42.12 118.08 42.19 115.86"/><polygon class="cls-105" points="7.41 87.24 9 87.33 7.89 103.79 6.3 104.37 7.41 87.24"/><polygon class="cls-105" points="40.76 111.22 42.5 110.99 41.8 123.77 40.16 124.11 40.76 111.22"/><rect class="cls-106" x="276.66" y="240.12" width="54.03" height="0.16" transform="translate(-246.15 387.6) rotate(-86.43)"/><polygon class="cls-107" points="12.53 126.63 12.37 126.62 15.45 72.1 15.61 72.11 12.53 126.63"/><polygon class="cls-108" points="14.07 126.61 13.91 126.61 16.68 71.75 16.84 71.75 14.07 126.61"/><polygon class="cls-109" points="1.16 126.53 1.01 126.52 4.08 74.52 4.24 74.53 1.16 126.53"/><rect class="cls-110" x="269.04" y="241.06" width="52.31" height="0.16" transform="translate(-252.56 382.3) rotate(-86.94)"/><rect class="cls-111" x="270.1" y="240.98" width="52.84" height="0.16" transform="translate(-248.64 385.87) rotate(-87.46)"/><g class="cls-112"><polygon class="cls-113" points="20.93 126.61 20.78 126.61 21.96 103.5 22.12 103.51 20.93 126.61"/><polygon class="cls-114" points="22.69 126.61 22.53 126.61 23.73 103.25 23.89 103.26 22.69 126.61"/><polygon class="cls-115" points="24.47 126.61 24.31 126.61 25.51 103.12 25.67 103.13 24.47 126.61"/><polygon class="cls-116" points="26.3 126.61 26.15 126.61 27.37 102.89 27.52 102.9 26.3 126.61"/><rect class="cls-117" x="307.96" y="255.34" width="23.96" height="0.16" transform="translate(-243.32 420.59) rotate(-86.95)"/><polygon class="cls-118" points="30.24 126.65 30.09 126.64 31.32 102.56 31.48 102.57 30.24 126.65"/><polygon class="cls-119" points="32.38 126.65 32.23 126.64 33.48 102.27 33.63 102.28 32.38 126.65"/></g><polygon class="cls-120" points="34.87 126.59 34.72 126.58 36.53 96.4 36.68 96.41 34.87 126.59"/><rect class="cls-121" x="313.24" y="252.01" width="30.56" height="0.16" transform="translate(-231.87 426) rotate(-86.95)"/><polygon class="cls-122" points="38.3 126.56 38.14 126.56 39.87 95.71 40.02 95.72 38.3 126.56"/><rect class="cls-123" x="322.88" y="251.19" width="32.4" height="0.16" transform="translate(-218.17 438.14) rotate(-87.46)"/><rect class="cls-124" x="324.63" y="251.05" width="32.81" height="0.16" transform="matrix(0.05, -1, 1, 0.05, -217.66, 438.75)"/><polygon class="cls-125" points="51.09 126.75 50.94 126.74 52.3 93.72 52.46 93.73 51.09 126.75"/><polygon class="cls-126" points="20.68 103.65 24.99 103.19 25.59 126.56 19.48 126.62 20.68 103.65"/><polygon class="cls-127" points="0 126.5 0.87 112.63 60.6 112.06 60.22 126.72 0 126.5"/><polygon class="cls-128" points="146.47 88.98 170.24 86.06 181.35 88.05 182.57 126.47 145.43 126.62 146.47 88.98"/><polygon class="cls-129" points="170.48 126.52 170.24 86.06 181.35 88.05 182.57 126.47 170.48 126.52"/><polygon class="cls-130" points="145.43 126.62 146.38 91.12 170.26 89.04 170.48 126.52 145.43 126.62"/><polygon class="cls-131" points="170.26 89.04 181.44 89.98 182.57 126.47 170.48 126.52 170.26 89.04"/><g class="cls-6"><rect class="cls-7" x="421.8" y="249.43" width="35.69" height="0.14" transform="translate(-107.72 544.55) rotate(-89.13)"/><rect class="cls-7" x="151.16" y="90.77" width="0.14" height="35.7"/><rect class="cls-7" x="153.7" y="90.48" width="0.14" height="35.99"/><polygon class="cls-7" points="156.45 126.47 156.31 126.47 156.57 90.23 156.71 90.23 156.45 126.47"/><rect class="cls-7" x="159.4" y="89.98" width="0.14" height="36.64"/><rect class="cls-7" x="162.41" y="89.72" width="0.14" height="36.8"/><rect class="cls-7" x="165.99" y="89.4" width="0.14" height="37.06"/><polygon class="cls-7" points="172.97 126.47 172.71 89.4 172.85 89.4 173.11 126.47 172.97 126.47"/><rect class="cls-7" x="466.48" y="230.32" width="0.14" height="36.89" transform="translate(-295.07 -133.32) rotate(-0.91)"/><rect class="cls-7" x="468.87" y="230.32" width="0.14" height="36.89" transform="translate(-295.07 -133.28) rotate(-0.91)"/><rect class="cls-7" x="471.07" y="230.59" width="0.14" height="36.89" transform="translate(-295.07 -133.24) rotate(-0.91)"/></g><polygon class="cls-132" points="144.69 116.68 170.33 115.85 182.25 116.24 182.33 118.92 170.48 118.71 144.62 119.23 144.69 116.68"/><polygon class="cls-133" points="170.62 115.86 170.7 118.71 182.57 118.92 182.57 116.25 170.62 115.86"/><polygon class="cls-134" points="144.62 119.23 145.63 119.46 170.48 119.06 182.34 119.06 182.57 118.92 170.48 118.71 144.62 119.23"/><polygon class="cls-135" points="145.4 104.47 146.12 104.81 170.37 103.97 181.89 104.22 182.33 103.82 170.48 103.43 145.4 104.47"/><polygon class="cls-136" points="145.46 102.19 170.62 100.55 181.8 101.4 181.87 103.82 170.48 103.43 145.4 104.47 145.46 102.19"/><polygon class="cls-137" points="170.48 100.54 170.48 103.43 182.33 103.82 182.33 101.43 170.48 100.54"/><polygon class="cls-138" points="170.48 119.06 170.7 118.71 182.57 118.92 182.35 119.23 170.48 119.06"/><polygon class="cls-138" points="170.24 103.98 170.48 103.43 182.33 103.82 181.89 104.22 170.24 103.98"/><polygon class="cls-139" points="145.43 126.62 145.88 109.69 181.87 108.76 182.57 126.47 145.43 126.62"/><polygon class="cls-140" points="98.66 103.13 107.33 102.91 107.97 126.47 97.98 126.61 98.66 103.13"/><polygon class="cls-141" points="80.14 126.61 81.33 97.78 93.02 97.02 93.09 126.64 80.14 126.61"/><polygon class="cls-142" points="93.02 97.02 99.87 97.94 100.33 126.6 93.09 126.64 93.02 97.02"/><polygon class="cls-143" points="81.17 100.96 92.9 100.36 99.87 100.96 99.97 102.93 92.9 102.33 81.1 102.68 81.17 100.96"/><polygon class="cls-144" points="80.94 106.39 93.02 106.05 99.97 106.4 100.04 108.37 93.09 107.99 80.87 108.1 80.94 106.39"/><polygon class="cls-145" points="80.78 111.26 93.05 110.94 100.04 111.29 100.04 113.26 93.06 112.88 80.7 112.97 80.78 111.26"/><polygon class="cls-146" points="80.56 116.52 93.02 116.19 100.17 116.57 100.17 118.54 93.07 118.15 80.48 118.23 80.56 116.52"/><polygon class="cls-147" points="80.32 122.11 92.82 121.78 100.25 121.98 100.25 123.9 92.87 123.74 80.25 123.82 80.32 122.11"/><polygon class="cls-148" points="93.07 100.36 93.07 102.35 99.97 102.93 99.87 100.96 93.07 100.36"/><polygon class="cls-149" points="93.02 106.05 93.09 107.99 100.04 108.37 99.97 106.4 93.02 106.05"/><polygon class="cls-150" points="93.05 110.94 93.06 112.88 100.12 113.26 100.08 111.33 93.05 110.94"/><polygon class="cls-149" points="93.02 116.19 93.07 118.15 100.17 118.54 100.17 116.57 93.02 116.19"/><polygon class="cls-150" points="93.02 121.78 93.05 123.74 100.25 123.9 100.25 121.98 93.02 121.78"/><rect class="cls-151" y="126.53" width="199.17" height="0.83"/><path class="cls-152" d="M346.51,163.22l1.52,1.69a8.57,8.57,0,0,1,2.2,5.73v4.71h.16v-4.11a8.51,8.51,0,0,1,2.93-6.44l1.8-1.58Z" transform="translate(-291.19 -140.73)"/><path class="cls-153" d="M350.52,175.48h-.42v-4.84a8.41,8.41,0,0,0-2.17-5.64l-1.72-1.91h9.26l-2.07,1.81a8.42,8.42,0,0,0-2.88,6.34Zm-3.71-12.12,1.32,1.46a8.66,8.66,0,0,1,2.21,5.18,8.68,8.68,0,0,1,2.89-5.3l1.54-1.34Z" transform="translate(-291.19 -140.73)"/><circle class="cls-154" cx="350.81" cy="158.54" r="6.37" transform="translate(-153.35 338.5) rotate(-80.73)"/><path class="cls-153" d="M350.81,165a6.5,6.5,0,1,1,6.5-6.49A6.5,6.5,0,0,1,350.81,165Zm0-12.73a6.24,6.24,0,1,0,6.24,6.24A6.25,6.25,0,0,0,350.81,152.3Z" transform="translate(-291.19 -140.73)"/><path class="cls-153" d="M354.58,158.42a5.06,5.06,0,0,0-7.53,0l-.55-.49a5.8,5.8,0,0,1,8.62,0Z" transform="translate(-291.19 -140.73)"/><path class="cls-153" d="M354.57,158.61l-.09-.1a4.95,4.95,0,0,0-7.34,0l-.08.1-.74-.67.09-.1a5.93,5.93,0,0,1,8.81,0l.09.1Zm-7.88-.69.35.31a5.21,5.21,0,0,1,7.55,0l.34-.31a5.68,5.68,0,0,0-8.24,0Z" transform="translate(-291.19 -140.73)"/><path class="cls-153" d="M353.84,159.16l-.49.48h0a3.31,3.31,0,0,0-5,0l0,0-.49-.47a4,4,0,0,1,3-1.38A4,4,0,0,1,353.84,159.16Z" transform="translate(-291.19 -140.73)"/><path class="cls-153" d="M348.31,159.85l-.14-.12-.58-.57.08-.09a4.2,4.2,0,0,1,3.14-1.42,4.14,4.14,0,0,1,3.13,1.42l.09.1-.72.66-.09-.08a3.19,3.19,0,0,0-4.82,0Zm-.35-.7.33.32a3.46,3.46,0,0,1,5,0l.33-.32a3.9,3.9,0,0,0-5.7,0Z" transform="translate(-291.19 -140.73)"/><path class="cls-153" d="M352.68,160.29l-.53.51a1.66,1.66,0,0,0-2.68,0l-.53-.51a2.41,2.41,0,0,1,1.87-.9A2.38,2.38,0,0,1,352.68,160.29Z" transform="translate(-291.19 -140.73)"/><path class="cls-153" d="M352.13,161l-.09-.13a1.53,1.53,0,0,0-2.47,0l-.09.11-.72-.69.08-.09a2.53,2.53,0,0,1,3.94,0l.08.1Zm-3-.72.33.32a1.82,1.82,0,0,1,1.36-.61,1.8,1.8,0,0,1,1.35.61l.34-.32a2.26,2.26,0,0,0-3.38,0Z" transform="translate(-291.19 -140.73)"/><path class="cls-155" d="M474.65,171l1.52,1.69a8.53,8.53,0,0,1,2.2,5.73v4.7h.15V179a8.58,8.58,0,0,1,2.93-6.45l1.81-1.57Z" transform="translate(-291.19 -140.73)"/><path class="cls-153" d="M478.66,183.26h-.42v-4.84a8.39,8.39,0,0,0-2.17-5.64l-1.72-1.92h9.26l-2.07,1.81a8.43,8.43,0,0,0-2.88,6.35Zm-3.72-12.13,1.33,1.47a8.66,8.66,0,0,1,2.21,5.18,8.65,8.65,0,0,1,2.89-5.31l1.53-1.34Z" transform="translate(-291.19 -140.73)"/><circle class="cls-156" cx="187.76" cy="25.58" r="6.37"/><path class="cls-153" d="M479,172.81a6.5,6.5,0,1,1,6.5-6.5A6.51,6.51,0,0,1,479,172.81Zm0-12.73a6.23,6.23,0,1,0,6.24,6.23A6.24,6.24,0,0,0,479,160.08Z" transform="translate(-291.19 -140.73)"/><path class="cls-153" d="M481.17,164h-4.43a.77.77,0,0,0-.77.77v3.07a.77.77,0,0,0,.77.78h4.43a.78.78,0,0,0,.77-.78v-3.07A.78.78,0,0,0,481.17,164Zm-1.08,2.7h-.76v.76h-.79v-.76h-.75v-.79h.75v-.75h.79v.75h.76Zm-.62.89h-1.06v-.75h-.76v-1.06h.76V165h1.06v.76h.75v1.06h-.75Zm-.79-.26h.52v-.76H480v-.52h-.76v-.76h-.52v.76h-.76v.52h.76Z" transform="translate(-291.19 -140.73)"/><path class="cls-153" d="M480.67,164.31h-3.48v-.43a.82.82,0,0,1,.82-.82h1.84a.82.82,0,0,1,.82.82Zm-3.13-.35h2.78v-.08a.47.47,0,0,0-.47-.47H478a.47.47,0,0,0-.47.47Z" transform="translate(-291.19 -140.73)"/><path class="cls-153" d="M480.8,164.44h-3.74v-.56a1,1,0,0,1,.95-.95h1.84a.94.94,0,0,1,.95.95Zm-3.47-.26h3.21v-.3a.69.69,0,0,0-.69-.69H478a.68.68,0,0,0-.68.69Zm3.13-.09h-3v-.21a.6.6,0,0,1,.6-.61h1.84a.61.61,0,0,1,.61.61Zm-2.78-.26h2.51a.35.35,0,0,0-.34-.29H478A.33.33,0,0,0,477.68,163.83Z" transform="translate(-291.19 -140.73)"/><path class="cls-157" d="M460.76,213.46l1.52,1.69a8.55,8.55,0,0,1,2.2,5.73v4.71h.16v-4.11a8.51,8.51,0,0,1,2.93-6.44l1.8-1.58Z" transform="translate(-291.19 -140.73)"/><path class="cls-153" d="M464.77,225.72h-.42v-4.84a8.41,8.41,0,0,0-2.17-5.64l-1.72-1.91h9.26l-2.07,1.81a8.42,8.42,0,0,0-2.88,6.34Zm-3.71-12.13,1.32,1.47a8.66,8.66,0,0,1,2.21,5.18,8.68,8.68,0,0,1,2.89-5.3l1.54-1.35Z" transform="translate(-291.19 -140.73)"/><circle class="cls-158" cx="173.87" cy="68.04" r="6.37"/><path class="cls-153" d="M465.06,215.27a6.5,6.5,0,1,1,6.5-6.49A6.5,6.5,0,0,1,465.06,215.27Zm0-12.73a6.24,6.24,0,1,0,6.24,6.24A6.25,6.25,0,0,0,465.06,202.54Z" transform="translate(-291.19 -140.73)"/><path class="cls-153" d="M466.86,209.66h-4.07a.16.16,0,0,1-.16-.11l-1.05-2.48a.17.17,0,0,1,0-.17.19.19,0,0,1,.15-.08H467a.18.18,0,0,1,.17.18.18.18,0,0,1-.17.17h-5l.9,2.14h3.82l.94-3.49a.2.2,0,0,1,.09-.11l.43-.23a.17.17,0,0,1,.23.07.17.17,0,0,1-.07.24L468,206l-1,3.55A.17.17,0,0,1,466.86,209.66Z" transform="translate(-291.19 -140.73)"/><path class="cls-153" d="M466.86,209.79h-4.07a.3.3,0,0,1-.29-.19l-1.05-2.48a.33.33,0,0,1,0-.29.3.3,0,0,1,.26-.14H467a.28.28,0,0,1,.23.11l.28-1a.29.29,0,0,1,.15-.19l.43-.23a.3.3,0,0,1,.41.13.26.26,0,0,1,0,.23.28.28,0,0,1-.14.18l-.32.17-.94,3.5A.3.3,0,0,1,466.86,209.79ZM461.74,207s0,0,0,0,0,0,0,0l1.05,2.49s0,0,0,0h4.07l0,0,1-3.61.41-.22,0-.06a0,0,0,0,0-.06,0l-.43.23-1,3.61h-4l-1-2.4H467a0,0,0,1,0,0-.08Zm1.25,2.22h3.63l.51-1.89H462.2Z" transform="translate(-291.19 -140.73)"/><path class="cls-153" d="M463.88,209.13a.19.19,0,0,1-.17-.12l-.44-1.5a.17.17,0,0,1,.12-.22.17.17,0,0,1,.21.12l.45,1.5a.19.19,0,0,1-.12.22Z" transform="translate(-291.19 -140.73)"/><path class="cls-153" d="M463.88,209.27a.3.3,0,0,1-.29-.22l-.45-1.5a.34.34,0,0,1,0-.24.28.28,0,0,1,.18-.14.27.27,0,0,1,.23,0,.3.3,0,0,1,.15.18l.44,1.5a.29.29,0,0,1,0,.24.28.28,0,0,1-.18.14Zm-.46-1.85,0,.05.44,1.5a0,0,0,0,0,.05,0l0-.05-.45-1.5h0Z" transform="translate(-291.19 -140.73)"/><path class="cls-153" d="M465.54,209.13h0a.17.17,0,0,1-.15-.2l.22-1.49a.16.16,0,0,1,.19-.15.17.17,0,0,1,.15.19l-.21,1.5A.18.18,0,0,1,465.54,209.13Z" transform="translate(-291.19 -140.73)"/><path class="cls-153" d="M465.54,209.27h0a.3.3,0,0,1-.26-.34l.21-1.5a.36.36,0,0,1,.13-.21.25.25,0,0,1,.22-.05.3.3,0,0,1,.26.34l-.21,1.5A.32.32,0,0,1,465.54,209.27Zm.22-1.85,0,0-.22,1.5s0,.05,0,.05h0a0,0,0,0,0,0,0l.22-1.49S465.79,207.42,465.76,207.42Z" transform="translate(-291.19 -140.73)"/><circle class="cls-153" cx="172.47" cy="71" r="0.62"/><path class="cls-153" d="M463.66,212.48a.75.75,0,1,1,.75-.75A.76.76,0,0,1,463.66,212.48Zm0-1.23a.48.48,0,0,0-.48.48.47.47,0,0,0,.48.48.48.48,0,0,0,.48-.48A.49.49,0,0,0,463.66,211.25Z" transform="translate(-291.19 -140.73)"/><path class="cls-153" d="M466.6,211.73a.61.61,0,0,1-.61.62.62.62,0,0,1-.62-.62.61.61,0,0,1,.62-.61A.61.61,0,0,1,466.6,211.73Z" transform="translate(-291.19 -140.73)"/><path class="cls-153" d="M466,212.48a.75.75,0,1,1,.74-.75A.75.75,0,0,1,466,212.48Zm0-1.23a.49.49,0,0,0-.49.48.49.49,0,1,0,.49-.48Z" transform="translate(-291.19 -140.73)"/><path class="cls-153" d="M466.44,211.2H463a.18.18,0,0,1-.17-.18.18.18,0,0,1,.17-.17h3.27l.42-1.58a.19.19,0,0,1,.22-.12.18.18,0,0,1,.12.21l-.46,1.71A.18.18,0,0,1,466.44,211.2Z" transform="translate(-291.19 -140.73)"/><path class="cls-153" d="M466.44,211.33H463a.3.3,0,0,1-.3-.31.29.29,0,0,1,.3-.3h3.17l.4-1.48A.31.31,0,0,1,467,209a.32.32,0,0,1,.22.38l-.46,1.7A.31.31,0,0,1,466.44,211.33ZM463,211a0,0,0,0,0,0,.08h3.4s0,0,0,0l.46-1.7s0,0,0-.05,0,0-.05,0l-.45,1.67Z" transform="translate(-291.19 -140.73)"/><path class="cls-159" d="M374.75,224l1.53,1.69a8.58,8.58,0,0,1,2.2,5.73v4.7h.15V232a8.58,8.58,0,0,1,2.93-6.45l1.81-1.57Z" transform="translate(-291.19 -140.73)"/><path class="cls-153" d="M378.77,236.27h-.42v-4.84a8.39,8.39,0,0,0-2.17-5.64l-1.72-1.92h9.26l-2.07,1.81a8.44,8.44,0,0,0-2.88,6.35Zm-3.72-12.13,1.33,1.47a8.66,8.66,0,0,1,2.21,5.18,8.65,8.65,0,0,1,2.89-5.31l1.53-1.34Z" transform="translate(-291.19 -140.73)"/><circle class="cls-160" cx="87.87" cy="78.59" r="6.37"/><path class="cls-153" d="M379.06,225.82a6.5,6.5,0,1,1,6.5-6.5A6.51,6.51,0,0,1,379.06,225.82Zm0-12.73a6.23,6.23,0,1,0,6.23,6.23A6.23,6.23,0,0,0,379.06,213.09Z" transform="translate(-291.19 -140.73)"/><path class="cls-153" d="M379.06,222.81a3.6,3.6,0,1,1,3.6-3.6A3.6,3.6,0,0,1,379.06,222.81Zm0-6.86a3.26,3.26,0,1,0,3.26,3.26A3.26,3.26,0,0,0,379.06,216Z" transform="translate(-291.19 -140.73)"/><path class="cls-153" d="M379.06,222.94a3.74,3.74,0,1,1,3.74-3.73A3.74,3.74,0,0,1,379.06,222.94Zm0-7.2a3.47,3.47,0,1,0,3.47,3.47A3.47,3.47,0,0,0,379.06,215.74Zm0,6.86a3.39,3.39,0,1,1,3.39-3.39A3.39,3.39,0,0,1,379.06,222.6Zm0-6.51a3.12,3.12,0,1,0,3.12,3.12A3.12,3.12,0,0,0,379.06,216.09Z" transform="translate(-291.19 -140.73)"/><path class="cls-153" d="M377.14,217.43a4.66,4.66,0,0,1,1.27-.32c.46,0,.28.09.49.16s.58-.14,1.4-.28a3.12,3.12,0,0,1,1.47.12l.47.82a2.69,2.69,0,0,0-.79.28,2.28,2.28,0,0,1-.9.37c-.27,0-.78.3-1,.31s-.05-.33-.1-.41-.44-.07-.4.05.17.54.43.68.5.2.48.65a11.58,11.58,0,0,1-.81,1.94,1.26,1.26,0,0,0-.1.84l-.34-.06a2.82,2.82,0,0,1-1.25-1.34,4.13,4.13,0,0,1-.43-1.38c0-.26.62-.28.86-.5s.56-.16.64-.26.13-.29,0-.34-.55.21-.8.13-.9-.4-.9-.51-.08-.24,0-.38S377.14,217.43,377.14,217.43Z" transform="translate(-291.19 -140.73)"/><path class="cls-153" d="M379.27,222.8l-.61-.1a3,3,0,0,1-1.32-1.41c0-.13-.09-.25-.14-.36a2.82,2.82,0,0,1-.29-1.09c0-.23.28-.32.53-.4a1.28,1.28,0,0,0,.37-.17,1,1,0,0,1,.5-.22l.13,0a.22.22,0,0,0,.05-.11l-.11,0a1.07,1.07,0,0,1-.63.09s-1-.37-1-.64a.51.51,0,0,0,0-.09.43.43,0,0,1,0-.36,5.31,5.31,0,0,0,.23-.55l0,0,0,0a4.81,4.81,0,0,1,1.32-.33c.3,0,.38,0,.46.12a.12.12,0,0,0,.07,0,.93.93,0,0,0,.44-.07,9,9,0,0,1,.9-.21,3.29,3.29,0,0,1,1.54.13h.05l.58,1-.18,0a2.67,2.67,0,0,0-.73.25,2.29,2.29,0,0,1-1,.4,4,4,0,0,0-.47.15,1.8,1.8,0,0,1-.53.16.23.23,0,0,1-.12,0l.11.08.07,0a.68.68,0,0,1,.47.73,3.76,3.76,0,0,1-.46,1.22c-.13.27-.27.55-.35.77a1.22,1.22,0,0,0-.11.74Zm-.51-.35.14,0a1.83,1.83,0,0,1,.14-.72,6,6,0,0,1,.36-.79,3.94,3.94,0,0,0,.44-1.12c0-.31-.1-.37-.33-.48l-.08,0a1.33,1.33,0,0,1-.49-.76.19.19,0,0,1,.11-.24c.12-.05.43-.07.52.08s0,.15,0,.24,0,.07,0,.1a2.11,2.11,0,0,0,.43-.14,4.17,4.17,0,0,1,.52-.16,2.23,2.23,0,0,0,.83-.34,2.48,2.48,0,0,1,.68-.27l-.36-.62a3,3,0,0,0-1.36-.09,7.62,7.62,0,0,0-.87.19,1,1,0,0,1-.59.08.52.52,0,0,1-.19-.12s0,0-.26,0a4.21,4.21,0,0,0-1.17.3c-.05.12-.16.4-.23.52a.24.24,0,0,0,0,.17.5.5,0,0,1,0,.12,3.89,3.89,0,0,0,.82.41.9.9,0,0,0,.46-.08c.17-.06.27-.09.36,0a.23.23,0,0,1,.1.16.54.54,0,0,1-.12.39.52.52,0,0,1-.28.12.64.64,0,0,0-.37.15,1.38,1.38,0,0,1-.47.23c-.14.05-.34.12-.35.19a2.94,2.94,0,0,0,.28,1l.14.37A2.74,2.74,0,0,0,378.76,222.45Zm.45-3.89.1.24a1.23,1.23,0,0,1,0-.19v-.05Z" transform="translate(-291.19 -140.73)"/><path class="cls-153" d="M380.61,221.1c0-.42,0-.48.18-.56s.48-.43.84-.43a1.18,1.18,0,0,1,.61.16s-.23,1-.71,1.22S380.61,221.1,380.61,221.1Z" transform="translate(-291.19 -140.73)"/><path class="cls-153" d="M381.32,221.67a1.17,1.17,0,0,1-.81-.49l0,0v0c0-.42,0-.56.26-.68a1.17,1.17,0,0,0,.16-.11,1.14,1.14,0,0,1,1.42-.15l.07.05,0,.09c0,.11-.26,1.08-.78,1.31A.66.66,0,0,1,381.32,221.67Zm-.57-.62c.09.11.41.46.73.32s.52-.72.61-1a1.17,1.17,0,0,0-.46-.1,1.1,1.1,0,0,0-.57.28,1,1,0,0,1-.21.14C380.76,220.7,380.75,220.71,380.75,221.05Z" transform="translate(-291.19 -140.73)"/><path class="cls-153" d="M376.53,217.06a2.47,2.47,0,0,0,.94-.35c.41-.28.46-.44.79-.51s.7-.13.8-.28A2.92,2.92,0,0,0,376.53,217.06Z" transform="translate(-291.19 -140.73)"/><path class="cls-153" d="M376.27,217.23l.15-.24a3,3,0,0,1,2.65-1.2l.24,0-.14.19c-.13.18-.49.25-.86.33a.85.85,0,0,0-.42.22,2.52,2.52,0,0,1-1.34.64Zm1.64-1a2.34,2.34,0,0,0-1.06.65,2,2,0,0,0,.54-.25,2.79,2.79,0,0,0,.33-.25Z" transform="translate(-291.19 -140.73)"/><path class="cls-153" d="M302.57,165.21l-.13-.11a68.79,68.79,0,0,1,14-12.37,67.86,67.86,0,0,1,39-12c17.16.26,28.15,6.08,34.36,10.92a35.66,35.66,0,0,1,9.44,10.55l-.15.08a35.59,35.59,0,0,0-9.41-10.5c-6.18-4.82-17.14-10.61-34.25-10.88a67.81,67.81,0,0,0-38.85,12A68.82,68.82,0,0,0,302.57,165.21Z" transform="translate(-291.19 -140.73)"/><path class="cls-153" d="M465.9,201a64.94,64.94,0,0,0-7.27-25.86c-6.39-12.15-19.88-27.32-47.8-30.59a166.86,166.86,0,0,0-77.08,8.79c-18.09,6.69-28.41,14.4-28.51,14.48l-.11-.14c.1-.08,10.44-7.81,28.56-14.5a161,161,0,0,1,33.3-8.37,171.06,171.06,0,0,1,43.86-.43c12.36,1.45,23,5.32,31.49,11.52a55.12,55.12,0,0,1,16.45,19.17A65,65,0,0,1,466.07,201Z" transform="translate(-291.19 -140.73)"/><path class="cls-161" d="M297.69,174.92l1.52,1.69a8.53,8.53,0,0,1,2.2,5.73V207.9h.15v-25a8.58,8.58,0,0,1,2.93-6.45l1.81-1.57Z" transform="translate(-291.19 -140.73)"/><path class="cls-153" d="M301.7,208h-.42V182.34a8.39,8.39,0,0,0-2.17-5.64l-1.72-1.92h9.26l-2.07,1.81a8.44,8.44,0,0,0-2.88,6.35Zm-3.72-33,1.33,1.47a8.66,8.66,0,0,1,2.21,5.18,8.68,8.68,0,0,1,2.89-5.31l1.53-1.34Z" transform="translate(-291.19 -140.73)"/><circle class="cls-162" cx="301.99" cy="170.23" r="6.37" transform="translate(-333.54 -10.63) rotate(-22.76)"/><path class="cls-153" d="M302,176.73a6.5,6.5,0,1,1,6.5-6.5A6.51,6.51,0,0,1,302,176.73ZM302,164a6.23,6.23,0,1,0,6.23,6.23A6.23,6.23,0,0,0,302,164Z" transform="translate(-291.19 -140.73)"/><path class="cls-163" d="M302.67,167.86a2.1,2.1,0,0,0-1.8,0c-2.72,1.28.9,5.7.9,5.7S305.39,169.14,302.67,167.86Zm-.9,2.53a.74.74,0,0,1,0-1.47.74.74,0,0,1,0,1.47Z" transform="translate(-291.19 -140.73)"/><path class="cls-153" d="M301.77,173.77l-.1-.13c-.1-.11-2.31-2.84-1.89-4.67a1.74,1.74,0,0,1,1-1.23,2.23,2.23,0,0,1,1.92,0h0a1.77,1.77,0,0,1,1,1.23c.41,1.83-1.8,4.56-1.9,4.67Zm0-6a2,2,0,0,0-.85.19A1.45,1.45,0,0,0,300,169c-.34,1.49,1.3,3.75,1.73,4.31.43-.56,2.07-2.82,1.74-4.31a1.48,1.48,0,0,0-.89-1.05h0A2,2,0,0,0,301.77,167.79Zm0,2.73a.87.87,0,1,1,.87-.87A.87.87,0,0,1,301.77,170.52Zm0-1.47a.6.6,0,1,0,.6.6A.6.6,0,0,0,301.77,169.05Z" transform="translate(-291.19 -140.73)"/><path class="cls-164" d="M394.86,171.53l1.52,1.69a8.57,8.57,0,0,1,2.2,5.73v25.57h.16v-25a8.55,8.55,0,0,1,2.93-6.45l1.8-1.58Z" transform="translate(-291.19 -140.73)"/><path class="cls-153" d="M398.87,204.65h-.42V179a8.41,8.41,0,0,0-2.17-5.64l-1.72-1.91h9.27l-2.07,1.81a8.4,8.4,0,0,0-2.89,6.35Zm-3.71-33,1.32,1.47a8.66,8.66,0,0,1,2.21,5.18,8.68,8.68,0,0,1,2.89-5.31l1.54-1.34Z" transform="translate(-291.19 -140.73)"/><circle class="cls-165" cx="107.97" cy="26.11" r="6.37"/><path class="cls-153" d="M399.17,173.34a6.5,6.5,0,1,1,6.49-6.49A6.5,6.5,0,0,1,399.17,173.34Zm0-12.73a6.24,6.24,0,1,0,6.23,6.24A6.25,6.25,0,0,0,399.17,160.61Z" transform="translate(-291.19 -140.73)"/><path class="cls-163" d="M400.75,164.61h-3.52a.68.68,0,0,0-.68.68v2.39a.68.68,0,0,0,.68.68h3.18l1,.73v-3.8A.68.68,0,0,0,400.75,164.61ZM398,166.8a.31.31,0,1,1,.31-.31A.31.31,0,0,1,398,166.8Zm1.13,0a.31.31,0,1,1,.31-.31A.31.31,0,0,1,399.09,166.8Zm1.13,0a.31.31,0,1,1,.31-.31A.31.31,0,0,1,400.22,166.8Zm0,.13a.44.44,0,0,1-.45-.44.45.45,0,0,1,.89,0A.44.44,0,0,1,400.22,166.93Zm0-.61a.17.17,0,0,0-.18.17.18.18,0,0,0,.18.18.18.18,0,0,0,.17-.18A.17.17,0,0,0,400.22,166.32Z" transform="translate(-291.19 -140.73)"/></g></g></svg>