<svg id="Layer_1" data-name="Layer 1" xmlns="http://www.w3.org/2000/svg" xmlns:xlink="http://www.w3.org/1999/xlink" viewBox="0 0 99.96 30"><defs><style>.cls-1{fill:#fff;}.cls-1,.cls-10,.cls-2,.cls-3,.cls-4,.cls-5,.cls-6,.cls-7,.cls-8,.cls-9{fill-rule:evenodd;}.cls-2{fill:#009cd8;}.cls-3{fill:#3a6cb4;}.cls-4{fill:url(#GradientFill_1);}.cls-5{fill:url(#GradientFill_1-2);}.cls-6{fill:#19215c;}.cls-7{fill:url(#GradientFill_2);}.cls-8{fill:url(#GradientFill_2-2);}.cls-9{fill:url(#GradientFill_1-3);}.cls-10{fill:#f4f7fc;}.cls-11{fill:none;}.cls-12{fill:#131e67;}.cls-13{fill:#29a0da;}</style><linearGradient id="GradientFill_1" x1="13.84" y1="9.53" x2="28.46" y2="9.53" gradientUnits="userSpaceOnUse"><stop offset="0" stop-color="#009cd8"/><stop offset="1" stop-color="#006893"/></linearGradient><linearGradient id="GradientFill_1-2" x1="2.67" y1="19.74" x2="3.94" y2="19.74" xlink:href="#GradientFill_1"/><linearGradient id="GradientFill_2" x1="7.71" y1="17.15" x2="12.48" y2="14.52" gradientUnits="userSpaceOnUse"><stop offset="0" stop-color="#20286a"/><stop offset="0.33" stop-color="#1a2158"/><stop offset="0.99" stop-color="#091028"/><stop offset="1" stop-color="#091027"/></linearGradient><linearGradient id="GradientFill_2-2" x1="10.33" y1="27.78" x2="15.34" y2="22.64" xlink:href="#GradientFill_2"/><linearGradient id="GradientFill_1-3" x1="2.55" y1="11.32" x2="10.21" y2="11.32" xlink:href="#GradientFill_1"/></defs><path class="cls-1" d="M28.56,11.23c-.43-.8-.33-1.54.21-1.66s1.33.44,1.75,1.24.33,1.54-.21,1.66S29,12,28.56,11.23Z" transform="translate(0)"/><path class="cls-1" d="M28.34,10.36h0a4.84,4.84,0,0,0,.23,1,3.89,3.89,0,0,0,.62,1c-.41.33-.86.59-1.29.89-1.59,1.05-3.21,2-4.84,3A29.6,29.6,0,0,1,20,17.69a43.53,43.53,0,0,1-4.82,1.86,32.7,32.7,0,0,1-4.1,1c-.28.06-.57.07-.84.15a4,4,0,0,0,.77,0,23.17,23.17,0,0,0,6.21-1.26,25.81,25.81,0,0,0,2.52-1,44.58,44.58,0,0,0,4.51-2.31c.69-.39,1.38-.81,2.06-1.24,1.16-.74,2.31-1.51,3.44-2.34,0-.11-.09-.15-.14-.2a2.9,2.9,0,0,1-.81-1,8.63,8.63,0,0,0-.34-1.19C28.39,10.25,28.32,10.26,28.34,10.36Z" transform="translate(0)"/><path class="cls-1" d="M2.15,6.65h0a10.44,10.44,0,0,0-.79,1.44,9.36,9.36,0,0,0-.88,3.18,8,8,0,0,0,.37,3.29,6.73,6.73,0,0,0,2.31,3.35,7.33,7.33,0,0,0,2.32,1.26,9.26,9.26,0,0,0,1.77.41.26.26,0,0,0-.16-.09A11.45,11.45,0,0,1,5,18.65a9,9,0,0,1-1.74-1.2,7,7,0,0,1-1.42-1.61,6.64,6.64,0,0,1-.59-1.16A6.88,6.88,0,0,1,.9,10.1a13.89,13.89,0,0,1,.47-1.59,14.53,14.53,0,0,1,.95-2l.15-.28A2.14,2.14,0,0,0,2.15,6.65Z" transform="translate(0)"/><path class="cls-1" d="M2.45,6.23a3,3,0,0,1-.18.36c-3.68,7.08-.82,11.54,5.2,13.65a11,11,0,0,1-1.86-.4,7.89,7.89,0,0,1-5-4.75A10,10,0,0,1,2.45,6.23Z" transform="translate(0)"/><path class="cls-1" d="M29.89,11.65a1.14,1.14,0,0,1,.17-.15l.06.13A.44.44,0,0,1,29.89,11.65Z" transform="translate(0)"/><path class="cls-1" d="M31.48,8.36a.3.3,0,0,1,.08-.16l.53-.48.6-.53a.17.17,0,0,1,.22,0l0,0a.08.08,0,0,0-.06,0,.19.19,0,0,0,0,.1.12.12,0,0,0,0,.08.08.08,0,0,0,.09,0A.11.11,0,0,0,33,7.4L33,7.35a.24.24,0,0,1-.08.23L32.53,8l-.68.61a.18.18,0,0,1-.07,0,.2.2,0,0,1-.15,0,.2.2,0,0,1-.11-.09A.28.28,0,0,1,31.48,8.36Z" transform="translate(0)"/><path class="cls-1" d="M33.26,6.81a.15.15,0,0,1,.1-.09.15.15,0,0,1,.11,0,.17.17,0,0,1,.05.12.19.19,0,0,1,0,.12.12.12,0,0,1-.09,0,.11.11,0,0,1-.08,0l-.4.36s0,0,0,0a0,0,0,0,1,0,0s0,0,0,0l.4-.37a.25.25,0,0,1,0-.12Zm.08,0h0a.06.06,0,0,0,0,.06.06.06,0,0,0,.08,0,.09.09,0,0,0,0-.1A.05.05,0,0,0,33.34,6.85Z" transform="translate(0)"/><path class="cls-1" d="M29.22,10.29l0,0,.68-.61,0,0a.2.2,0,0,1,.16,0,.18.18,0,0,1,.12.09h0a.28.28,0,0,1,0,.13.3.3,0,0,1-.08.21l-.06.06-.66.58a.2.2,0,0,1-.14.06.23.23,0,0,1-.16-.1h0a.28.28,0,0,1,0-.22A.31.31,0,0,1,29.22,10.29Z" transform="translate(0)"/><path class="cls-1" d="M29.9,9.68l0,0L30.62,9l0,0a.17.17,0,0,1,.15,0,.22.22,0,0,1,.12.09h0a.33.33,0,0,1,0,.13.24.24,0,0,1-.08.21l-.06.06-.66.59a.24.24,0,0,1-.14,0,.21.21,0,0,1-.15-.09v0a.28.28,0,0,1,0-.22A.31.31,0,0,1,29.9,9.68Z" transform="translate(0)"/><path class="cls-1" d="M30.62,9s0,0,0,0l.68-.61,0,0a.2.2,0,0,1,.16,0,.22.22,0,0,1,.12.09h0a.28.28,0,0,1,0,.13.3.3,0,0,1-.08.21l-.06.06-.66.59a.24.24,0,0,1-.14.05.23.23,0,0,1-.16-.1h0a.28.28,0,0,1,0-.22A.31.31,0,0,1,30.62,9Z" transform="translate(0)"/><path class="cls-1" d="M31.3,8.43l0,0L32,7.78l0,0a.17.17,0,0,1,.15,0,.22.22,0,0,1,.12.09h0a.33.33,0,0,1,0,.13.24.24,0,0,1-.08.21l-.06.06-.66.59a.24.24,0,0,1-.14,0,.19.19,0,0,1-.15-.09v0a.28.28,0,0,1,0-.22A.31.31,0,0,1,31.3,8.43Z" transform="translate(0)"/><path class="cls-1" d="M31.64,9.08a.26.26,0,0,1,.09-.15l.54-.46L32.88,8a.2.2,0,0,1,.23,0l0,0A.1.1,0,0,0,33,8a.17.17,0,0,0,0,.1.12.12,0,0,0,0,.08.08.08,0,0,0,.09,0,.11.11,0,0,0,.07-.06s0,0,.05-.05a.3.3,0,0,1-.08.24l-.42.36c-.24.19-.47.39-.7.59l-.07,0a.19.19,0,0,1-.15,0,.17.17,0,0,1-.11-.09A.28.28,0,0,1,31.64,9.08Z" transform="translate(0)"/><path class="cls-1" d="M33.47,7.59a.14.14,0,0,1,.1-.08.12.12,0,0,1,.11,0,.16.16,0,0,1,0,.12.17.17,0,0,1,0,.12.12.12,0,0,1-.1,0,.11.11,0,0,1-.07,0l-.41.35s0,0,0,0a0,0,0,0,1,0-.05l0,0,.41-.35a.19.19,0,0,1,0-.13Zm.08,0h0a.07.07,0,0,0,0,.06s.05.06.08,0a.07.07,0,0,0,0-.09A0,0,0,0,0,33.55,7.63Z" transform="translate(0)"/><path class="cls-1" d="M29.34,10.93l0,0,.7-.59,0,0a.16.16,0,0,1,.16,0,.18.18,0,0,1,.12.09h0a.31.31,0,0,1,0,.13.3.3,0,0,1-.08.21l-.06.05-.68.57a.24.24,0,0,1-.14,0,.23.23,0,0,1-.15-.1h0a.26.26,0,0,1,0-.23Z" transform="translate(0)"/><path class="cls-1" d="M30,10.35l0,0,.7-.58,0,0a.21.21,0,0,1,.16,0,.19.19,0,0,1,.11.09v0a.28.28,0,0,1,0,.13.3.3,0,0,1-.08.2l-.07.06-.67.56a.17.17,0,0,1-.15,0,.2.2,0,0,1-.15-.1h0a.28.28,0,0,1,0-.22A.44.44,0,0,1,30,10.35Z" transform="translate(0)"/><path class="cls-1" d="M30.77,9.73a.08.08,0,0,0,0,0l.7-.58,0,0a.21.21,0,0,1,.28.07h0a.28.28,0,0,1,0,.13.3.3,0,0,1-.08.21l-.07.05-.67.57a.18.18,0,0,1-.14,0,.19.19,0,0,1-.15-.09v0a.24.24,0,0,1,0-.22A.31.31,0,0,1,30.77,9.73Z" transform="translate(0)"/><path class="cls-1" d="M31.47,9.14l0,0,.7-.59,0,0a.16.16,0,0,1,.15,0,.19.19,0,0,1,.12.09v0a.25.25,0,0,1,0,.12.3.3,0,0,1-.08.21L32.41,9l-.67.56a.21.21,0,0,1-.15.05.22.22,0,0,1-.15-.1h0a.29.29,0,0,1,0-.22A.24.24,0,0,1,31.47,9.14Z" transform="translate(0)"/><path class="cls-1" d="M32.2,9.53a.27.27,0,0,1,.1-.15c.18-.15.37-.29.56-.43s.41-.33.62-.49a.2.2,0,0,1,.23,0l-.05,0a.08.08,0,0,0-.07,0,.1.1,0,0,0,0,.1.16.16,0,0,0,0,.09.1.1,0,0,0,.09,0,.11.11,0,0,0,.07-.06l.06,0a.28.28,0,0,1-.1.23l-.43.34-.72.55-.06.05a.22.22,0,0,1-.16,0,.35.35,0,0,1-.11-.1A.34.34,0,0,1,32.2,9.53Z" transform="translate(0)"/><path class="cls-1" d="M34.08,8.13a.16.16,0,0,1,.1-.08.13.13,0,0,1,.11,0,.16.16,0,0,1,0,.12.15.15,0,0,1,0,.11.16.16,0,0,1-.1.05l-.08,0-.42.33h0s0,0,0,0a.05.05,0,0,1,0,0l.43-.34a.17.17,0,0,1,0-.12Zm.08,0h0a.07.07,0,0,0,0,.06s0,.06.07,0a.07.07,0,0,0,0-.09A0,0,0,0,0,34.16,8.17Z" transform="translate(0)"/><path class="cls-1" d="M29.84,11.27l0,0,.72-.55,0,0a.18.18,0,0,1,.16,0,.19.19,0,0,1,.12.1h0a.29.29,0,0,1-.05.33l-.07.05-.69.54a.28.28,0,0,1-.15,0,.19.19,0,0,1-.14-.11h0a.3.3,0,0,1,0-.23Z" transform="translate(0)"/><path class="cls-1" d="M30.56,10.71l0,0,.72-.55,0,0a.18.18,0,0,1,.16,0,.19.19,0,0,1,.11.09v0a.28.28,0,0,1,0,.13.25.25,0,0,1-.09.2l-.06.05-.7.53a.15.15,0,0,1-.14,0,.18.18,0,0,1-.15-.1h0a.3.3,0,0,1,0-.23A.27.27,0,0,1,30.56,10.71Z" transform="translate(0)"/><path class="cls-1" d="M31.31,10.13l0,0,.72-.55,0,0a.18.18,0,0,1,.16,0,.22.22,0,0,1,.12.09v0a.29.29,0,0,1-.05.33l-.07.05-.69.53a.17.17,0,0,1-.15,0,.16.16,0,0,1-.14-.1h0a.3.3,0,0,1,0-.23Z" transform="translate(0)"/><path class="cls-1" d="M32,9.58l0,0L32.79,9l0,0A.22.22,0,0,1,33,9a.27.27,0,0,1,.11.1v0a.28.28,0,0,1,0,.13.25.25,0,0,1-.09.2l-.06,0-.7.53a.15.15,0,0,1-.14,0,.18.18,0,0,1-.15-.1h0a.31.31,0,0,1,0-.23A.21.21,0,0,1,32,9.58Z" transform="translate(0)"/><path class="cls-1" d="M32.45,10.21a.23.23,0,0,1,.1-.15l.57-.41.64-.45a.18.18,0,0,1,.23,0s0,0-.06,0l-.07,0a.14.14,0,0,0,0,.09.12.12,0,0,0,0,.09.11.11,0,0,0,.09,0s0,0,.07-.05l.06,0a.3.3,0,0,1-.1.22l-.45.32-.74.52-.06,0a.22.22,0,0,1-.16,0,.24.24,0,0,1-.1-.1A.28.28,0,0,1,32.45,10.21Z" transform="translate(0)"/><path class="cls-1" d="M34.37,8.9a.12.12,0,0,1,.1-.07.1.1,0,0,1,.11.05.17.17,0,0,1,0,.12.14.14,0,0,1,0,.11.11.11,0,0,1-.1,0,.12.12,0,0,1-.08,0L34,9.42h0s0,0,0,0,0,0,0-.05L34.35,9a.17.17,0,0,1,0-.12Zm.07,0h0s0,0,0,.06a.07.07,0,0,0,.08,0,.08.08,0,0,0,0-.09A.05.05,0,0,0,34.44,9Z" transform="translate(0)"/><path class="cls-1" d="M30,11.83a.08.08,0,0,1,0,0l.73-.51,0,0a.18.18,0,0,1,.16,0,.29.29,0,0,1,.11.11h0a.31.31,0,0,1,0,.13.27.27,0,0,1-.09.2l-.07.05-.71.5a.21.21,0,0,1-.15,0,.19.19,0,0,1-.14-.11h0a.31.31,0,0,1,0-.23A.22.22,0,0,1,30,11.83Z" transform="translate(0)"/><path class="cls-1" d="M30.76,11.31l0,0,.74-.52,0,0a.2.2,0,0,1,.27.09v0a.28.28,0,0,1,0,.13.29.29,0,0,1-.1.19l-.07.05-.71.5a.2.2,0,0,1-.15,0,.21.21,0,0,1-.14-.11h0a.28.28,0,0,1,0-.22A.21.21,0,0,1,30.76,11.31Z" transform="translate(0)"/><path class="cls-1" d="M31.53,10.77l0,0,.73-.51,0,0a.15.15,0,0,1,.16,0,.19.19,0,0,1,.12.1h0a.31.31,0,0,1,0,.13.25.25,0,0,1-.1.2l-.06,0-.72.5a.17.17,0,0,1-.14,0,.23.23,0,0,1-.15-.11h0a.31.31,0,0,1,0-.23Z" transform="translate(0)"/><path class="cls-1" d="M32.27,10.25l0,0,.74-.52,0,0a.22.22,0,0,1,.16,0,.27.27,0,0,1,.11.1v0a.19.19,0,0,1,0,.13.29.29,0,0,1-.09.2l-.07.05-.71.49a.2.2,0,0,1-.15,0,.21.21,0,0,1-.14-.12h0a.28.28,0,0,1,0-.22A.21.21,0,0,1,32.27,10.25Z" transform="translate(0)"/><path class="cls-1" d="M31.05,7.83a.3.3,0,0,1,.08-.16l.52-.51.57-.56a.2.2,0,0,1,.23,0l-.05,0a.18.18,0,0,0-.07,0,.36.36,0,0,0,0,.1.2.2,0,0,0,0,.08.1.1,0,0,0,.1,0,.09.09,0,0,0,.06-.06l.06,0a.3.3,0,0,1-.08.24l-.4.39L31.43,8l-.06.06a.22.22,0,0,1-.16,0A.31.31,0,0,1,31.1,8,.25.25,0,0,1,31.05,7.83Z" transform="translate(0)"/><path class="cls-1" d="M32.79,6.2a.12.12,0,0,1,.09-.09.13.13,0,0,1,.12,0,.22.22,0,0,1,0,.11.16.16,0,0,1,0,.12.11.11,0,0,1-.09.06.11.11,0,0,1-.08,0l-.39.38,0,0a0,0,0,0,1,0,0l0,0,.39-.39a.17.17,0,0,1,0-.12Zm.08,0h0a.13.13,0,0,0,0,.06s.06,0,.08,0a.08.08,0,0,0,0-.1S32.89,6.2,32.87,6.23Z" transform="translate(0)"/><path class="cls-1" d="M28.86,9.86l0,0,.66-.64,0,0a.19.19,0,0,1,.16,0,.2.2,0,0,1,.12.08h0a.33.33,0,0,1,0,.13.26.26,0,0,1-.07.21l-.06.06-.64.62a.2.2,0,0,1-.14.06.16.16,0,0,1-.15-.09h0a.28.28,0,0,1,0-.22A.31.31,0,0,1,28.86,9.86Z" transform="translate(0)"/><path class="cls-1" d="M29.52,9.22l0,0,.66-.64,0,0a.23.23,0,0,1,.16,0,.2.2,0,0,1,.12.08v0a.17.17,0,0,1,0,.12.26.26,0,0,1-.07.21L30.45,9l-.64.62a.2.2,0,0,1-.14.06.19.19,0,0,1-.15-.08v0a.28.28,0,0,1,0-.22A.31.31,0,0,1,29.52,9.22Z" transform="translate(0)"/><path class="cls-1" d="M30.22,8.54l0,0,.66-.63,0,0a.18.18,0,0,1,.16,0,.23.23,0,0,1,.12.08h0a.28.28,0,0,1,0,.13.26.26,0,0,1-.07.21l-.06.06-.64.62a.2.2,0,0,1-.14.06.22.22,0,0,1-.16-.09h0a.25.25,0,0,1,0-.22A.37.37,0,0,1,30.22,8.54Z" transform="translate(0)"/><path class="cls-1" d="M30.88,7.9l0,0,.66-.63,0,0a.19.19,0,0,1,.16,0,.2.2,0,0,1,.12.08h0a.28.28,0,0,1,0,.13.26.26,0,0,1-.07.21l-.06.06-.64.62a.2.2,0,0,1-.14.06.16.16,0,0,1-.15-.09h0a.28.28,0,0,1,0-.22A.37.37,0,0,1,30.88,7.9Z" transform="translate(0)"/><path class="cls-2" d="M28.56,11.23c-.43-.8-.33-1.54.21-1.66s1.33.44,1.75,1.24.33,1.54-.21,1.66S29,12,28.56,11.23Z" transform="translate(0)"/><path class="cls-3" d="M28.34,10.36h0a4.84,4.84,0,0,0,.23,1,3.89,3.89,0,0,0,.62,1c-.41.33-.86.59-1.29.89-1.59,1.05-3.21,2-4.84,3A29.6,29.6,0,0,1,20,17.69a43.53,43.53,0,0,1-4.82,1.86,32.7,32.7,0,0,1-4.1,1c-.28.06-.57.07-.84.15a4,4,0,0,0,.77,0,23.17,23.17,0,0,0,6.21-1.26,25.81,25.81,0,0,0,2.52-1,44.58,44.58,0,0,0,4.51-2.31c.69-.39,1.38-.81,2.06-1.24,1.16-.74,2.31-1.51,3.44-2.34,0-.11-.09-.15-.14-.2a2.9,2.9,0,0,1-.81-1,8.63,8.63,0,0,0-.34-1.19C28.39,10.25,28.32,10.26,28.34,10.36Z" transform="translate(0)"/><path class="cls-3" d="M2.15,6.65h0a10.44,10.44,0,0,0-.79,1.44,9.36,9.36,0,0,0-.88,3.18,8,8,0,0,0,.37,3.29,6.73,6.73,0,0,0,2.31,3.35,7.33,7.33,0,0,0,2.32,1.26,9.26,9.26,0,0,0,1.77.41.26.26,0,0,0-.16-.09A11.45,11.45,0,0,1,5,18.65a9,9,0,0,1-1.74-1.2,7,7,0,0,1-1.42-1.61,6.64,6.64,0,0,1-.59-1.16A6.88,6.88,0,0,1,.9,10.1a13.89,13.89,0,0,1,.47-1.59,14.53,14.53,0,0,1,.95-2l.15-.28A2.14,2.14,0,0,0,2.15,6.65Z" transform="translate(0)"/><path class="cls-4" d="M16.42,2.77a13.53,13.53,0,0,1,12,7.34v0l-.24.18c-.17.13-.34.25-.51.39l-.24.17-.36.28-.41.3L26,12l-.27.2,0,0-.48.36-.54.39-.44.3c-.37.27-.79.56-1.17.81l-.44.3-.54.35-1,.64-.61.36L20,16l-.49.27L13.84,3A13.68,13.68,0,0,1,16.42,2.77Z" transform="translate(0)"/><path class="cls-5" d="M3.31,21a13.91,13.91,0,0,1-.64-2.58,8.5,8.5,0,0,0,1.27,1.06h0Z" transform="translate(0)"/><path class="cls-6" d="M23.83,27.59a13.53,13.53,0,0,0,5.76-11.07A13.19,13.19,0,0,0,29.12,13c-.1-.37-.21-.73-.34-1.08,0-.12-.08-.23-.13-.35L20.1,18.21Z" transform="translate(0)"/><path class="cls-7" d="M14.39,18.62c-.25.09-.5.15-.75.24l-.56.15-.53.13-.92.18-.26,0-.58.07c-.2,0-.39,0-.58,0s-.41,0-.61,0l-.46,0H9a5.38,5.38,0,0,1-.69-.07c-.17,0-.34-.06-.51-.09l-.19,0L11.25,10Z" transform="translate(0)"/><path class="cls-8" d="M18.46,29.78A12.82,12.82,0,0,1,16,30,13.49,13.49,0,0,1,5.41,24.82L7,20.89l.09,0c.17,0,.38,0,.55,0,2.63-.37,4.6,0,7.32-.7Z" transform="translate(0)"/><path class="cls-9" d="M4.4,18.35C4,18,2.57,18.41,2.55,15.67c0-5.06,3.33-9.31,7.66-11.39Z" transform="translate(0)"/><path class="cls-3" d="M9,.31a3.9,3.9,0,0,1,.47-.2A3.39,3.39,0,0,1,9.94,0C10,.05,7.6,1.47,7.4,1.62A5.92,5.92,0,0,0,6.92,2l-.22.18-.25.2c-.16.14-.33.26-.48.41s-.37.33-.55.51l-.12.12L5,3.71l-.47.51-.24.27L4,4.78c-.3.39-.6.78-.89,1.19a4.65,4.65,0,0,0-.34.52s-.07.1-.1.16a10.57,10.57,0,0,0-.81,1.53,10.15,10.15,0,0,0-.66,2l0,.21c0,.21-.07.41-.09.62s0,.53,0,.8a7.26,7.26,0,0,0,.31,2A7.12,7.12,0,0,0,1.81,15c.1.2.21.39.32.58s.23.36.36.53l.12.15a8.7,8.7,0,0,0,2.84,2.28l.16.08c.17.07.33.15.5.21l.67.23.09,0a5.45,5.45,0,0,0,.58.14c.17,0,.34.07.51.09s.46.07.69.08h.14l.46,0c.2,0,.4,0,.6,0s.39,0,.59,0a5.73,5.73,0,0,0,.58-.07,1.09,1.09,0,0,0,.26,0l.92-.18.53-.13.56-.15c.26-.09.53-.15.79-.25l.45-.17.15-.05c.27-.11.55-.2.81-.32s.36-.16.54-.24a5.45,5.45,0,0,0,.55-.25,5.12,5.12,0,0,0,.53-.25l.54-.27c.37-.18.73-.38,1.08-.58.17-.1.34-.18.5-.28l.45-.27.6-.35,1-.65.54-.35.45-.29,1.17-.81.43-.31c.19-.12.37-.26.55-.39l.47-.35,0,0a1.89,1.89,0,0,0,.27-.2c.26-.18.51-.37.76-.56l.4-.3.37-.28.24-.17.51-.39.42-.31c.14-.11.68-.45.78-.55a2.84,2.84,0,0,0,1.64,2.9s-.46.4-.51.45l-1,.74-.52.37-.51.35c-.34.24-.69.47-1,.69l-.48.32-.67.42c-.13.06-.25.15-.38.22s-.31.2-.47.3h0l-.54.3c-.18.12-.38.22-.57.33l-.53.29c-.19.09-.36.2-.55.29-.37.19-.73.39-1.11.56l-.37.18-.63.28a2.64,2.64,0,0,0-.29.15c-.27.1-.52.21-.78.32l-.54.22c-.26.11-.52.19-.78.31l-.31.11a4.17,4.17,0,0,1-.57.18c-.37.13-.75.22-1.12.36l-.57.16-1,.25-.93.2a1.54,1.54,0,0,0-.3,0,5,5,0,0,1-.54.08l-.46.07-.74.07c-.13,0-.26,0-.38,0l-.49,0H9.75c-.23,0-.45,0-.68,0s-.54,0-.82-.06-.69-.07-1-.14a4.59,4.59,0,0,1-.51-.1A9.65,9.65,0,0,1,1.76,17.8a4.32,4.32,0,0,1-.27-.42,8.32,8.32,0,0,1-.44-.78A10.17,10.17,0,0,1,2,6.1.88.88,0,0,1,2.06,6c.12-.18.25-.34.38-.5.32-.42.67-.8,1-1.18s.59-.59.9-.85c.16-.16.33-.3.5-.44l.39-.34.08-.06c.19-.12.35-.28.53-.4s.34-.26.51-.38c.32-.24.65-.43,1-.64C7.9.9,8.48.6,9,.31Z" transform="translate(0)"/><path class="cls-2" d="M2.45,6.23a3,3,0,0,1-.18.36c-3.68,7.08-.82,11.54,5.2,13.65a11,11,0,0,1-1.86-.4,7.89,7.89,0,0,1-5-4.75A10,10,0,0,1,2.45,6.23Z" transform="translate(0)"/><path class="cls-2" d="M28.38,10.14a3.6,3.6,0,0,0,1.28,2.46c-1.12.83-2.28,1.6-3.44,2.34-.68.43-1.36.84-2.06,1.24a36,36,0,0,1-7,3.3c-2.24.78-6.21,1.57-8.81,1.12a22.23,22.23,0,0,0,7-.91,35.83,35.83,0,0,0,4.39-1.75A32.9,32.9,0,0,0,23,16.19a47.77,47.77,0,0,0,6.13-3.86A2.57,2.57,0,0,1,28.38,10.14Z" transform="translate(0)"/><path class="cls-10" d="M29.89,11.65a1.14,1.14,0,0,1,.17-.15l.06.13A.44.44,0,0,1,29.89,11.65Z" transform="translate(0)"/><path class="cls-6" d="M31.48,8.36a.3.3,0,0,1,.08-.16l.53-.48.6-.53a.17.17,0,0,1,.22,0l0,0a.08.08,0,0,0-.06,0,.19.19,0,0,0,0,.1.12.12,0,0,0,0,.08.08.08,0,0,0,.09,0A.11.11,0,0,0,33,7.4L33,7.35a.24.24,0,0,1-.08.23L32.53,8l-.68.61a.18.18,0,0,1-.07,0,.2.2,0,0,1-.15,0,.2.2,0,0,1-.11-.09A.28.28,0,0,1,31.48,8.36Z" transform="translate(0)"/><path class="cls-6" d="M33.26,6.81a.15.15,0,0,1,.1-.09.15.15,0,0,1,.11,0,.17.17,0,0,1,.05.12.19.19,0,0,1,0,.12.12.12,0,0,1-.09,0,.11.11,0,0,1-.08,0l-.4.36s0,0,0,0a0,0,0,0,1,0,0s0,0,0,0l.4-.37a.25.25,0,0,1,0-.12Zm.08,0h0a.06.06,0,0,0,0,.06.06.06,0,0,0,.08,0,.09.09,0,0,0,0-.1A.05.05,0,0,0,33.34,6.85Z" transform="translate(0)"/><path class="cls-6" d="M29.22,10.29l0,0,.68-.61,0,0a.2.2,0,0,1,.16,0,.18.18,0,0,1,.12.09h0a.28.28,0,0,1,0,.13.3.3,0,0,1-.08.21l-.06.06-.66.58a.2.2,0,0,1-.14.06.23.23,0,0,1-.16-.1h0a.28.28,0,0,1,0-.22A.31.31,0,0,1,29.22,10.29Z" transform="translate(0)"/><path class="cls-6" d="M29.9,9.68l0,0L30.62,9l0,0a.17.17,0,0,1,.15,0,.22.22,0,0,1,.12.09h0a.33.33,0,0,1,0,.13.24.24,0,0,1-.08.21l-.06.06-.66.59a.24.24,0,0,1-.14,0,.21.21,0,0,1-.15-.09v0a.28.28,0,0,1,0-.22A.31.31,0,0,1,29.9,9.68Z" transform="translate(0)"/><path class="cls-6" d="M30.62,9s0,0,0,0l.68-.61,0,0a.2.2,0,0,1,.16,0,.22.22,0,0,1,.12.09h0a.28.28,0,0,1,0,.13.3.3,0,0,1-.08.21l-.06.06-.66.59a.24.24,0,0,1-.14.05.23.23,0,0,1-.16-.1h0a.28.28,0,0,1,0-.22A.31.31,0,0,1,30.62,9Z" transform="translate(0)"/><path class="cls-6" d="M31.3,8.43l0,0L32,7.78l0,0a.17.17,0,0,1,.15,0,.22.22,0,0,1,.12.09h0a.33.33,0,0,1,0,.13.24.24,0,0,1-.08.21l-.06.06-.66.59a.24.24,0,0,1-.14,0,.19.19,0,0,1-.15-.09v0a.28.28,0,0,1,0-.22A.31.31,0,0,1,31.3,8.43Z" transform="translate(0)"/><path class="cls-6" d="M31.64,9.08a.26.26,0,0,1,.09-.15l.54-.46L32.88,8a.2.2,0,0,1,.23,0l0,0A.1.1,0,0,0,33,8a.17.17,0,0,0,0,.1.12.12,0,0,0,0,.08.08.08,0,0,0,.09,0,.11.11,0,0,0,.07-.06s0,0,.05-.05a.3.3,0,0,1-.08.24l-.42.36c-.24.19-.47.39-.7.59l-.07,0a.19.19,0,0,1-.15,0,.17.17,0,0,1-.11-.09A.28.28,0,0,1,31.64,9.08Z" transform="translate(0)"/><path class="cls-6" d="M33.47,7.59a.14.14,0,0,1,.1-.08.12.12,0,0,1,.11,0,.16.16,0,0,1,0,.12.17.17,0,0,1,0,.12.12.12,0,0,1-.1,0,.11.11,0,0,1-.07,0l-.41.35s0,0,0,0a0,0,0,0,1,0-.05l0,0,.41-.35a.19.19,0,0,1,0-.13Zm.08,0h0a.07.07,0,0,0,0,.06s.05.06.08,0a.07.07,0,0,0,0-.09A0,0,0,0,0,33.55,7.63Z" transform="translate(0)"/><path class="cls-6" d="M29.34,10.93l0,0,.7-.59,0,0a.16.16,0,0,1,.16,0,.18.18,0,0,1,.12.09h0a.31.31,0,0,1,0,.13.3.3,0,0,1-.08.21l-.06.05-.68.57a.24.24,0,0,1-.14,0,.23.23,0,0,1-.15-.1h0a.26.26,0,0,1,0-.23Z" transform="translate(0)"/><path class="cls-6" d="M30,10.35l0,0,.7-.58,0,0a.21.21,0,0,1,.16,0,.19.19,0,0,1,.11.09v0a.28.28,0,0,1,0,.13.3.3,0,0,1-.08.2l-.07.06-.67.56a.17.17,0,0,1-.15,0,.2.2,0,0,1-.15-.1h0a.28.28,0,0,1,0-.22A.44.44,0,0,1,30,10.35Z" transform="translate(0)"/><path class="cls-6" d="M30.77,9.73a.08.08,0,0,0,0,0l.7-.58,0,0a.21.21,0,0,1,.28.07h0a.28.28,0,0,1,0,.13.3.3,0,0,1-.08.21l-.07.05-.67.57a.18.18,0,0,1-.14,0,.19.19,0,0,1-.15-.09v0a.24.24,0,0,1,0-.22A.31.31,0,0,1,30.77,9.73Z" transform="translate(0)"/><path class="cls-6" d="M31.47,9.14l0,0,.7-.59,0,0a.16.16,0,0,1,.15,0,.19.19,0,0,1,.12.09v0a.25.25,0,0,1,0,.12.3.3,0,0,1-.08.21L32.41,9l-.67.56a.21.21,0,0,1-.15.05.22.22,0,0,1-.15-.1h0a.29.29,0,0,1,0-.22A.24.24,0,0,1,31.47,9.14Z" transform="translate(0)"/><path class="cls-6" d="M32.2,9.53a.27.27,0,0,1,.1-.15c.18-.15.37-.29.56-.43s.41-.33.62-.49a.2.2,0,0,1,.23,0l-.05,0a.08.08,0,0,0-.07,0,.1.1,0,0,0,0,.1.16.16,0,0,0,0,.09.1.1,0,0,0,.09,0,.11.11,0,0,0,.07-.06l.06,0a.28.28,0,0,1-.1.23l-.43.34-.72.55-.06.05a.22.22,0,0,1-.16,0,.35.35,0,0,1-.11-.1A.34.34,0,0,1,32.2,9.53Z" transform="translate(0)"/><path class="cls-6" d="M34.08,8.13a.16.16,0,0,1,.1-.08.13.13,0,0,1,.11,0,.16.16,0,0,1,0,.12.15.15,0,0,1,0,.11.16.16,0,0,1-.1.05l-.08,0-.42.33h0s0,0,0,0a.05.05,0,0,1,0,0l.43-.34a.17.17,0,0,1,0-.12Zm.08,0h0a.07.07,0,0,0,0,.06s0,.06.07,0a.07.07,0,0,0,0-.09A0,0,0,0,0,34.16,8.17Z" transform="translate(0)"/><path class="cls-6" d="M29.84,11.27l0,0,.72-.55,0,0a.18.18,0,0,1,.16,0,.19.19,0,0,1,.12.1h0a.29.29,0,0,1-.05.33l-.07.05-.69.54a.28.28,0,0,1-.15,0,.19.19,0,0,1-.14-.11h0a.3.3,0,0,1,0-.23Z" transform="translate(0)"/><path class="cls-6" d="M30.56,10.71l0,0,.72-.55,0,0a.18.18,0,0,1,.16,0,.19.19,0,0,1,.11.09v0a.28.28,0,0,1,0,.13.25.25,0,0,1-.09.2l-.06.05-.7.53a.15.15,0,0,1-.14,0,.18.18,0,0,1-.15-.1h0a.3.3,0,0,1,0-.23A.27.27,0,0,1,30.56,10.71Z" transform="translate(0)"/><path class="cls-6" d="M31.31,10.13l0,0,.72-.55,0,0a.18.18,0,0,1,.16,0,.22.22,0,0,1,.12.09v0a.29.29,0,0,1-.05.33l-.07.05-.69.53a.17.17,0,0,1-.15,0,.16.16,0,0,1-.14-.1h0a.3.3,0,0,1,0-.23Z" transform="translate(0)"/><path class="cls-6" d="M32,9.58l0,0L32.79,9l0,0A.22.22,0,0,1,33,9a.27.27,0,0,1,.11.1v0a.28.28,0,0,1,0,.13.25.25,0,0,1-.09.2l-.06,0-.7.53a.15.15,0,0,1-.14,0,.18.18,0,0,1-.15-.1h0a.31.31,0,0,1,0-.23A.21.21,0,0,1,32,9.58Z" transform="translate(0)"/><path class="cls-6" d="M32.45,10.21a.23.23,0,0,1,.1-.15l.57-.41.64-.45a.18.18,0,0,1,.23,0s0,0-.06,0l-.07,0a.14.14,0,0,0,0,.09.12.12,0,0,0,0,.09.11.11,0,0,0,.09,0s0,0,.07-.05l.06,0a.3.3,0,0,1-.1.22l-.45.32-.74.52-.06,0a.22.22,0,0,1-.16,0,.24.24,0,0,1-.1-.1A.28.28,0,0,1,32.45,10.21Z" transform="translate(0)"/><path class="cls-6" d="M34.37,8.9a.12.12,0,0,1,.1-.07.1.1,0,0,1,.11.05.17.17,0,0,1,0,.12.14.14,0,0,1,0,.11.11.11,0,0,1-.1,0,.12.12,0,0,1-.08,0L34,9.42h0s0,0,0,0,0,0,0-.05L34.35,9a.17.17,0,0,1,0-.12Zm.07,0h0s0,0,0,.06a.07.07,0,0,0,.08,0,.08.08,0,0,0,0-.09A.05.05,0,0,0,34.44,9Z" transform="translate(0)"/><path class="cls-6" d="M30,11.83a.08.08,0,0,1,0,0l.73-.51,0,0a.18.18,0,0,1,.16,0,.29.29,0,0,1,.11.11h0a.31.31,0,0,1,0,.13.27.27,0,0,1-.09.2l-.07.05-.71.5a.21.21,0,0,1-.15,0,.19.19,0,0,1-.14-.11h0a.31.31,0,0,1,0-.23A.22.22,0,0,1,30,11.83Z" transform="translate(0)"/><path class="cls-6" d="M30.76,11.31l0,0,.74-.52,0,0a.2.2,0,0,1,.27.09v0a.28.28,0,0,1,0,.13.29.29,0,0,1-.1.19l-.07.05-.71.5a.2.2,0,0,1-.15,0,.21.21,0,0,1-.14-.11h0a.28.28,0,0,1,0-.22A.21.21,0,0,1,30.76,11.31Z" transform="translate(0)"/><path class="cls-6" d="M31.53,10.77l0,0,.73-.51,0,0a.15.15,0,0,1,.16,0,.19.19,0,0,1,.12.1h0a.31.31,0,0,1,0,.13.25.25,0,0,1-.1.2l-.06,0-.72.5a.17.17,0,0,1-.14,0,.23.23,0,0,1-.15-.11h0a.31.31,0,0,1,0-.23Z" transform="translate(0)"/><path class="cls-6" d="M32.27,10.25l0,0,.74-.52,0,0a.22.22,0,0,1,.16,0,.27.27,0,0,1,.11.1v0a.19.19,0,0,1,0,.13.29.29,0,0,1-.09.2l-.07.05-.71.49a.2.2,0,0,1-.15,0,.21.21,0,0,1-.14-.12h0a.28.28,0,0,1,0-.22A.21.21,0,0,1,32.27,10.25Z" transform="translate(0)"/><path class="cls-6" d="M31.05,7.83a.3.3,0,0,1,.08-.16l.52-.51.57-.56a.2.2,0,0,1,.23,0l-.05,0a.18.18,0,0,0-.07,0,.36.36,0,0,0,0,.1.2.2,0,0,0,0,.08.1.1,0,0,0,.1,0,.09.09,0,0,0,.06-.06l.06,0a.3.3,0,0,1-.08.24l-.4.39L31.43,8l-.06.06a.22.22,0,0,1-.16,0A.31.31,0,0,1,31.1,8,.25.25,0,0,1,31.05,7.83Z" transform="translate(0)"/><path class="cls-6" d="M32.79,6.2a.12.12,0,0,1,.09-.09.13.13,0,0,1,.12,0,.22.22,0,0,1,0,.11.16.16,0,0,1,0,.12.11.11,0,0,1-.09.06.11.11,0,0,1-.08,0l-.39.38,0,0a0,0,0,0,1,0,0l0,0,.39-.39a.17.17,0,0,1,0-.12Zm.08,0h0a.13.13,0,0,0,0,.06s.06,0,.08,0a.08.08,0,0,0,0-.1S32.89,6.2,32.87,6.23Z" transform="translate(0)"/><path class="cls-6" d="M28.86,9.86l0,0,.66-.64,0,0a.19.19,0,0,1,.16,0,.2.2,0,0,1,.12.08h0a.33.33,0,0,1,0,.13.26.26,0,0,1-.07.21l-.06.06-.64.62a.2.2,0,0,1-.14.06.16.16,0,0,1-.15-.09h0a.28.28,0,0,1,0-.22A.31.31,0,0,1,28.86,9.86Z" transform="translate(0)"/><path class="cls-6" d="M29.52,9.22l0,0,.66-.64,0,0a.23.23,0,0,1,.16,0,.2.2,0,0,1,.12.08v0a.17.17,0,0,1,0,.12.26.26,0,0,1-.07.21L30.45,9l-.64.62a.2.2,0,0,1-.14.06.19.19,0,0,1-.15-.08v0a.28.28,0,0,1,0-.22A.31.31,0,0,1,29.52,9.22Z" transform="translate(0)"/><path class="cls-6" d="M30.22,8.54l0,0,.66-.63,0,0a.18.18,0,0,1,.16,0,.23.23,0,0,1,.12.08h0a.28.28,0,0,1,0,.13.26.26,0,0,1-.07.21l-.06.06-.64.62a.2.2,0,0,1-.14.06.22.22,0,0,1-.16-.09h0a.25.25,0,0,1,0-.22A.37.37,0,0,1,30.22,8.54Z" transform="translate(0)"/><path class="cls-6" d="M30.88,7.9l0,0,.66-.63,0,0a.19.19,0,0,1,.16,0,.2.2,0,0,1,.12.08h0a.28.28,0,0,1,0,.13.26.26,0,0,1-.07.21l-.06.06-.64.62a.2.2,0,0,1-.14.06.16.16,0,0,1-.15-.09h0a.28.28,0,0,1,0-.22A.37.37,0,0,1,30.88,7.9Z" transform="translate(0)"/><polygon class="cls-11" points="69.1 13.18 68.36 10.95 67.62 13.18 69.1 13.18"/><path class="cls-11" d="M78.24,20.49a1.78,1.78,0,0,0-1.14-.31,1.8,1.8,0,0,0-1.14.31,1.16,1.16,0,0,0-.38.94,1.28,1.28,0,0,0,.37,1,2.27,2.27,0,0,0,2.29,0,1.19,1.19,0,0,0,.38-1A1.21,1.21,0,0,0,78.24,20.49Z" transform="translate(0)"/><polygon class="cls-11" points="41.25 13.18 40.51 10.95 39.77 13.18 41.25 13.18"/><path class="cls-11" d="M50.46,9.52H48.75v2h1.59a1.4,1.4,0,0,0,.85-.21l0,0a1.13,1.13,0,0,0,.21-.76,1.21,1.21,0,0,0-.22-.76A1.24,1.24,0,0,0,50.46,9.52Z" transform="translate(0)"/><path class="cls-12" d="M39,13.73h2.94L40.47,9.29Zm2.25-.55H39.77L40.51,11Z" transform="translate(0)"/><path class="cls-12" d="M50.43,9H48.19v3h2.12a1.71,1.71,0,0,0,1.22-.36,1.48,1.48,0,0,0,.4-1.16,1.69,1.69,0,0,0-.37-1.13A1.65,1.65,0,0,0,50.43,9Zm.79,2.24,0,0a1.4,1.4,0,0,1-.85.21H48.75v-2h1.71a1.24,1.24,0,0,1,.75.21,1.21,1.21,0,0,1,.22.76A1.13,1.13,0,0,1,51.22,11.25Z" transform="translate(0)"/><path class="cls-12" d="M66.87,13.73h2.94L68.34,9.29Zm2.23-.55H67.62L68.36,11Z" transform="translate(0)"/><path class="cls-12" d="M53.66,13.41h0c.11-.13.21-.25.3-.38v.9a4.32,4.32,0,0,0,1.26,3.33,4.88,4.88,0,0,0,3.49,1.15,4.85,4.85,0,0,0,3.48-1.15,4.33,4.33,0,0,0,1.27-3.33V7.14a.53.53,0,0,0-.53-.52H60.76a.53.53,0,0,0-.53.52v6.55a2.35,2.35,0,0,1-.35,1.44,1.61,1.61,0,0,1-1.16.37,1.58,1.58,0,0,1-1.15-.36,2.53,2.53,0,0,1-.34-1.45V7.14a.53.53,0,0,0-.53-.52H55.6a1.54,1.54,0,0,0-1.17.52,1.6,1.6,0,0,0-.45,1,2.42,2.42,0,0,0-.36-.43,3.9,3.9,0,0,0-2.89-1H47.15a1.62,1.62,0,0,0-1.63,1.62V16L42.23,7a.53.53,0,0,0-.5-.35H40a1.56,1.56,0,0,0-1.54,1h0L35,17.45a.49.49,0,0,0,.07.48.51.51,0,0,0,.43.22h2.29a.52.52,0,0,0,.51-.37L38.85,16h3.32l.59,1.8a.52.52,0,0,0,.5.36h2.3a.48.48,0,0,0,.24-.06.54.54,0,0,0,.25.06h2.18a.52.52,0,0,0,.52-.52V14.42h2.14A3.75,3.75,0,0,0,53.66,13.41Zm.81-5.09a1.12,1.12,0,0,1,.32-.81,1,1,0,0,1,.78-.35h1.11c0,1.52-.33,7.35.45,8.34a2,2,0,0,0,1.56.55,2,2,0,0,0,1.56-.55,2.67,2.67,0,0,0,.49-1.8V7.16h2.18v6.78a3.79,3.79,0,0,1-1.1,3,4.3,4.3,0,0,1-3.13,1,4.26,4.26,0,0,1-3.12-1,3.75,3.75,0,0,1-1.1-3ZM43.23,17.65l-.71-2.16h-4.1l-.67,2.16h-2.3l3.49-9.76a1,1,0,0,1,1-.7H41.7l3.82,10.46Zm5-3.74v3.74H46V8.29a1,1,0,0,1,.33-.78,1.06,1.06,0,0,1,.78-.32H50.7A3.35,3.35,0,0,1,53.22,8a3.42,3.42,0,0,1,.85,2.53,3.58,3.58,0,0,1-.82,2.49,3.17,3.17,0,0,1-2.39.85Z" transform="translate(0)"/><path class="cls-12" d="M99.43,6.65H92.14a1.6,1.6,0,0,0-1,.32.53.53,0,0,0-.48-.32H84.13a1.6,1.6,0,0,0-1,.35.54.54,0,0,0-.51-.38H80.45a.53.53,0,0,0-.53.52v5.29l-3.3-5.55a.5.5,0,0,0-.45-.26H75a1.73,1.73,0,0,0-1.12.5,1.58,1.58,0,0,0-.48,1.15V16L70.08,7a.52.52,0,0,0-.49-.35H67.87a1.54,1.54,0,0,0-1.53,1h0l-3.49,9.75a.53.53,0,0,0,.5.7h2.3a.51.51,0,0,0,.5-.37L66.7,16H70l.58,1.8a.53.53,0,0,0,.51.36h2.29a.54.54,0,0,0,.25-.06.48.48,0,0,0,.24.06h2.15a.52.52,0,0,0,.53-.52v-5.3l3.33,5.57a.52.52,0,0,0,.45.25H82.6a.52.52,0,0,0,.21,0,.49.49,0,0,0,.21,0h7.66a.52.52,0,0,0,.53-.52V15.68a.53.53,0,0,0-.53-.52h-5V13.53h2.47a1.59,1.59,0,0,0,1.15-.47,1.54,1.54,0,0,0,.48-1.14v-.7a.52.52,0,0,0-.53-.52H85.7V9.49h5.07a.6.6,0,0,0,.27.07h2.59v8.08a.52.52,0,0,0,.53.52h2.18a.52.52,0,0,0,.53-.52V9.55h2.56A.52.52,0,0,0,100,9V7.18A.53.53,0,0,0,99.43,6.65Zm-28.33,11-.71-2.16h-4.1l-.67,2.16h-2.3l3.49-9.76a1,1,0,0,1,1-.7h1.72l3.82,10.46Zm11.49,0H80.35L76,10.44v7.21H73.88V8.29a1,1,0,0,1,.33-.78A1.18,1.18,0,0,1,75,7.16h1.16l4.29,7.21V7.16h2.15ZM90.67,9H85.16v2.26h4.1v.7a1,1,0,0,1-.32.77,1.06,1.06,0,0,1-.78.32h-3V15.7h5.51v1.95H83V8.29a1.06,1.06,0,0,1,.32-.78,1.1,1.1,0,0,1,.79-.32h6.55ZM99.43,9H96.34v8.61H94.16V9H91V8.28a1.06,1.06,0,0,1,.32-.77,1.1,1.1,0,0,1,.79-.32h7.29Z" transform="translate(0)"/><path class="cls-13" d="M80.44,14.37,76.15,7.16H75a1.18,1.18,0,0,0-.78.35,1,1,0,0,0-.33.78v9.36H76V10.44l4.32,7.21h2.24V7.16H80.44Z" transform="translate(0)"/><path class="cls-13" d="M83.33,7.51a1.06,1.06,0,0,0-.32.78v9.36h7.66V15.7H85.16V13h3a1.06,1.06,0,0,0,.78-.32,1,1,0,0,0,.32-.77v-.7h-4.1V9h5.51V7.19H84.12A1.1,1.1,0,0,0,83.33,7.51Z" transform="translate(0)"/><path class="cls-13" d="M91.35,7.51a1.06,1.06,0,0,0-.32.77V9h3.13v8.61h2.18V9h3.09V7.19H92.14A1.1,1.1,0,0,0,91.35,7.51Z" transform="translate(0)"/><path class="cls-13" d="M55.57,16.89a4.26,4.26,0,0,0,3.12,1,4.3,4.3,0,0,0,3.13-1,3.79,3.79,0,0,0,1.1-3V7.16H60.74V13.7a2.67,2.67,0,0,1-.49,1.8,2,2,0,0,1-1.56.55,2,2,0,0,1-1.56-.55c-.78-1-.45-6.82-.45-8.34H55.57a1,1,0,0,0-.78.35,1.12,1.12,0,0,0-.32.81v5.62A3.75,3.75,0,0,0,55.57,16.89Z" transform="translate(0)"/><path class="cls-13" d="M67.85,7.19a1,1,0,0,0-1,.7l-3.49,9.76h2.3l.67-2.16h4.1l.71,2.16h2.29L69.57,7.19Zm-1,6.54,1.47-4.44,1.47,4.44Z" transform="translate(0)"/><path class="cls-13" d="M40,7.19a1,1,0,0,0-1,.7l-3.49,9.76h2.3l.67-2.16h4.1l.71,2.16h2.29L41.7,7.19Zm-1,6.54,1.47-4.44,1.47,4.44Z" transform="translate(0)"/><path class="cls-13" d="M54.07,10.57A3.42,3.42,0,0,0,53.22,8a3.35,3.35,0,0,0-2.52-.85H47.12a1.06,1.06,0,0,0-.78.32,1,1,0,0,0-.33.78v9.36h2.18V13.91h2.67a3.17,3.17,0,0,0,2.39-.85A3.58,3.58,0,0,0,54.07,10.57Zm-2.54,1.1a1.71,1.71,0,0,1-1.22.36H48.19V9h2.24a1.65,1.65,0,0,1,1.13.37,1.69,1.69,0,0,1,.37,1.13A1.48,1.48,0,0,1,51.53,11.67Z" transform="translate(0)"/><polygon class="cls-12" points="83.88 22.45 82.45 19.62 80.71 19.62 80.71 23.3 81.92 23.3 81.8 20.41 83.29 23.3 84.54 23.3 85.98 20.44 85.89 23.3 87.05 23.3 87.05 19.62 85.32 19.62 83.88 22.45"/><polygon class="cls-12" points="49.13 20.27 50.95 20.27 50.95 23.3 52.17 23.3 52.17 20.27 54 20.27 54 19.63 49.13 19.63 49.13 20.27"/><path class="cls-12" d="M79.22,20a3.85,3.85,0,0,0-2.12-.47A3.91,3.91,0,0,0,75,20a1.58,1.58,0,0,0-.7,1.42A1.69,1.69,0,0,0,75,22.91a5,5,0,0,0,4.25,0,1.65,1.65,0,0,0,.68-1.45A1.63,1.63,0,0,0,79.22,20Zm-1,2.41a2.27,2.27,0,0,1-2.29,0,1.28,1.28,0,0,1-.37-1,1.16,1.16,0,0,1,.38-.94,1.8,1.8,0,0,1,1.14-.31,1.78,1.78,0,0,1,1.14.31,1.21,1.21,0,0,1,.38,1A1.19,1.19,0,0,1,78.24,22.43Z" transform="translate(0)"/><path class="cls-12" d="M64.52,20.09a1.66,1.66,0,0,0-.65,1.44,1.6,1.6,0,0,0,.22.86,1.56,1.56,0,0,0,.65.59,2.5,2.5,0,0,0,.71.25,5.69,5.69,0,0,0,1,.07h2v-.64H66.54a1.85,1.85,0,0,1-1-.21.79.79,0,0,1-.32-.69h3.29v-.64H65.21a.81.81,0,0,1,.36-.65,1.81,1.81,0,0,1,1-.21h1.95v-.64h-2A3.45,3.45,0,0,0,64.52,20.09Z" transform="translate(0)"/><path class="cls-12" d="M69.81,20.09a1.65,1.65,0,0,0-.64,1.44,1.69,1.69,0,0,0,.21.86A1.63,1.63,0,0,0,70,23a2.5,2.5,0,0,0,.71.25,5.76,5.76,0,0,0,1,.07h2v-.64H71.84a1.72,1.72,0,0,1-1.07-.25,1,1,0,0,1-.31-.85,1.35,1.35,0,0,1,.32-1,1.54,1.54,0,0,1,1.06-.31h1.94v-.63h-2A3.48,3.48,0,0,0,69.81,20.09Z" transform="translate(0)"/><path class="cls-12" d="M61.53,22.64a1,1,0,0,1-.42-.19.41.41,0,0,1-.15-.21,1.62,1.62,0,0,1,0-.45V19.62H59.73v2.19a1.56,1.56,0,0,0,.12.68,1.21,1.21,0,0,0,.39.43,2,2,0,0,0,.69.3,6.45,6.45,0,0,0,1.17.08h1.5v-.61H62.2A3.73,3.73,0,0,1,61.53,22.64Z" transform="translate(0)"/><path class="cls-12" d="M54.86,20.09a1.65,1.65,0,0,0-.64,1.44,1.69,1.69,0,0,0,.21.86,1.63,1.63,0,0,0,.65.59,2.5,2.5,0,0,0,.71.25,5.76,5.76,0,0,0,1,.07h2v-.64H56.89a1.91,1.91,0,0,1-1-.21.79.79,0,0,1-.31-.69h3.28v-.64H55.56a.79.79,0,0,1,.36-.65,1.81,1.81,0,0,1,1-.21h1.94v-.64h-2A3.46,3.46,0,0,0,54.86,20.09Z" transform="translate(0)"/></svg>